<mxfile host="app.diagrams.net" modified="2023-03-10T05:44:37.420Z" agent="5.0 (Windows NT 10.0; Win64; x64) AppleWebKit/537.36 (KHTML, like Gecko) Chrome/110.0.0.0 Safari/537.36 Edg/110.0.1587.46" etag="A0LU0t9xaGJsF75EQfgv" version="20.8.4" type="github">
  <diagram id="Q7qHMEH2d3SDrPlgRbmK" name="Page-1">
    <mxGraphModel dx="1930" dy="1101" grid="0" gridSize="10" guides="1" tooltips="1" connect="1" arrows="1" fold="1" page="1" pageScale="1" pageWidth="850" pageHeight="1100" math="0" shadow="0">
      <root>
        <mxCell id="0" />
        <mxCell id="1" parent="0" />
        <mxCell id="_K0TXd-HjWh1RRuaEqXa-72" value="" style="rounded=1;whiteSpace=wrap;html=1;fontSize=18;" parent="1" vertex="1">
          <mxGeometry x="2014" y="309" width="146" height="344" as="geometry" />
        </mxCell>
        <mxCell id="_K0TXd-HjWh1RRuaEqXa-59" value="" style="rounded=1;whiteSpace=wrap;html=1;fontSize=18;" parent="1" vertex="1">
          <mxGeometry x="2287" y="309" width="139" height="339" as="geometry" />
        </mxCell>
        <mxCell id="_K0TXd-HjWh1RRuaEqXa-58" value="" style="rounded=1;whiteSpace=wrap;html=1;fontSize=18;" parent="1" vertex="1">
          <mxGeometry x="1705" y="310" width="177" height="337" as="geometry" />
        </mxCell>
        <mxCell id="1Ri_M8LK72BIoIfSnynr-46" value="" style="rounded=1;whiteSpace=wrap;html=1;fontSize=14;strokeColor=#666666;fillColor=#f5f5f5;fontColor=#333333;" parent="1" vertex="1">
          <mxGeometry x="257" y="334.39" width="389.5" height="440" as="geometry" />
        </mxCell>
        <mxCell id="1Ri_M8LK72BIoIfSnynr-29" value="" style="rounded=0;whiteSpace=wrap;html=1;fontSize=14;" parent="1" vertex="1">
          <mxGeometry x="851" y="354.39" width="160" height="160" as="geometry" />
        </mxCell>
        <mxCell id="1Ri_M8LK72BIoIfSnynr-34" value="" style="rounded=1;whiteSpace=wrap;html=1;fontSize=14;fillColor=#d5e8d4;strokeColor=#82b366;" parent="1" vertex="1">
          <mxGeometry x="906" y="440.39" width="90" height="41" as="geometry" />
        </mxCell>
        <mxCell id="1Ri_M8LK72BIoIfSnynr-1" value="" style="aspect=fixed;html=1;points=[];align=center;image;fontSize=12;image=img/lib/azure2/devops/Application_Insights.svg;" parent="1" vertex="1">
          <mxGeometry x="733" y="544.39" width="44" height="63" as="geometry" />
        </mxCell>
        <mxCell id="1Ri_M8LK72BIoIfSnynr-2" value="&lt;font style=&quot;font-size: 14px;&quot;&gt;Application insights&lt;/font&gt;" style="text;html=1;strokeColor=none;fillColor=none;align=center;verticalAlign=middle;whiteSpace=wrap;rounded=0;" parent="1" vertex="1">
          <mxGeometry x="666.5" y="616.39" width="177" height="30" as="geometry" />
        </mxCell>
        <mxCell id="1Ri_M8LK72BIoIfSnynr-3" value="" style="aspect=fixed;html=1;points=[];align=center;image;fontSize=12;image=img/lib/azure2/general/Dashboard.svg;" parent="1" vertex="1">
          <mxGeometry x="1191" y="436.89" width="68" height="48" as="geometry" />
        </mxCell>
        <mxCell id="1Ri_M8LK72BIoIfSnynr-4" value="" style="aspect=fixed;html=1;points=[];align=center;image;fontSize=12;image=img/lib/azure2/identity/Users.svg;" parent="1" vertex="1">
          <mxGeometry x="127" y="391.39" width="64" height="70" as="geometry" />
        </mxCell>
        <mxCell id="1Ri_M8LK72BIoIfSnynr-6" value="" style="sketch=0;aspect=fixed;html=1;points=[];align=center;image;fontSize=12;image=img/lib/mscae/Docker.svg;" parent="1" vertex="1">
          <mxGeometry x="401" y="684.39" width="91" height="74.62" as="geometry" />
        </mxCell>
        <mxCell id="1Ri_M8LK72BIoIfSnynr-7" value="" style="sketch=0;html=1;dashed=0;whitespace=wrap;fillColor=#2875E2;strokeColor=#ffffff;points=[[0.005,0.63,0],[0.1,0.2,0],[0.9,0.2,0],[0.5,0,0],[0.995,0.63,0],[0.72,0.99,0],[0.5,1,0],[0.28,0.99,0]];shape=mxgraph.kubernetes.icon;prIcon=api" parent="1" vertex="1">
          <mxGeometry x="896" y="354.39" width="70" height="74" as="geometry" />
        </mxCell>
        <mxCell id="1Ri_M8LK72BIoIfSnynr-9" value="" style="editableCssRules=.*;shape=image;verticalLabelPosition=bottom;labelBackgroundColor=#ffffff;verticalAlign=top;aspect=fixed;imageAspect=0;image=data:image/svg+xml,PHN2ZyB4bWxucz0iaHR0cDovL3d3dy53My5vcmcvMjAwMC9zdmciIHhtbG5zOnY9Imh0dHBzOi8vdmVjdGEuaW8vbmFubyIgd2lkdGg9IjM3Ny4xNTkzMDIxNjAyNjMwNSIgaGVpZ2h0PSIzMzYuMTYyNDk5MDAzMzEwOCIgdmlld0JveD0iLTAuMDU4MDAwMDA1NzgxNjUwNTQgMC4xMTI5OTk5OTgwMzMwNDY3MiA5OS43OTAwMDA5MTU1MjczNCA4OC45NDMwMDA3OTM0NTcwMyI+JiN4YTs8c3R5bGUgdHlwZT0idGV4dC9jc3MiPiYjeGE7CS5zdDB7ZmlsbDojNjY5ZGY2O30mI3hhOwkuc3Qxe2ZpbGw6I2FlY2JmYTt9JiN4YTsJLnN0MntmaWxsOiM0Mjg1ZjQ7fSYjeGE7PC9zdHlsZT4mI3hhOwk8cGF0aCBjbGFzcz0ic3QwIiBkPSJNNTMuMjQzIDYyLjA5VjQ3LjA5NGwxMy4yMDEgOC40MTZ2MTUuMDM4em0tMzMuMDIxIDBWNDcuMDk0bDEzLjIwMSA4LjQxNnYxNS4wMzh6bTE2LjUxMS0zMi4yODVWMTQuODFsMTMuMjAxIDguNDE2djE1LjAzOHptNjIuOTk5IDMzLjk2VjI1LjQwM2wtOS41NjItMS44ODR2NDIuMTMxem0tOTkuNzg4IDBWMjUuNDAzbDkuNTYyLTEuODg0djQyLjEzMXoiLz4mI3hhOwk8cGF0aCBjbGFzcz0ic3QxIiBkPSJNNTMuMTg1IDQ3LjA5NGwxMy4yNTgtOC4yODcgMTMuMDE2IDguMjM0LTEzLjAxNiA4LjQ2OXptLTMzLjAyMSAwbDEzLjI1OC04LjI4NyAxMy4wMTYgOC4yMzQtMTMuMDE2IDguNDY5ek0zNi42NzUgMTQuODFsMTMuMjU4LTguMjg3IDEzLjAxNiA4LjIzNC0xMy4wMTYgOC40Njl6bTYzLjA1NiA0OC45NTZ2MTIuMjE3TDc3LjAxIDg5LjA1NVY3Ny43NTJ6bTAtMzguMzYzVjEzLjE4Nkw3Ny4wMS4xMTN2MTEuMzAzek0tLjA1OCA2My43NjZ2MTIuMjE3bDIyLjcyMSAxMy4wNzNWNzcuNzUyem0wLTM4LjM2M1YxMy4xODZMMjIuNjYzLjExM3YxMS4zMDN6Ii8+JiN4YTsJPHBhdGggY2xhc3M9InN0MiIgZD0iTTY2LjQ0NCA3MC41NDdWNTUuNTFsMTMuMDE2LTguNDY5djE1LjR6bS0zMy4wMjEgMFY1NS41MWwxMy4wMTYtOC40Njl2MTUuNHptMTYuNTExLTMyLjI4NVYyMy4yMjVsMTMuMDE2LTguNDY5djE1LjR6bTQ5Ljc5OCAyNS41MDNsLTkuNTYyIDUuODh2LTMuOTk2em0wLTM4LjM2M2wtOS41NjItNS44OHYzLjk5NnpNLS4wNTggNjMuNzY2bDkuNTYyIDUuODh2LTMuOTk2em0wLTM4LjM2M2w5LjU2Mi01Ljg4djMuOTk2eiIvPiYjeGE7PC9zdmc+;" parent="1" vertex="1">
          <mxGeometry x="906" y="684.3900000000001" width="68.89" height="62" as="geometry" />
        </mxCell>
        <mxCell id="1Ri_M8LK72BIoIfSnynr-10" value="&lt;font style=&quot;font-size: 14px;&quot;&gt;COSMIC Cluster&lt;/font&gt;" style="text;html=1;strokeColor=none;fillColor=none;align=center;verticalAlign=middle;whiteSpace=wrap;rounded=0;" parent="1" vertex="1">
          <mxGeometry x="861" y="324.39" width="140" height="30" as="geometry" />
        </mxCell>
        <mxCell id="1Ri_M8LK72BIoIfSnynr-11" value="" style="shape=image;verticalLabelPosition=bottom;labelBackgroundColor=default;verticalAlign=top;aspect=fixed;imageAspect=0;image=data:image/png,iVBORw0KGgoAAAANSUhEUgAAAD4AAABACAYAAABC6cT1AAAXnElEQVRoBe2aB3RVxdbHz70JoSOd0BJaepSekESqKFKlqiAqD0F674KAnwoKWOlFQUBqKAktvffeSO8hhfTek9+3zrn3hoAUAd97rPV9WWuvPbPnJDm/+e+ZM2fmCPwf/RH+j3Lz/+D/aeUL0tOJ8fQgwtmZtMgI6qpL/qO38B9XPC8lBctNG9mg05t5LTSYrSFnfqd27JkyiFTHFVBwnbqK9H97J/zHwMsLCnD9+Ue+6tubxTKBBWoC8zXU+FRDzhw1gWmCwMIuAtGH5dR7aVEXOoP61APUFwdTX1v2j3fEvx28tqqK8CuW7B9mwjp1OWtEa6bBymZNWNpUnc+bqksd8ImGnBmCnPV9ZRT8KVBpKVB1VaDKujU1zibUhm2gLuMm9eUZ/0gn/FvBU729uDBrJttbtWCzhjqbWzRnU/OmbGjelLXNNVjdrAkrmjVhcVN1FjRVY56GnNkyOY7L1Kg8r07JadHUKD0tUHZaoOKsOpXXe1Pj/gE1MYepzw+nvrb8hTri3wKen5CA7apV7OnckR0a6uxo2VyC39qyBV+0bM7mFs3Y2KIZ68UOaKbBqmZNWNZUnUVN1flUpsbRUWqUn1Sj6Lg6RceU/rjo1Sg+JlByRKD0mED5H22ptBpGte9Gau/ZUf8cE+Q/Cl6ek4Pfnj0c0dNlV1MNdrVqybdtWvF161Z81aolO1q14MuWzdnasjlblPCi+uuaaTSk/+dq6vwyUI3iQ+oUHlCnYL+a5AsPiF5Z3q9GwQE1CvbLKPxFoPgXgZJDalRcNqU2+fbfyoB/BFwcxzEXLnDBwoKfWrTgx9at2df2Nfa0ac13bVqzq3Vrvmndiv9p1ZKdrVpK6m9r2ZwvWjRTqN+8Keuba0jqL1dvwoH+6hT8qE7+D2oK26f0PyhjDXVFPG+fGqLl7xEo3t+GmljLZ8K/NHimhwd3ps/gSNu2HGjdmv3t2vFru3b83LYtP7R9jb2vvcb3bVqzu03rx6jfokH9TWIGNG/K6iYaHHpDnbzdauTuUiP32yeYqk3lVdd9LVD4a0/q8uOfCv/C4EWxcXivXMWfWtqcaNuO4x07crRDRw536MDB9u2lDhDhfxI74DWxA9oo1G+jVL+1Uv2WLVCorxj765o05YixBrk71cjeoUb2dpXJHy43bmtc3q5GzjaBctdv/lnwyuxsIvf9gJWBEWfatOV0x86c6tSZ3zt24rcOnTjWoSNHOnTgUPv2HGjfvkH9H197jX2S+ooO+La1OPZbKsZ+S8XY3yZOeHI1DuvKyN6qRtYW0eRKr8b9LQoTY2L54fZGsY0CxacmQn39E+H/tuK1FZWknb+Ak8UILNt34mLHLlzorMm5zpqc7dyF0506c6pjZ37r2InjHR90wMH2HST1f2nX7hH12yjSXxz7LZqzXaMJX7dry7HRY/D5cg7Zm9XI3Cgna6MamRvEssKylDExLtkG0cvJ3KC4VoqtFyg8ZEF9bdXLgVfl5hI8fyG3NLtj1bkr17v24Kpmdy5rduNil66c76zJn501OdOpC3906sxJsQOU6h/t0IHD7RXprxr7ovp7W7Vid1MNvmvVkiP9+2O3cQNJrq5Ul5VTHWND1loZmevkClur9lcvxtbKyVT5dWpkiNeLsTUChfvN/wJeXV1NQUEBqampz347q6uqImzREm6168Stbj252a0nN7r1xKprD65pdueKZncuaXbjQueuCvU7KdQ/2bGTlP4nOnTkWIcOUvofFCe+li35pVUrjuvqcGv+fGKuX6M8N/chZSrDrclcJSNjlVxpag/Kq5VllVdds1pOhmhifaVA4S/mUF9DZWUlmZmZxMbGEhkZSXx8POnp6c8Gv3/rDvZde2LTTYs73bW53U2roQOsu/bAqmt3SX1LzW6KDugipn+XRup34rd27Tn+WltOaffi1syZRPz+O0UpKQ/BNq5UhFmTsVxG+nL5M0yN9OVqpK9QXSfW5aQvFbj//VDiYiIl2OTkZPLy8iguLqa0tJSSkpJng0euXINdp67Y9+iFbY9e2Ijw3R/A35DgVeqr4LvyZ/uO0uR3TrMbN8e8RcjeveSGhlFfU9OY8bHlilBrMpbIuLdErrClctKV5Qa/VNWmpmhT1ZfISV8skPntELIz0yVIEVaEbmxPndzEmwycMh0HzZ449OyNfY/eSvhejdTXklK/Qf0u3bDs0Jnbg4cStHkLma5u1JQ933q6IsSa9IUCaZ/LG+yesqzyjdseLd9bIJCzexjFhfkPwf5tcHF8B747GaeuWjj27COZCG/3kPra3OqmpRj7mt0RMyB825eU37v3WDX/TrAi2Jp78wXSPpOR+pmctMeYGFfZX9r/JZD9jSnFBYr0bgysKj9VcRE8aPxknLtq46zVFyclvEMPUf1e2HZXpP6d7lpS+t/o2IW7W7b+HbanXlMeZE3apwKp82SkzpM3WEqjshh/tN4Q+0Tg/lcvCR4y/j3cuvXCVbsfLlp9G3VAb8QOUKivLU1+jsb9KXvKpPVU2kaN5YHWpM4VSJkrI3munJSPn9M+EsjaYUrRiyteTciEqbh37427tg5u2v1w1eqngNcSU7839j2V8Jo98Zsyjbrq6gaEqooaKkqrqKt9/AqqoqSSyrIH16t+sTzAmpTZAsmzZSTPkT+w2XJSxPrsRrHG7aryhwJZX4rguS86xqsJmfw+7j118Oyli4cKXlsB79wo9e00exI8e660TKwsqyLCOR6bo954Xw3D9ogvUR7JlBVWSGz3E/NwOxeEr1UE9sf98LwURnZyAXU1dVJ7eYAVybMEkt6XkfS+/AkmtjVub1SeKZD5hSlF+S8BHjx1Du69jPDoY4Rnbz08euk0qO+ipUh/cew7dNUiZM7H0o1nxGTjZRlKlGci7peCObHKiiNLr3L1e2dqqmtJDs0gxD6GxOB7WO525sDCS5xcd5Pk0EwFuL8VydMFkmbISJwhlyxJ6VX1RKlNhhhXmKIstidNE8jc9LLg0+fh1ncQHjqD8Oj7Op69DfDspfMX9Z26aROqBM9KyCXcKY4Y32Q8LoVwct0Njiy/wtltd6iurCE/o4horyQJ/Or3LhxaasnR5deI90uTwMv8rEh6TyBhqkyyxKlyVJbQUJaRKLWLbWJZdY2MxCkCGRtE8Bee1asJmrUQV10z3A2G4a43BI9+AxTq93qgvjjxOXfTJuyjT6Qbz4rPJdw5njj/1Abww0stOfPFbQV4eiGxPskkhqQjgh9cYillRJxfqvT7Jd7XSJgokDBJRvxkGQmT5CRIXqzLpXiC0sdPkinaxLryGvF309e+jOLV1QR9sBQXg5G4G4/E3dAcdz0TPHQGKtXXl8a+OPG5du9NxEefSjeek5KP65lA/KwicL8YzO9rb3B+hx1Bd6Kpr68n1jcFjwvBRHkmcWW3C8dXXcf2iA8FGSWUlFcQdWk/ieMF4ifIHjE58RNEU8bHP65dRvy7AvdWvyz4nFW4GL+D2xtjcXt9NO6Gb+KuPwwP3cF49uuPZx9DCd6zuzah739MQVYxpfnlZCfl43s1nLtuiUS6J1FaUEFJXjlF2aUU3i8hxjuFUIdYQh3iyYjLobyokrT4DIKCosi0PU3S2wLx7wjEvSMjbpzsgR8nV9TFmGTyRm3K2NsC91a+JHjA3PU495+E66CJuA4Yh9vrb+FuNAJ3A1H9IXjoDJDgbwychOXc73E5F4T9b77YHPYhKSSDqopq6ZHmfTUcm8PeeF+J4PoeN4LtYqUOqK+rJ9oziat7Hbi07w6We12x+fY8fu8PJ2asBnFvyYgdKyNW9I/ak+KjBdKWmrzErF5dQ8AnW3AaNAOXIdNwHTQZ1wHjcRXVNx6Fu6EF7vqmuOsO4sLgjwjc9itR3sncPuTJwc8vc2TZVULsYqUsuOuWII153+t3ObHaisNLrmD1gxul+RV43wjB46YfLhf8OLfTlkNLr3J0lTW+EwcQN1IgdrSM2FEyYkbLiBH9KLEubyirYqp47AiB1MUi+ItObtU1+P9rB05DZ+M87ENcTGbiMuQ9XAeq1B+Du9Fw3A3MuDxoNgFbfyXSM0kCP7TEksNLr+B/I5KS/DLiA1OlsS2C/7bGGnGys9ztRGbKfdyt/bjrFdcAfmTZFY6stMJ7whBi3xSIHi4jeoRM4cXycBkxSpPalDFVPNpCIOXzlwX/7Bsch83D2eJTnM3m4GzyPq5DpivVf1cx9o1HcWnIJwRtP0iUl1LxxZYcWmQpgRfnlkrg8QGpqMDFjjm30wZ/z0CCHCKI9ktsAD+87AqHVt3Ca/xQYswFoi1kz2dmAikLXxLcb+FuHCwW4jRiIc5vzsPZfC4uovpDZ+A6WKG+W/+3uWQyjztrjuN/8y4393twcsNN3M6FkJ9ZTFFOKW5/BuF9JQwvy3BOrr3FxV32OF31JDsrGw/LIJzP+GH7uxd/7rDjjzWXuDV7EeEj2yOq998B/3wPDsOX4DRqKU4jF+E0/DOl+rNxMZmlGPsDJ+H6+tt4fLxFekQlhaaTm1ZInmjpRRJ4WVEF0Z7J0jhPicgiwCuY6OB47iXcJyczT1I8wCaCCO9kUq6eJc5ceDG1xez4RxRf/CMOI1fgOGYljqOW4TRyMU7DleqbzcXF9ANJfZf+E4lcqnglLS8sx+dqGHbHvHE7H8SFnQ64nw8hIz5Hes6He0Vz7Wd7vK6EcH2fK1e+cyLEKYa87HzKa2rIcbighH4Btf8pcN8lP2M/ag2OY9fgOGYVTqOX4zRqCU4jPsf5zfk4m3+C87DZOA+aRviynRJYZlw2wbbRxAWk4nE5hN/XWiOO6fM7bMm4l4m3gz8hTlFEesdzeZcjhxZf5tjy60R4xFNWU02O3X8dvBbfZfuxH7Meh7c34DB2LY5vrcJxzAqcVOqPWCClvtPQDwlb8a0ELq7Vwx6zVj+1+QbBgSEkR6cR7BhJhGcclrscpRn+2IprRLjFvULgyw9hN3YLDuM24/DORhzfXo/jWwr1HSX1l0rqO5l9StjqPRK4uBITV2XiLC6+pIiKH15iiQh+PzOb5Mh7hDhHcdc7XgI/uPiytFaPcH+VwFccxe6dbTi8K9oXOLyzSQmvVH/0ChxHLcXxzQWErf0J6pEWLM5/+ON4yl8a42e/sOXSHltC3CIpLSslzDWG24fc8bYKxXKXE39ut8HrWig5GXmUVla9Gqnus+o37N7dif3EndhP2I7Du1txGLdFof7YdcqxvxKHEUsIXf+r9BIiyi5uRsT5pZEWeZ+06CzCw8MpKVVs8RYVFZN09x7hbrFE+yeSnZ5Labliv7ukovIVAV99CtsJ32A/+WvsJ32Fgwg/fpsE7yil/gYcx66VZv7Q9QcR196P/iQmJUqnF+JGvmqXs6S0hNKyEkRfXPJgz/vVAV97BttJ32E/ZTf2k7/FfuL/YD9hBw7jRfW/kMa+49sbsB+9mrCtJ/5yQllUVER0dLS0sa+Cfpp/dcDXncN2yj7spu7F7r3vsZ+yS6H+xIfVdxiznqQz9g+JLb57R0VFkZv75L2vRzvhlQH33nARm6k/YTf9J+ym7sPuvT0K9Sd906C+3Vtb8J7/IxVZ+Q+B5+fnExcXJ51XPQr4pPqrA77xMjbT9mM7cz92M37GbtoPSvW/w06EH/8VAauPUxT98MlJY7Ubj+0nAavirwR4fW0dvl9ac2fGYWxnHcJ25gHsZvyC3bSfsJuyF48FR0i54kNNqWLbuLHc4jl0TEzMc6ktwr8S4CJIgmUId6Ydw2bWUWxmHsZm6q84zT1K9HFnyjILGrM+VI6JjSVHPJoVTyqfYiXisW0jK62qJsf+4n93rS6S1JRXE3nCB5dF53FdcJaQH+wojMl6CFKsiA+xurIy6krLKMzMIjoomKKs+xRkZFKQmfWIZZKfqbSMTPIyMhSWnkFedi4Z1qf+i+B1tVBbA3W10pl2WXoBJffyqK2upJ5a6uprqKuvlTqgLjGVyk27KZ2+kKKp88meMJeMcbPJGP8RaRPmkDxpDgmTPyJmykdETplD2HuzCZryIX5TPsBryvu4Tp6Jw8Tp3B4/lSvjpnB79GBinnfzofH1ZgJJ84dQlPfkp8njT0srK6jes5TqzdOp/mIW1ZumUX1mN7cSlvJboBknAy0kbx21gJrcHCpnLKa0z5sU640iX2c4Of0syOozjLReQ0nua0J8P1OidU0J1zUlWN8EP/2heOoNwVlvMPZ6g7il05+r/Yw518eAYz11udCvy0uDJ/xrEIW5OQ0LJtXkqfKPBa+vKKX0M3NKxmtSMqkHJeM6U/7NPI4HmrPFRmCbrSD5o0GmVNo6UqY7ihKjsRQZvkW+wSiy9YaTqWNBmo4ZSXpmxOubE21oToShOcHGZvgZDcPTyBQXIxPsjIZyy2AQV/UGcE7HmOO9Dbmo1/WlweP+NZjc7KwXAF80kuLJWhRP7UPxxB6U717Ab0EjJegddgr44yHDKbe+/TC4vgg+ggwdC1IlcHPiDMyJMjQn3EgB7qsEdzYywd5wSAP4nzrGHOttwIWXBI8ZJhC1chw5ec/5RYRCcQuKx3eleFJPisd1eaD4HaXidwSO+g2hKDGO4tEfUqYzUlI8z2CkpHiGjvlfwMOMzAkyNkME9zA2RQS3MxrCTYOBXNHrz1kdY472MuCC7sspHmMmEHH0a3KLHrwDqFJc5R+f6pUV1OxdTs3mmdRs/YCaTdOpPr2bm3HLORFgwe+BIzgR8CZWUYsoKC0k/spN8iZ+SonBGPL1RjwD3Bxf44fBbxgMwlIE72fMkV76nNfVfOFUjzEVCJ87gIhAf/ILC58v1Stq61nuX8ks9yo+8KiS/J6IcuoSNlEbNpXa8OmSr4vbQHVlGQkpKYR6ehG+5VsyTSaS29ecjL5mpIiprm9OrIE5kYbmqBT3MRqGu7EpTkYm2BoO4Yb+QC7r9edMPyMO99LnnM5zgosbk8MEYk0EImbp4WN1kcTkFMQXJJXCj/rHKl5cXU/3a8UIfxQhnClC+KOYic7F4D8U7ghgIyi8z0Coq6SsrJyklGSu37mN11UropdtJuP1MaT1MSFRTwS3INLQQgIPNDZDAjcSwYdiYzgEa4OBXNbtz+m+RhzS1uO8bmfFQULjR9SjZRXsMIGYEepETtUiaOvHeNjcIOxuFDk5T57RxU54LHhJdT19rhchnC5AOFuAcLqQaa7FEGChgLZVwvuaSuDiw1z8Yz4+PoSGh+Hp44P/6fPEfLiQJMM3idU15a6hOaHG5gQYm+FtPAw3Y1McJfDBWOsP5KLuG/zR14gDWnpcN+zwV3AlqJjKsWYC0W+3IfzjQQRtn4fPqV/wtL2Fh7cPoWFh0peMT1P7qeBa14oQTonQBQinCpniUgT+po8oPrgBPDs7m6SkJOkLwoSEBAJCQvDw8MD/4DEiJ80mWn8YoYbDCDA2/wv4df0BXNB9g5N9DTmkrYP34GbEigcJZsoUNhWIGdmEu1O1CV41Ef/92/G8dh4PN1c8fP3xCQgkJDQM8f8+S2lVyj9W8dKaesY6laN/qxzD2+Xo3qxgmX8p3J0N3nrgY6jwYe9DneIL4cTERLKysqQNB7G379+/j7he9wsJxtPJGf+v9xAyejKB+iZ4G5niamSKg9FQ7hgO5rr+QC7ovM6J3oZYG3QkVkxfc4Goce0Jn2dC4NeL8Dl7GHf7O5KqXgFBBASHcDcyEvH/ZohL3rw8Cp8ymamAVf6x4OK6u6i6nvyqegqqFF7sDGqLoSYfagoUXqwrf8QNB/H9W/WHRS/eiHhTd+/exdvfH4+bt/BZswVv0zG46Q7CQW8gt3UHcK2vMed763PjDW3C3utD8OpJ+B3Yiaf1JdxdXfH08cPXP4DQ0FDpjS8tLQ0xw8Q3wGeldOP7aVx+LLgK5u/6uro66WPZJ92E2CHip9Kh4eF4+fnifskS93VbcJ7xEXaTZnFn7nzsv9yC9xlRVRvcfXzxDggkIDhY6jRxCIlfIIuqPul/NIb6O+V/BLyiokJS4lkbDuKNixAh4eH4BATg5eWFp4cH3j4++AQG4h8cQmh4hLRrI6oqjtfnSd+/A6y65n8BUWmIKfVUVdIAAAAASUVORK5CYII=;" parent="1" vertex="1">
          <mxGeometry x="1185" y="198.52999999999997" width="82" height="84.65" as="geometry" />
        </mxCell>
        <mxCell id="1Ri_M8LK72BIoIfSnynr-12" value="" style="sketch=0;pointerEvents=1;shadow=0;dashed=0;html=1;strokeColor=none;fillColor=#505050;labelPosition=center;verticalLabelPosition=bottom;verticalAlign=top;outlineConnect=0;align=center;shape=mxgraph.office.devices.workstation_visual_studio;" parent="1" vertex="1">
          <mxGeometry x="277" y="374.39" width="90" height="100" as="geometry" />
        </mxCell>
        <mxCell id="1Ri_M8LK72BIoIfSnynr-13" value="&lt;font style=&quot;font-size: 18px;&quot;&gt;COSMIC Easy Prototyping&lt;/font&gt;" style="rounded=1;whiteSpace=wrap;html=1;fillColor=#d5e8d4;strokeColor=#82b366;" parent="1" vertex="1">
          <mxGeometry x="377" y="394.39" width="260" height="60" as="geometry" />
        </mxCell>
        <mxCell id="1Ri_M8LK72BIoIfSnynr-14" value="&lt;font style=&quot;font-size: 14px;&quot;&gt;Geneva&lt;/font&gt;" style="text;html=1;strokeColor=none;fillColor=none;align=center;verticalAlign=middle;whiteSpace=wrap;rounded=0;fontSize=18;" parent="1" vertex="1">
          <mxGeometry x="741" y="243.79" width="60" height="30" as="geometry" />
        </mxCell>
        <mxCell id="1Ri_M8LK72BIoIfSnynr-15" value="" style="shape=image;verticalLabelPosition=bottom;labelBackgroundColor=default;verticalAlign=top;aspect=fixed;imageAspect=0;image=data:image/png,iVBORw0KGgoAAAANSUhEUgAAAKwAAACaCAYAAAA0EqNoAAAgAElEQVR4Ae2dd3wU17XH819csAEhuo07jm3AjsHGPdjGPJe44iSf2E7eJ3GP7ZfnJCS2k2dUQBLqkiVAEkKIbhAguoVE76juqqy0aiAhCQGiGtt/6fc+587c1eywZWZ3ZnZW2j/u58yZcsu53zlz5s6dmZ/99NNPCKWQDYKFgZ8FS0VD9QydVMRACNjQFSaorrAhYEPAhoANXb5Dl2+9GAh52JCHDXlYvc6uUL4hzx3ysCEPG/KwIU8Y8oR6MRDysCEPG/Kwep1dZs23+9xlWI73YEd1J5YdPI6UHY3494Y6/GVlNX6fW8nSn/Ot+GxVNb5cV4eozTa2z9KDraht6wkqYALdByEPq9LDHqjvxpwtDXh1YQXuiS3FDV9X4uezq/1K18+24JboUjyWXIZ3FlcisciOho5zIZBd9E0IWBdGkXqRzJ1NeDGzAnfMKcWg2Ra/wFQL9s1RZXgzu5J5bWmdBvJyCFgZsKfOXcKcLfV4JLEP0GsiapxADYQ+6OsqPBhfii/W1aGz59KA9b4hYH/6CfbO85hVUIMJcaW4brbVCU61XtGI/amO988rxexNNtAJNpA87oAG9lDDKTyRXGp6QL2dBA8llmHR3pYBAe6ABPY7ayemJJTimiDwpt5glW6/bU4pKObuzx53QAG75tgJdtm/ZnbgY1IpaFrHxOOiy5D4nb1fgjsggD3c2I1744L/0i+FXMny2KgyrDxyol+B26+BPXfpCt7MrgiKGyklAPq0z9fVeCq1DC2nLvQLcPstsAv3tCA8ojzob6h8gtTFg4wbZ1exkZBgj2/7HbDVbT2YkljmBKrWMWIw53drdClodCRYwe1XwKYVNxr+NMqdB6Sx0vviSvF8RgVmfFOO8THmiaHpUfDcLfVBCW2/Afa1rAonr+oOJCPW/zK+zOVcgPKWM2zA34g6KCnjuW/Kgw7aoAe2qes87prrHAIo6Sy99rl1TqlXCGjSjF7lq833pqhSlDaf9lpns4QQQQ0sjasOnV0BM8WU60rbvHY+PbiQghXo+g+aXYXF+4LjSVnQAvvpKv+m9EmB0Wp5dGSZV1i5pxoTZZ6rAm8/zeHl9TOrDEpgn00353AV3WAp7WiKHzkoZpJv5Spvg9K2arlf0AE7Lc18nokDl7Bd+eNQmgTOjzObpKmV3//wo+KTT0sgveUVVMCSB6PODXTM56789jPKp/rRlEYOqrv8Arl9UtzRELDezh5P22ksk3egN/nw3EJQ8rafltvHRXsfHZC3b2Skea8WZJvpaerbJG+j1npQeNhXFigfY304phC9K8eid8UY0LKWUHrKi+qotnPMHN7wtn6y0qK6XWrtoGZ/0wP72xx1L/n9JjELvWtGo3fNGLyXkmwYsBk+zEP9v8I6w+rHAVQrr5ldjcTvzPNUzNTA/meDjXWomhgvav4sYMNo9K4fhegF/1R9PHWomvKE/a04e+F71Z6IXg33rTxj5/NeO9uCtceOq26fGs+pdF/TArul4iSu/Vr9W6rRWbPQu2kUS1ELZxniwW6bo3z8Vd4xwTKj7IbZFag+cTbg0JoS2NbuC+wJltrLF+1fufYxYPtI9G4bgaqCxw0Bll7FloOoVH88xdw3XtI+uDnyGC5+f8Xntiq1iaf9TAnsXXN9e9Y+MvowsGMEeneMAIoFOT6mRHdoF/nxWJNe25ZCYfblaamBHTkwHbD0aR/1MaQQ0703PxG9u4YDu4ejd1c4sGs4aJ2v+XF4PB1PYYs/XudI42ld60dt8FR/X7Z/XRi4R7imApbeEqC7UmZED5L2ke7H9eNFE4B94U6J1vHtQucIxzqOj/BPvzvGf48TFlHhqCPBxevLZKB0bhdevkSn+bTbqzoCEhqYBlj6IMTQyErWWdeKRlIj389KAA6GAweHAYfDgUPDgEOC/kF2os/5EjSsHhGilOlv5foev/JY7ZGkMlwr5m9meV1EjaOeYyOP4YcfjP+sqGmAnZldCTKIL2n0nCM4vnsCcHQYcCzMOR0dhgv7bwHt4zHvSFnZCvWVh/1/K/Xzb2twHS8viOQny41/qGAKYMtazmBQhBXXR9bi+sgaJgkupfq+7c8CpWFAWRhQPhSoEGW5uK50GCzFUxXnx8qVlX+9C31wZLUmXmav7RSk+Q8iO0jKU6SLdiP7sf31lFFCPw2OsKD+pLFfWTQFsPfHlzMjDyIjR9WKyyS968s3vCOASpBWDAWqJKlyKECJIC4Lw/INb6vO37k+tU7HT5zn+/grDwe4HBppFdrt1H7n8ghER33E/W7g++upU97S/CX61IRjhsayAQc2a3czyOg3RNaqkjfNPQoBVtGjEphWSkOA6iGiHApYhggQE8zlYdi86VXcFHOUlXWjtNyoWnCdSXc6Xx9Vi3eXWTXrrKmJZbgxqq6vXqwcX3V+nDEy/0CrZnbgJ7A7GVBgz1++gtHRVQwU6iwCpS/J9Og+fUJCCawlU0XPKnpUArVmCFBLaTBQJy7TOtpGnpegLQuDtXgqHk/Z5Fwuz1+FLCxr16yjPltVw+ozWCzfDHJwVC2k9XCn3xKt3ZXGHah8fUCB/XO+BYOjazEkug7cGFKdrZdsn5SwCyvWvCOMAtDNFcWo3LNWi5DaBgP1QwCSlOoGCyBzT0vhQSmNIAzDirV/xMSEXY7yhfLqFOnhUVZN4lfeEdstHUK50WL5vN2+6HPq+uxKxxugZ+0y5iN0AQP27MXvER5dzYxJoDjSHMlydB0mxe/CF9nR2L9+BrAnHDgQDhwZJtxkkce0DBVCAPKoHFK5JGgpTKgaItyQ0Q0a5bE/HNgznOVNZVBZQ2Xlu9OnJGr/ivTw6GpW/tDoOkc9qHyvOu0j1pvt76POy3HkIdbDWbcJdXTUS9Dv1WA8mp+8nmTAgP1yfR3C5thYZzA5R9A/SUnBgbwX0VswGtg4Cr1bRgJFI9FbMhzYOxw4MEwYvqIRgcowIUalyz5BKfWsBK1DF8MFinHFsABHwti4bS+dBDtHoPe7EcDWUegtHIXedaOxL+8FfJKayjpHWj/qPNLpJUhPhvVl20OJFW7L4+XqKucK8FH7wqidKvUtldqFSO7sFzBg746tYB0/jBnHhmFzyUg2HFj0AnpXj2HQ9BKwW0eit2gEsJOApQcB5GHF4SoeDhCwcq8q1ym2pViWjiHYacyWHjLQSUB5F40QyqIy141mdaC68HqRpLpySX+McWdUX9d/tNzqyJ+Xo6ukNknb5ac+JV7/EYOAALupvJ11frhooPC59Q7909RUHFzyAi6sudOLhxWHrCg2JRjJw3JIHZ6VryMPO1gYRfDoYUcyD3tx7V04kPc8/pi8iHUoq99cG7gcM1d770qQby4/CbJJeEy9o1xfdXbc3HpHfp704THifuL+/uj76/X9bldAgH02vRLDJcahZXf6g4l78NnCFGxf+4aXGJbD6UK6i2EpvNgznOX9WVYKHkzYDeosVh8mbS71J1OUvw5z+rTyr6pc+eFHjJpbJ5QpLZ+WA6KL5TrK966/Ml/fEQPDgW07fQkjY4ROGSEaQqm8K74UqwtolEB8BEsPCxxhAYEqCw3I0xKsPBygoS3JKMHqdX/A5KQ9oPLVpH+uVT5byW634/Lly4rDh8kJFY66jJTVa2Sscz25zvfTTRfLHRnbwOrmKMeFPjbagh90fEXccGA/XlEDMjA12lc5JXk3anZ6GIclSNk4rDikJRuHpWOnpOz2Un6DbHuffqBeudesrKzEqVPKL5Pv5VvFchsEGznsxHVeDw312HqMipXkp0Lnx0llWlGD4hNUbbxvOLC/iLMIxokRjDSKG0emj/Kij08oxbcb/wCUUSwbJgxZ8SddNeJQFw1lUYxLQ18Uu5aH4duNb+PuhDLwckmOjm1w1uPc67fGKI9fz58/j7KyMjQ1KR+jXHusDaPF8nm91OkNsuON1x9L0n7Ij4NtKLCWEz3MmNQRjhQnWab1XFcov91E0IrzCCg8kM4loGVaJ95ofbvxHdf5U1nS8jzo09OVTyfs6OhgwFosymc10WTwsbE2R33G8LqI9XOns/WxDeDb1ei0r3R/n3Uxn7ExNt1+fmcosF8U1DHDjImzMzlWI3l4x3ThQQI9+ZLO1qIYlzxwWRgOFU2HFuXNLlT+yjPFr+RhKamJY6ckVgr2mSezkzudrzeR/Hy1dvMsuHclaSiwj6VUYew8OwNHS3lPQjna99J8WHEuLD3JokSPb48OQ/ue+3BvYjkr9yaxfF9lXbvy6XQUv3Jg1cSx/51nAdWPJ7IVX2b1lunSbWZZflSHJ4GGAnv+0hXcMq+eGf7meY2iFDpCtR4vOz6+EZ/npQhvGNCbBvyNAxpNODgMf1uS5lyei+Opo28WQbjZzfa759Uovpng8SsHVk0cS7+wd10fsd2O+l2tUxv66t/I2uRWj5dt11AfF6PcVlIP6m3ZMA+7cFcLM944h1EEQLg+Lt6DHm9H336NoH1d6SeLJwrzA2iOAKV94aB17vanzqV8lG7/9fwqxcDy+JUDqzaOHRffgHGO+lEdG/3XRbsJbe5rt156keWkYnt5A5VvNwzY17MsuEWEQx/ZiL8vTut7a3Z3OHt79u+5qWK5jbglQegkoXz1etxW5Z/TlMavHFo1ceyDCVWsvlRXqncg5K2ycpXqfL9PV2gfxxoG7D3xtbg1vhHUGL3kpKQK4XsExeJ3CYpHYFJyRV95VLa0fJW6mp+zSeNXDqyaOPadxVahrryOussmWXn+64/pEMcaAmx9x3lmjNsSBCPclihKH/TbEhohPV6u124Qv/yyfQTqNjwB+XZf9YkJysdfe3p6HDdbHFaSauJYfglUKytbz+Kb4kZMjq9kdqL23p7Y5LCDGp0f56u8c57yJ4JK22kIsPkHjjOj3Z7QJMhEUeqgpy35Cr2bR6J38yik5n2lWXkzs5Vf3tra2lwCqyaOVdqBnvZ7K8fi3P7EJtzBbS9KvXX64J2nOqrdZgiw/yqwMUPdkdjsWSbJtvugpy7+Svh64YZRSFv8lXN57vIT19/Jt7vQU4oaFRveZrO5BJa8rJo4Vm1nutr/kaRK8HYFQi7arfwpn6v6y9cZAuzMLCsz2p2JzaJsEmSSVrqYT1IzPl6wBL1rR7P0z4UZzuXw8nyQHWeVfw5eGgbIl9XEsfLO8kVfc6SN2eAusc16Sspbmj8tf67xRHdDgH0spZo1hDdofLLQMK318UnNeCXtO2DVWPSuHINX075j5Y5PbhGkaFC1+pTkWsXe1V38ysE1Io6Vg31PQr1oB8HujvaL/aCn/kqm8qmY8nq70g0BdkJiPQhSAoqMw5Z91O+WHe9KJ1ApUXmutkvLV7L97Vzlg+Du4lcOrNFxLHX6c+mVDjtQe+9O7rOLVOfrr5Z0TN9xwrIyfWqi8rkXrgCVr9Md2FPnLuMXYmN/kSI0UrXOjwuQzNrdotjDeopfObRGx7Ffrq1lwDnsz+zYAk869ZF0u1Kd78flffHKr05yOF3pugNL7+5T5e9JEQzApDc9Rba/TjrVRVovd3pnjzbxKwfW6Dj2YEM3aydvn9HSFXi+rtMd2Px9rbg3tZUZ7N4UUQaR/miKcg/hLX7lwJIX9rXDfD1uQoKN9cO9KS1XyftSWyFdr7XefvqiZu3VHdj5Jc0gAwhGEKRW+n0pzvnpob+7VLv4lQNLsrXVuM/7EOTPp1c5+oHb3yh5rLE7eIBN2GbHBBHYCWnHmdH81tMEUB35pbWyMpTrxx37U13oOHeSHnoo9WpK4lcptLS/mpcUldbD1X7/WVeHiWI7jZYbFfzh3FWdXa3T3cNGbbJjYmorM9bENFF60/l+gZapLei5qPx3RlIYjVhWEwsftZ8W++A4HP2QRsuCPsmxrE7nx3mSuRo+PNAd2C/X1WNSep8RqGGu9ElprWDbxO1q9PvTj0O6v1ud7Xccju1e9KfTtY9ftQRZ7Zjug8n1zMZC+7kd9JdxW5S/peHKq0rX6Q7s56ttDBAy0v1pgnHYshE6leFH+mSFcmC9jb9qCSrPS+2Y7suZVXgg/QSzyQOiXUinZT31L9Yqvw+QwulqWXdgP1peiwe+EY0ik7/0UefH6S3pDVZXRnO1Tm38yqHzV6oZ043YUM/A1Ntu8vy/Wqv8xHdlW+k63YH9bKUN1ACzpQdldbpKT2/FJYU/Ubty5YrbyS7+AunteDVxbE1bD6idRqfYTdoN4+kO7NcbGjA5o40ZafI3onSn8/UmkDMylF/G6E7fG1h6bVcbxz6cUt/XHxltmPzNCd31zGLlM92k3tTVsu7Apu9oZgYhaMk4U0g6ku+6kE/f8Z502ibdrkT/fLXyycc0pqoXkN7yVRvHvr7AwmzBbWCEXLFfuzFn3YFddbgND2UKwAST3FSm/AW62tragAFLQKuJY6MLbXgosx0PZVC/aCsfluXH9S0aflpfd2B313YxYKnyD2e2sUTgqtGF4/qO96zz/XyXUzOO44cflf00LZDxK/e+9Iauq8unq3UUxzrbz3c7Kc3noIaf4NQd2IaT5zB1vmAULeTUzDan/NTr7bLjr9ZfXqA8HAhk/MqBpTd0XcHpbt3jaQ3gdpua2Y5H5rczXZDa68SAu7qoXa87sPTNUzJEMKUvC5QPdAcyfuXA0hu6ajr+zYUWR388Kusb9fpJR17Ux4/Od9YfyfT/T5HStukOLBX2eOZxkCEeXXDS1PIxsX7FVuWfgw90/MqhpS/NSDvW03Ls5gbWD7y9esonUpRfrTzVmW8zBNhnMuwgowRDeiJT+WRtM8SvHFi1cezjYn9oKSkvaX60/EqG8q/lcCg9SUOAfTvXxhry+EKhQU8s7NBF5/n6I9/IVu4RzBC/cmDVxrFPpjfAHzsRjEqO/yRf+evxnkDl2wwBNqLQzhr3xEKhkdRQIXnXn3TsS8echN56ZKHyr0ebIX7lwKqNY3+XZXXYk2wqJMG+fTpf77vMKFJ3Q8jBdCcNAXZrhdDgp7JInoQgO0wp99uUf97dLPErh1ZNHJuwpcGj/Z9a6Nw/rvVOBjr1p7C9U5R9Ok1rdAefL+sNAZYq9itqVFaH33Lagna8tLABM+Y3+50f1Ular2nzlT+RMVP8yoFVE8c2d57HR/nVTunD/Go4pSXV+FCSPlhSDSFZ8cESScqz4oM8K953kXyB0tMxhgH74gI7pmV3MkB8kXT8+mPOT58yS1rwzPwWv/IlYHl93spVPknDTPErB1ZtHOsJDLNuMwzYd/NtDIynszvBE4HCl0m60//+rftx0dPnL2NmdgPLx93x0jI8LcdtVf5ZHTPFrxxYtXGsWaH0VC/DgI3f1oRncroYWGrkv9Z4vwm6cPkK3siu9yl/Apjq80x2JypbziqOt8wWv3Jo1cSxnsAw6zbDgKVPbj6b06Uq/W21d1i5YQla8rRqy+D7z1gYnOOvHFQu1cSx3HbBJA0DlozyalYjpud0YfqiUwys6Yu63OofLXMfBrgzMEH7ZnYDy18opy9/qf7colNiucJ20v+4WPn4K02a5oCYTfb3ONZQYCMKG0FwPLeoS5Ku1j9eptyzyuFl4UGOXVIOz9+zTNmuPH6lSdNmA1VaH7lN+pNuKLANHefxXE4XZuSewoxFXfgvUUr195eq96zyDjl78Xu8kW135C+Uc8qjTnWT5+NOp0nTUkDMtkxfoHFX92BfbyiwZKyZOY0MHIJInj5Y6rtnlXcEQTtThFZeDunPS8p/KUt5/EqTpc0GqLw+NIIht0d/0Q0HNmZzE15Y3M2Akco/5/vvWeWdcvbC95iZY3dZHgHLy/9ARdlmjl85uDS8peYtBLndzKwbDmzrqQt4UYSFgHlxcTfezW9QPMNfrTEJ2jdyGlk5vDwqkxLXM4uVe1gzxK9Ld9dg+d46fL7OhlmFdvx+eQOmZQtpckYDfj67GiNj61BiVx7mqLVroPY3HFhqaNyWJsxaY8e/1toRsUHbyRGuDHmGHi7kNOKlvNMMVLmkk8jVca7WGRm/HiizYOFOAUoC8q5kG4ORgFSans1tQkRxB3baz2Nn43km00uakVHSiK2lTVi+04rlu6qxjOROQS7bWY2lO61OKb/ECkpLSqzIo1RsxeJiK3KLLcjdYcEiMS3bo3y0xZV9va0LCLDeKqXHdoL2zZwm/DrvtFN6LUe5dzUifl13oAYfFzTiziT1cHKIb5pXg/tTa/D0Ait+m1eND1dakbTFipyiCt3j72V7lD/e9qWfgxJYX++CObQvLznDoH15yWl8omK8V6/4lWLO1J1NeHZRI/Oc10TUOHlQd/oDqbV4ekE13l1uReIWK1bt0h9IHie7kiWH1b2qMyCApSc5ZCw1XzyRGoaFB4ua8cqS0ywt3q38c5p6xK/kUadkCnEn95CuJHnNl3Kq8bc1gQfTFay0LrdE+cdHpH2iZjmoPKzcw/kKLf134c1FzXh1yRnQslKDaR2/Hq6swfAYZ28qhfXRjFp8ttqCzfvKdb+Uu4NQ6fqSQ9r+LcZdnwQNsHJYuSH9gfbT5crHffWIX+lGSgooLYfH1OLNvGqs2xvYyzu3r1JphHcliIMCWHewcmP6Cq27s9jVem914HVRKslbc1h5jDo8phYJW6pM703lbTQiduV9YnpglYKiN7Rax690o+VuJODe5Fr8dnE15hRasHl/pekBLjik/9BkUACrFFZ+xusJrdbxK9X539tPOLws97auJHneB9Nr2RDVlwUWzC8yz1yGgr3avsbNwXQnTeth1cKqJ7R6xK9UX5oE/kxukyJoXYE8MdWGp+bX4TeLrfhslRXzNltwqNS42PfAsQocs3cpvml1B6Ga9aYDlmbM+3v51drT+nry8JPIkyTPvaK0A88s6gOXx7QcUrX6HUk2h0f+y0or5m2x4NAx7UHOKrIYCiuBbRpg6S3UmpoazeI1LaGlSdGeoNNiG31yvrCiHX8qUBYmcJiVymsiqjEprR5PZtax0IK8cfFB3yGm2FqNZ9RqX9MASw0i70o3I1oAQHloBa2WdfLWNiqLTpD1ZSfwP5tOYHKmXXHIcG1EDa6NqMZ1kTW4PrIGg6JqMSiyFjdG1eHGqFoMia5jaegcG8Lm1GHYXBsmptnxbFY93l1OIxRWHFToibdXBGYKo6mAJWi1vvz6Cy2dRN4g03M7hQwVdY3M+9JN2vTcJoyKq2NAcihviCIoazFYBJLADGNQ2hiU4XNtGB5TjxEx9RgZU49RsfUYHduA0XENGBNnx9g4O26aZ8fN8+wYF9+IGTlN+HBlLeiS76pt2UXafn5Ijfc1HbBUeX9jWLmR/YGWPwqW5xkonTwwhQ87qlqRc6gDs7adxFM5LSAoCUhKo2IbMCqmngFJUI6dR1A2MCAJylviG1m6NaEJtyU04vbEJtye0IQ7k5pxZ2ITxie3YHyS8Iv6X2Udxx+W2ZHxXTWD1+hRATnMpgRW63iW4PIVWiPiV3/hJy9MJ/nminbMLT6JPxWcxIS0ZgmUTQzKOxIFKO9KamZAjk9uZn9ap9/M0x++6QfJ9P9Z+o0p/1si/88Z/c/rlSUnsPhIN85c/CEg8SvBa0pgqWJax7O+Qmtk/OovuNLjyQsfqW1F3qGTiNzRhVeXtoP+pk5Qsv/qir9PpT9IcijZr6nShb/K8B+o0L8Q+Of9+UepZ+R2YkVFYCaHmxZYglaPzwGp8bSBjl+lAPq7TF7YYmvC+vJOxOzsxu9WdrK/+dBfZDiU/PPx9PFp+pav8ElN+sKk8FVD4dtonZiWJXyx572C06jrVP4vXvnl3Rfd1MBSg/T4JJBSaPUo21/wtDqehxEbKzoRueMMZi7rYh/XIyjpk0/TsjqEr/Rkdzo+TsJf0ecvddIrRpS225TPePMFUukxpgeWKqv1TRh1ujdoKY4O1nDAF6gphDhs60D6/nN4fWm3441mDiW9A/dSXrdj4jvNJ351yWm8ln+GpaJ6YzxtUACrF7TuPutDsFIH+tLx/eEYutHcbjmFxD3nnKB8Lf+sA1ABVGe9ov2K7jdjQQOsXtBS5xC49NoNJQoDBpJn9XSCkR3KbSeQtOecDFTBq3LvyuVX27X7vZE0DJAuBxWwekHrqdNC28rYlabK3g4CkuB8famzZ5Xq7T36DnkFHbAhaAWAAnEi0Y1a3pEej952vfWSrmFBUAIbgjZw0JZZ6vD2Kg6ts6elGDfr8MUQsNIYRrpMsWco3jQG3gNHK5C3rw1vrXQdv/I49stt+saxQethObg0uK/ltMRAXGrNWiZBumxvE2Zv7xu+8hbDzinR9wlY0ANL4NIwVH8e5DcS6JJDVcjZ1YKvt53yGKtyjyqXFW36Dm31C2C5t6VHuaEQQV2IUHigDiv2tyK2qAvvrpFf7q+OUZ0Bdd4eGtb66SfVATy9fzWQB/3deeP1+2qQv7sRGSUnMGtTtws45bCq099edRZ6D2mRY+pXHpZ7WpJtbW0DyttSvElQksckKJN2nBTBPO1x3NRbTKpkO40a1HfpGwrwvu23wFIDKbbVYx6COy+m1/qtB6wMxtV76xmMBOT/be3CrI3d+HS98w2R8yVbnZf05VgaFTDCsw4IYHkjKUwwE7jcG5JHpJRV0tQH4pYu5hk/XUcgOseIZtLfWnkWRk144f1Isl97WGlDaZnA1fINAg4cl1LwyAv+Y+MpBp8eMaMv3lCLY94r6MHy8kvoufSj6vsLeX/4ovd7YMmwle1XnNIh+1lsO9bEvNvK3ULMR4DxlFDUhn8UirBt7BY9XrdjmEf67JwgGAg6ja/ubzZmCqEnkA0HloLzDdZLWF520WvKPnyRTbig4RKWtonSha6F9wjl4RzzEqR02Q+UN3UFrmHAEqh8tk8fGOaN0YQ6Dqz60d1+8l7Bk5oJUim4hgBbVH/ZcTntg9X5bA6tD4w96C6fYlK9n1BJofNnWXdgybMOhBhPesKZtb3vFwgelKYABgugcrh1B/bqMDbg4OIAAAFmSURBVCAwnkQK1EBYJs9JU/2CGU45rKTrCix5V2c4BlZMaMS46V839mBuyXl2Wae7eCMH8V0Bpfc6XYENxa7aXE1okJ48Jt0Q8XiTnIHecJgxf12BJeOShzVrTMe9v1nq97+bzjEwyW5FtssszjTr3XqgYNYVWArsORQheYbByO/KuacM1puffgksNYouZ32wSpfpctl/dAKRbjD5ZZvd7LRfCdq78UAB6a1cXT0sFc7Dgj5otYnrjMrvrxuFyzQ99aG2UNrf9D0DcaDGkd6g0nO77sBS5VP2XpB42cDFtDxGlHpCDiFdmnnS0+ChvNVPypfazBBgqUACwzk88M3T0sx2uvxKE403cvDo2TcHL+QB/YNDCopZlg0DlhpMd7x098vhkkppzBcCrv+BphXwhgKrVaVD+QxcoEPA+vCiY+iECdwJEwI2BGxQPTELARsCNgRs6JIZuEtmf7d9yMOGPGxQedj/B7OC9QWRGR+AAAAAAElFTkSuQmCC;" parent="1" vertex="1">
          <mxGeometry x="727" y="165" width="88" height="78.79" as="geometry" />
        </mxCell>
        <mxCell id="1Ri_M8LK72BIoIfSnynr-16" value="" style="endArrow=classic;html=1;rounded=0;fontSize=14;exitX=0.5;exitY=0;exitDx=0;exitDy=0;entryX=0.958;entryY=0.967;entryDx=0;entryDy=0;entryPerimeter=0;" parent="1" source="1Ri_M8LK72BIoIfSnynr-13" target="1Ri_M8LK72BIoIfSnynr-17" edge="1">
          <mxGeometry width="50" height="50" relative="1" as="geometry">
            <mxPoint x="507" y="284.39" as="sourcePoint" />
            <mxPoint x="557" y="234.39" as="targetPoint" />
            <Array as="points">
              <mxPoint x="507" y="203.39" />
            </Array>
          </mxGeometry>
        </mxCell>
        <mxCell id="1Ri_M8LK72BIoIfSnynr-17" value="Provision Geneva" style="text;html=1;strokeColor=none;fillColor=none;align=center;verticalAlign=middle;whiteSpace=wrap;rounded=0;fontSize=14;" parent="1" vertex="1">
          <mxGeometry x="534.75" y="174.39" width="197.5" height="30" as="geometry" />
        </mxCell>
        <mxCell id="1Ri_M8LK72BIoIfSnynr-18" value="" style="endArrow=classic;html=1;rounded=0;fontSize=14;exitX=0.5;exitY=1;exitDx=0;exitDy=0;entryX=-0.091;entryY=0.444;entryDx=0;entryDy=0;entryPerimeter=0;" parent="1" source="1Ri_M8LK72BIoIfSnynr-13" target="1Ri_M8LK72BIoIfSnynr-1" edge="1">
          <mxGeometry width="50" height="50" relative="1" as="geometry">
            <mxPoint x="517" y="564.39" as="sourcePoint" />
            <mxPoint x="567" y="514.39" as="targetPoint" />
            <Array as="points">
              <mxPoint x="507" y="572.39" />
            </Array>
          </mxGeometry>
        </mxCell>
        <mxCell id="1Ri_M8LK72BIoIfSnynr-19" value="Send statistics" style="text;html=1;strokeColor=none;fillColor=none;align=center;verticalAlign=middle;whiteSpace=wrap;rounded=0;fontSize=14;" parent="1" vertex="1">
          <mxGeometry x="510.5" y="544.39" width="136" height="30" as="geometry" />
        </mxCell>
        <mxCell id="1Ri_M8LK72BIoIfSnynr-20" value="Users" style="text;html=1;strokeColor=none;fillColor=none;align=center;verticalAlign=middle;whiteSpace=wrap;rounded=0;fontSize=14;" parent="1" vertex="1">
          <mxGeometry x="127" y="461.39" width="60" height="30" as="geometry" />
        </mxCell>
        <mxCell id="1Ri_M8LK72BIoIfSnynr-21" value="" style="endArrow=classic;html=1;rounded=0;fontSize=14;" parent="1" edge="1">
          <mxGeometry width="50" height="50" relative="1" as="geometry">
            <mxPoint x="187" y="427.39" as="sourcePoint" />
            <mxPoint x="267" y="427.39" as="targetPoint" />
          </mxGeometry>
        </mxCell>
        <mxCell id="1Ri_M8LK72BIoIfSnynr-22" value="" style="endArrow=classic;html=1;rounded=0;fontSize=14;exitX=0.25;exitY=1;exitDx=0;exitDy=0;" parent="1" source="1Ri_M8LK72BIoIfSnynr-13" edge="1">
          <mxGeometry width="50" height="50" relative="1" as="geometry">
            <mxPoint x="367" y="614.39" as="sourcePoint" />
            <mxPoint x="442" y="674.39" as="targetPoint" />
          </mxGeometry>
        </mxCell>
        <mxCell id="1Ri_M8LK72BIoIfSnynr-23" value="Build Image" style="text;html=1;strokeColor=none;fillColor=none;align=center;verticalAlign=middle;whiteSpace=wrap;rounded=0;fontSize=14;" parent="1" vertex="1">
          <mxGeometry x="347" y="554.39" width="100" height="30" as="geometry" />
        </mxCell>
        <mxCell id="1Ri_M8LK72BIoIfSnynr-24" value="" style="endArrow=classic;html=1;rounded=0;fontSize=14;" parent="1" edge="1">
          <mxGeometry width="50" height="50" relative="1" as="geometry">
            <mxPoint x="497" y="714.39" as="sourcePoint" />
            <mxPoint x="897" y="714.39" as="targetPoint" />
          </mxGeometry>
        </mxCell>
        <mxCell id="1Ri_M8LK72BIoIfSnynr-25" value="Azure Container Registry" style="text;html=1;strokeColor=none;fillColor=none;align=center;verticalAlign=middle;whiteSpace=wrap;rounded=0;fontSize=14;" parent="1" vertex="1">
          <mxGeometry x="821" y="746.39" width="210" height="30" as="geometry" />
        </mxCell>
        <mxCell id="1Ri_M8LK72BIoIfSnynr-26" value="Push image" style="text;html=1;strokeColor=none;fillColor=none;align=center;verticalAlign=middle;whiteSpace=wrap;rounded=0;fontSize=14;" parent="1" vertex="1">
          <mxGeometry x="666.5" y="716.39" width="125" height="30" as="geometry" />
        </mxCell>
        <mxCell id="1Ri_M8LK72BIoIfSnynr-27" value="" style="endArrow=classic;html=1;rounded=0;fontSize=14;exitX=1;exitY=0.5;exitDx=0;exitDy=0;" parent="1" source="1Ri_M8LK72BIoIfSnynr-13" edge="1">
          <mxGeometry width="50" height="50" relative="1" as="geometry">
            <mxPoint x="767" y="424.39" as="sourcePoint" />
            <mxPoint x="847" y="424.39" as="targetPoint" />
          </mxGeometry>
        </mxCell>
        <mxCell id="1Ri_M8LK72BIoIfSnynr-30" value="" style="rounded=1;whiteSpace=wrap;html=1;fontSize=14;fillColor=#d5e8d4;strokeColor=#82b366;" parent="1" vertex="1">
          <mxGeometry x="891" y="451.39" width="90" height="41" as="geometry" />
        </mxCell>
        <mxCell id="1Ri_M8LK72BIoIfSnynr-31" value="Run application in COSMIC" style="text;html=1;strokeColor=none;fillColor=none;align=center;verticalAlign=middle;whiteSpace=wrap;rounded=0;fontSize=14;" parent="1" vertex="1">
          <mxGeometry x="641.89" y="391.39" width="194" height="30" as="geometry" />
        </mxCell>
        <mxCell id="1Ri_M8LK72BIoIfSnynr-32" value="Container" style="rounded=1;whiteSpace=wrap;html=1;fontSize=14;fillColor=#d5e8d4;strokeColor=#82b366;" parent="1" vertex="1">
          <mxGeometry x="871" y="464.39" width="90" height="41" as="geometry" />
        </mxCell>
        <mxCell id="1Ri_M8LK72BIoIfSnynr-35" value="Jarvis Dashboard" style="text;html=1;strokeColor=none;fillColor=none;align=center;verticalAlign=middle;whiteSpace=wrap;rounded=0;fontSize=14;" parent="1" vertex="1">
          <mxGeometry x="1193" y="492.39" width="66" height="30" as="geometry" />
        </mxCell>
        <mxCell id="1Ri_M8LK72BIoIfSnynr-36" value="" style="endArrow=classic;html=1;rounded=0;fontSize=14;exitX=1;exitY=0.5;exitDx=0;exitDy=0;" parent="1" source="1Ri_M8LK72BIoIfSnynr-34" edge="1">
          <mxGeometry width="50" height="50" relative="1" as="geometry">
            <mxPoint x="1151" y="464.39" as="sourcePoint" />
            <mxPoint x="1181" y="461.39" as="targetPoint" />
            <Array as="points">
              <mxPoint x="1071" y="461.39" />
            </Array>
          </mxGeometry>
        </mxCell>
        <mxCell id="1Ri_M8LK72BIoIfSnynr-37" value="send metrics" style="text;html=1;strokeColor=none;fillColor=none;align=center;verticalAlign=middle;whiteSpace=wrap;rounded=0;fontSize=14;" parent="1" vertex="1">
          <mxGeometry x="1001" y="431.39" width="130" height="30" as="geometry" />
        </mxCell>
        <mxCell id="1Ri_M8LK72BIoIfSnynr-39" value="Cosmic Operation Portal" style="text;html=1;strokeColor=none;fillColor=none;align=center;verticalAlign=middle;whiteSpace=wrap;rounded=0;fontSize=14;" parent="1" vertex="1">
          <mxGeometry x="1146" y="283.17999999999995" width="160" height="30" as="geometry" />
        </mxCell>
        <mxCell id="1Ri_M8LK72BIoIfSnynr-41" value="" style="endArrow=classic;html=1;rounded=0;fontSize=14;entryX=0.5;entryY=0;entryDx=0;entryDy=0;exitX=0;exitY=0.5;exitDx=0;exitDy=0;" parent="1" source="1Ri_M8LK72BIoIfSnynr-11" target="1Ri_M8LK72BIoIfSnynr-10" edge="1">
          <mxGeometry width="50" height="50" relative="1" as="geometry">
            <mxPoint x="1107" y="240.39" as="sourcePoint" />
            <mxPoint x="1081" y="204.39" as="targetPoint" />
            <Array as="points">
              <mxPoint x="931" y="240.39" />
            </Array>
          </mxGeometry>
        </mxCell>
        <mxCell id="1Ri_M8LK72BIoIfSnynr-42" value="Access COSMIC API" style="text;html=1;strokeColor=none;fillColor=none;align=center;verticalAlign=middle;whiteSpace=wrap;rounded=0;fontSize=14;" parent="1" vertex="1">
          <mxGeometry x="961" y="204.39" width="140" height="30" as="geometry" />
        </mxCell>
        <mxCell id="1Ri_M8LK72BIoIfSnynr-44" value="" style="endArrow=classic;html=1;rounded=0;fontSize=14;exitX=0.563;exitY=1.019;exitDx=0;exitDy=0;exitPerimeter=0;" parent="1" source="1Ri_M8LK72BIoIfSnynr-29" edge="1">
          <mxGeometry width="50" height="50" relative="1" as="geometry">
            <mxPoint x="1007" y="664.39" as="sourcePoint" />
            <mxPoint x="941" y="674.39" as="targetPoint" />
          </mxGeometry>
        </mxCell>
        <mxCell id="1Ri_M8LK72BIoIfSnynr-45" value="Pull Image" style="text;html=1;strokeColor=none;fillColor=none;align=center;verticalAlign=middle;whiteSpace=wrap;rounded=0;fontSize=14;" parent="1" vertex="1">
          <mxGeometry x="941" y="586.39" width="90" height="30" as="geometry" />
        </mxCell>
        <mxCell id="1Ri_M8LK72BIoIfSnynr-48" value="" style="sketch=0;pointerEvents=1;shadow=0;dashed=0;html=1;strokeColor=none;fillColor=#505050;labelPosition=center;verticalLabelPosition=bottom;verticalAlign=top;outlineConnect=0;align=center;shape=mxgraph.office.devices.workstation_visual_studio;fontSize=14;" parent="1" vertex="1">
          <mxGeometry x="251" y="854.39" width="53" height="59" as="geometry" />
        </mxCell>
        <mxCell id="1Ri_M8LK72BIoIfSnynr-49" value="" style="rounded=1;whiteSpace=wrap;html=1;fontSize=14;strokeColor=#82b366;fillColor=#d5e8d4;" parent="1" vertex="1">
          <mxGeometry x="304" y="854.39" width="314" height="150.61" as="geometry" />
        </mxCell>
        <mxCell id="1Ri_M8LK72BIoIfSnynr-50" value="Event Handler" style="rounded=0;whiteSpace=wrap;html=1;fontSize=14;" parent="1" vertex="1">
          <mxGeometry x="466" y="929" width="140" height="62.61" as="geometry" />
        </mxCell>
        <mxCell id="1Ri_M8LK72BIoIfSnynr-52" value="Visual Studio Button" style="rounded=0;whiteSpace=wrap;html=1;fontSize=14;" parent="1" vertex="1">
          <mxGeometry x="321" y="929" width="136.5" height="62.61" as="geometry" />
        </mxCell>
        <mxCell id="1Ri_M8LK72BIoIfSnynr-54" value="Project Template" style="rounded=0;whiteSpace=wrap;html=1;fontSize=14;" parent="1" vertex="1">
          <mxGeometry x="343" y="860" width="232" height="60" as="geometry" />
        </mxCell>
        <mxCell id="_K0TXd-HjWh1RRuaEqXa-1" value="" style="aspect=fixed;html=1;points=[];align=center;image;fontSize=12;image=img/lib/azure2/other/Internet_Analyzer_Profiles.svg;" parent="1" vertex="1">
          <mxGeometry x="2322" y="334.40999999999997" width="68" height="64" as="geometry" />
        </mxCell>
        <mxCell id="_K0TXd-HjWh1RRuaEqXa-3" value="" style="shadow=0;dashed=0;html=1;strokeColor=none;fillColor=#4495D1;labelPosition=center;verticalLabelPosition=bottom;verticalAlign=top;align=center;outlineConnect=0;shape=mxgraph.veeam.checked_doc;fontSize=18;" parent="1" vertex="1">
          <mxGeometry x="1766.6" y="339.71999999999997" width="50.8" height="61.6" as="geometry" />
        </mxCell>
        <mxCell id="_K0TXd-HjWh1RRuaEqXa-4" value="Engineering hub doc" style="text;html=1;strokeColor=none;fillColor=none;align=center;verticalAlign=middle;whiteSpace=wrap;rounded=0;fontSize=18;" parent="1" vertex="1">
          <mxGeometry x="1714" y="409.69000000000005" width="156" height="33.39" as="geometry" />
        </mxCell>
        <mxCell id="_K0TXd-HjWh1RRuaEqXa-7" value="" style="aspect=fixed;perimeter=ellipsePerimeter;html=1;align=center;shadow=0;dashed=0;spacingTop=3;image;image=img/lib/active_directory/users.svg;fontSize=18;" parent="1" vertex="1">
          <mxGeometry x="2564" y="338.72" width="33" height="50" as="geometry" />
        </mxCell>
        <mxCell id="_K0TXd-HjWh1RRuaEqXa-9" value="" style="shadow=0;dashed=0;html=1;strokeColor=none;fillColor=#4495D1;labelPosition=center;verticalLabelPosition=bottom;verticalAlign=top;align=center;outlineConnect=0;shape=mxgraph.veeam.company_owner;fontSize=18;" parent="1" vertex="1">
          <mxGeometry x="1773" y="531.8100000000001" width="44.4" height="48.8" as="geometry" />
        </mxCell>
        <mxCell id="_K0TXd-HjWh1RRuaEqXa-10" value="IC3 service owners" style="text;html=1;strokeColor=none;fillColor=none;align=center;verticalAlign=middle;whiteSpace=wrap;rounded=0;fontSize=18;" parent="1" vertex="1">
          <mxGeometry x="2504" y="394.38999999999993" width="183" height="30" as="geometry" />
        </mxCell>
        <mxCell id="_K0TXd-HjWh1RRuaEqXa-11" value="" style="endArrow=classic;html=1;rounded=0;fontSize=18;entryX=0.5;entryY=1;entryDx=0;entryDy=0;" parent="1" target="_K0TXd-HjWh1RRuaEqXa-4" edge="1">
          <mxGeometry width="50" height="50" relative="1" as="geometry">
            <mxPoint x="1792" y="533" as="sourcePoint" />
            <mxPoint x="1902" y="489.71999999999997" as="targetPoint" />
          </mxGeometry>
        </mxCell>
        <mxCell id="_K0TXd-HjWh1RRuaEqXa-13" value="R9 package owners" style="text;html=1;strokeColor=none;fillColor=none;align=center;verticalAlign=middle;whiteSpace=wrap;rounded=0;fontSize=18;" parent="1" vertex="1">
          <mxGeometry x="1709.5" y="596" width="168" height="30" as="geometry" />
        </mxCell>
        <mxCell id="_K0TXd-HjWh1RRuaEqXa-14" value="&lt;font style=&quot;font-size: 12px;&quot;&gt;Update&amp;nbsp;&lt;/font&gt;" style="text;html=1;strokeColor=none;fillColor=none;align=center;verticalAlign=middle;whiteSpace=wrap;rounded=0;fontSize=18;" parent="1" vertex="1">
          <mxGeometry x="1728" y="469.88999999999993" width="181" height="30" as="geometry" />
        </mxCell>
        <mxCell id="_K0TXd-HjWh1RRuaEqXa-30" value="" style="endArrow=classic;html=1;rounded=0;fontSize=18;exitX=1.015;exitY=0.511;exitDx=0;exitDy=0;exitPerimeter=0;" parent="1" source="_K0TXd-HjWh1RRuaEqXa-1" edge="1">
          <mxGeometry width="50" height="50" relative="1" as="geometry">
            <mxPoint x="2432" y="372" as="sourcePoint" />
            <mxPoint x="2540" y="367" as="targetPoint" />
          </mxGeometry>
        </mxCell>
        <mxCell id="_K0TXd-HjWh1RRuaEqXa-34" value="" style="sketch=0;html=1;dashed=0;whitespace=wrap;fillColor=#2875E2;strokeColor=#ffffff;points=[[0.005,0.63,0],[0.1,0.2,0],[0.9,0.2,0],[0.5,0,0],[0.995,0.63,0],[0.72,0.99,0],[0.5,1,0],[0.28,0.99,0]];shape=mxgraph.kubernetes.icon;prIcon=cronjob;fontSize=18;" parent="1" vertex="1">
          <mxGeometry x="2067" y="339.71999999999997" width="50" height="48" as="geometry" />
        </mxCell>
        <mxCell id="_K0TXd-HjWh1RRuaEqXa-35" value="" style="endArrow=classic;html=1;rounded=0;fontSize=18;" parent="1" edge="1">
          <mxGeometry width="50" height="50" relative="1" as="geometry">
            <mxPoint x="2050.6" y="363.67999999999995" as="sourcePoint" />
            <mxPoint x="1856" y="363.28999999999996" as="targetPoint" />
          </mxGeometry>
        </mxCell>
        <mxCell id="_K0TXd-HjWh1RRuaEqXa-37" value="R9 package analyzer cronjob" style="text;html=1;strokeColor=none;fillColor=none;align=center;verticalAlign=middle;whiteSpace=wrap;rounded=0;fontSize=18;" parent="1" vertex="1">
          <mxGeometry x="2019.5" y="403.51000000000005" width="137" height="30" as="geometry" />
        </mxCell>
        <mxCell id="_K0TXd-HjWh1RRuaEqXa-38" value="read&amp;nbsp;" style="text;html=1;strokeColor=none;fillColor=none;align=center;verticalAlign=middle;whiteSpace=wrap;rounded=0;fontSize=18;" parent="1" vertex="1">
          <mxGeometry x="1868" y="334.39" width="180" height="30" as="geometry" />
        </mxCell>
        <mxCell id="_K0TXd-HjWh1RRuaEqXa-39" value="" style="endArrow=classic;html=1;rounded=0;fontSize=18;" parent="1" edge="1">
          <mxGeometry width="50" height="50" relative="1" as="geometry">
            <mxPoint x="2136" y="361.33" as="sourcePoint" />
            <mxPoint x="2303" y="361" as="targetPoint" />
          </mxGeometry>
        </mxCell>
        <mxCell id="_K0TXd-HjWh1RRuaEqXa-40" value="invoke API" style="text;html=1;strokeColor=none;fillColor=none;align=center;verticalAlign=middle;whiteSpace=wrap;rounded=0;fontSize=18;" parent="1" vertex="1">
          <mxGeometry x="2067" y="334.39" width="310" height="30" as="geometry" />
        </mxCell>
        <mxCell id="_K0TXd-HjWh1RRuaEqXa-42" value="Create S360" style="text;html=1;strokeColor=none;fillColor=none;align=center;verticalAlign=middle;whiteSpace=wrap;rounded=0;fontSize=18;" parent="1" vertex="1">
          <mxGeometry x="2418" y="334.40999999999997" width="140" height="30" as="geometry" />
        </mxCell>
        <mxCell id="_K0TXd-HjWh1RRuaEqXa-43" value="" style="aspect=fixed;html=1;points=[];align=center;image;fontSize=12;image=img/lib/azure2/general/Dashboard.svg;" parent="1" vertex="1">
          <mxGeometry x="2325.5" y="539.08" width="68" height="48" as="geometry" />
        </mxCell>
        <mxCell id="_K0TXd-HjWh1RRuaEqXa-44" value="" style="endArrow=classic;html=1;rounded=0;fontSize=18;startArrow=none;exitX=0.469;exitY=1.285;exitDx=0;exitDy=0;exitPerimeter=0;" parent="1" source="_K0TXd-HjWh1RRuaEqXa-2" edge="1">
          <mxGeometry width="50" height="50" relative="1" as="geometry">
            <mxPoint x="2361" y="467.69" as="sourcePoint" />
            <mxPoint x="2361" y="529.69" as="targetPoint" />
          </mxGeometry>
        </mxCell>
        <mxCell id="_K0TXd-HjWh1RRuaEqXa-45" value="PE dashboard" style="text;html=1;strokeColor=none;fillColor=none;align=center;verticalAlign=middle;whiteSpace=wrap;rounded=0;fontSize=18;" parent="1" vertex="1">
          <mxGeometry x="2291" y="616" width="145" height="30" as="geometry" />
        </mxCell>
        <mxCell id="_K0TXd-HjWh1RRuaEqXa-2" value="&lt;font style=&quot;font-size: 18px;&quot;&gt;PE service&lt;/font&gt;" style="text;html=1;strokeColor=none;fillColor=none;align=center;verticalAlign=middle;whiteSpace=wrap;rounded=0;" parent="1" vertex="1">
          <mxGeometry x="2287" y="403.51" width="156" height="30.39" as="geometry" />
        </mxCell>
        <mxCell id="_K0TXd-HjWh1RRuaEqXa-65" value="R9 team" style="text;html=1;strokeColor=none;fillColor=none;align=center;verticalAlign=middle;whiteSpace=wrap;rounded=0;fontSize=18;" parent="1" vertex="1">
          <mxGeometry x="1728" y="271" width="124" height="30" as="geometry" />
        </mxCell>
        <mxCell id="_K0TXd-HjWh1RRuaEqXa-66" value="PE team" style="text;html=1;strokeColor=none;fillColor=none;align=center;verticalAlign=middle;whiteSpace=wrap;rounded=0;fontSize=18;" parent="1" vertex="1">
          <mxGeometry x="2301" y="271" width="124" height="30" as="geometry" />
        </mxCell>
        <mxCell id="_K0TXd-HjWh1RRuaEqXa-67" value="IC3 ESP team" style="text;html=1;strokeColor=none;fillColor=none;align=center;verticalAlign=middle;whiteSpace=wrap;rounded=0;fontSize=18;" parent="1" vertex="1">
          <mxGeometry x="2014" y="271" width="156" height="30" as="geometry" />
        </mxCell>
        <mxCell id="_K0TXd-HjWh1RRuaEqXa-71" value="&lt;font style=&quot;font-size: 18px;&quot;&gt;Notification&lt;/font&gt;" style="text;html=1;strokeColor=none;fillColor=none;align=center;verticalAlign=middle;whiteSpace=wrap;rounded=0;fontSize=12;" parent="1" vertex="1">
          <mxGeometry x="2149" y="716.39" width="60" height="30" as="geometry" />
        </mxCell>
        <mxCell id="_K0TXd-HjWh1RRuaEqXa-74" value="" style="shape=cylinder3;whiteSpace=wrap;html=1;boundedLbl=1;backgroundOutline=1;size=15;fontSize=18;" parent="1" vertex="1">
          <mxGeometry x="2062" y="531.81" width="60" height="80" as="geometry" />
        </mxCell>
        <mxCell id="_K0TXd-HjWh1RRuaEqXa-75" value="Storage" style="text;html=1;strokeColor=none;fillColor=none;align=center;verticalAlign=middle;whiteSpace=wrap;rounded=0;fontSize=18;" parent="1" vertex="1">
          <mxGeometry x="2060.5" y="616" width="60" height="30" as="geometry" />
        </mxCell>
        <mxCell id="_K0TXd-HjWh1RRuaEqXa-76" value="&lt;font style=&quot;font-size: 15px;&quot;&gt;metadata&lt;/font&gt;" style="text;html=1;strokeColor=none;fillColor=none;align=center;verticalAlign=middle;whiteSpace=wrap;rounded=0;fontSize=18;" parent="1" vertex="1">
          <mxGeometry x="2026" y="479" width="60" height="30" as="geometry" />
        </mxCell>
        <mxCell id="_K0TXd-HjWh1RRuaEqXa-77" value="" style="endArrow=classic;startArrow=classic;html=1;rounded=0;fontSize=18;exitX=0.5;exitY=0;exitDx=0;exitDy=0;exitPerimeter=0;" parent="1" source="_K0TXd-HjWh1RRuaEqXa-74" edge="1">
          <mxGeometry width="50" height="50" relative="1" as="geometry">
            <mxPoint x="2059" y="510" as="sourcePoint" />
            <mxPoint x="2092" y="446" as="targetPoint" />
          </mxGeometry>
        </mxCell>
        <mxCell id="Mkv2vfXG0jg6wndlbOip-1" value="&lt;font style=&quot;font-size: 14px;&quot;&gt;Conversation Service&lt;/font&gt;" style="rounded=1;whiteSpace=wrap;html=1;fillColor=#d5e8d4;strokeColor=#82b366;" vertex="1" parent="1">
          <mxGeometry x="784" y="1737.5" width="194" height="92.5" as="geometry" />
        </mxCell>
        <mxCell id="Mkv2vfXG0jg6wndlbOip-3" value="&lt;font style=&quot;font-size: 14px;&quot;&gt;Call Controller&lt;/font&gt;" style="rounded=1;whiteSpace=wrap;html=1;fillColor=#d5e8d4;strokeColor=#82b366;" vertex="1" parent="1">
          <mxGeometry x="1075" y="1737.5" width="131" height="94.5" as="geometry" />
        </mxCell>
        <mxCell id="Mkv2vfXG0jg6wndlbOip-7" value="&lt;font style=&quot;font-size: 19px;&quot;&gt;Teams Client&lt;/font&gt;" style="rounded=0;whiteSpace=wrap;html=1;fontSize=14;fillColor=#dae8fc;strokeColor=#6c8ebf;" vertex="1" parent="1">
          <mxGeometry x="598" y="1673" width="87" height="212" as="geometry" />
        </mxCell>
        <mxCell id="Mkv2vfXG0jg6wndlbOip-11" value="PNH" style="rounded=1;whiteSpace=wrap;html=1;fontSize=14;fillColor=#fff2cc;strokeColor=#d6b656;" vertex="1" parent="1">
          <mxGeometry x="1264" y="1604.81" width="105" height="45" as="geometry" />
        </mxCell>
        <mxCell id="Mkv2vfXG0jg6wndlbOip-20" value="Registrar" style="rounded=1;whiteSpace=wrap;html=1;fontSize=14;fillColor=#fff2cc;strokeColor=#d6b656;" vertex="1" parent="1">
          <mxGeometry x="1269.12" y="1684.81" width="94.75" height="46" as="geometry" />
        </mxCell>
        <mxCell id="Mkv2vfXG0jg6wndlbOip-28" value="Media Processor" style="rounded=1;whiteSpace=wrap;html=1;fontSize=14;fillColor=#d5e8d4;strokeColor=#82b366;" vertex="1" parent="1">
          <mxGeometry x="1438" y="1742" width="83" height="85.75" as="geometry" />
        </mxCell>
        <mxCell id="Mkv2vfXG0jg6wndlbOip-33" value="Media Controller" style="rounded=1;whiteSpace=wrap;html=1;fontSize=14;fillColor=#d5e8d4;strokeColor=#82b366;" vertex="1" parent="1">
          <mxGeometry x="1272" y="1739" width="94" height="95" as="geometry" />
        </mxCell>
        <mxCell id="Mkv2vfXG0jg6wndlbOip-34" value="Trouter" style="rounded=1;whiteSpace=wrap;html=1;fontSize=14;fillColor=#fff2cc;strokeColor=#d6b656;" vertex="1" parent="1">
          <mxGeometry x="1427" y="1603.81" width="94" height="47" as="geometry" />
        </mxCell>
        <mxCell id="Mkv2vfXG0jg6wndlbOip-52" value="Team Scheduler" style="rounded=1;whiteSpace=wrap;html=1;fontSize=14;fillColor=#d5e8d4;strokeColor=#82b366;" vertex="1" parent="1">
          <mxGeometry x="815" y="1594.18" width="100" height="52.13" as="geometry" />
        </mxCell>
        <mxCell id="Mkv2vfXG0jg6wndlbOip-56" value="Call Store" style="rounded=1;whiteSpace=wrap;html=1;fontSize=14;fillColor=#d5e8d4;strokeColor=#82b366;" vertex="1" parent="1">
          <mxGeometry x="958" y="1598.0000000000002" width="95.5" height="50.5" as="geometry" />
        </mxCell>
        <mxCell id="Mkv2vfXG0jg6wndlbOip-75" value="1" style="endArrow=classic;html=1;rounded=0;fontSize=19;exitX=1.011;exitY=0.416;exitDx=0;exitDy=0;exitPerimeter=0;fillColor=#f8cecc;strokeColor=#b85450;" edge="1" parent="1" source="Mkv2vfXG0jg6wndlbOip-7">
          <mxGeometry x="-0.0011" width="50" height="50" relative="1" as="geometry">
            <mxPoint x="774" y="1757" as="sourcePoint" />
            <mxPoint x="784" y="1761" as="targetPoint" />
            <mxPoint as="offset" />
          </mxGeometry>
        </mxCell>
        <mxCell id="Mkv2vfXG0jg6wndlbOip-80" value="6" style="endArrow=classic;startArrow=none;html=1;rounded=0;fontSize=19;startFill=0;exitX=0.996;exitY=0.204;exitDx=0;exitDy=0;exitPerimeter=0;" edge="1" parent="1" source="Mkv2vfXG0jg6wndlbOip-3">
          <mxGeometry x="0.0006" width="50" height="50" relative="1" as="geometry">
            <mxPoint x="1208" y="1761" as="sourcePoint" />
            <mxPoint x="1273" y="1757" as="targetPoint" />
            <mxPoint as="offset" />
          </mxGeometry>
        </mxCell>
        <mxCell id="Mkv2vfXG0jg6wndlbOip-82" value="7" style="endArrow=classic;html=1;rounded=0;fontSize=19;exitX=1;exitY=0.25;exitDx=0;exitDy=0;startArrow=none;startFill=0;entryX=0;entryY=0.25;entryDx=0;entryDy=0;" edge="1" parent="1" source="Mkv2vfXG0jg6wndlbOip-33" target="Mkv2vfXG0jg6wndlbOip-28">
          <mxGeometry x="-0.0038" width="50" height="50" relative="1" as="geometry">
            <mxPoint x="1430" y="1695" as="sourcePoint" />
            <mxPoint x="1438" y="1765" as="targetPoint" />
            <mxPoint as="offset" />
          </mxGeometry>
        </mxCell>
        <mxCell id="Mkv2vfXG0jg6wndlbOip-86" value="BVD" style="rounded=1;whiteSpace=wrap;html=1;fontSize=19;fillColor=#e1d5e7;strokeColor=#9673a6;" vertex="1" parent="1">
          <mxGeometry x="1095.5" y="1601" width="90" height="49" as="geometry" />
        </mxCell>
        <mxCell id="Mkv2vfXG0jg6wndlbOip-87" value="5" style="endArrow=classic;html=1;rounded=0;fontSize=19;entryX=0.5;entryY=1;entryDx=0;entryDy=0;exitX=0.5;exitY=0;exitDx=0;exitDy=0;" edge="1" parent="1" source="Mkv2vfXG0jg6wndlbOip-3" target="Mkv2vfXG0jg6wndlbOip-86">
          <mxGeometry width="50" height="50" relative="1" as="geometry">
            <mxPoint x="1114" y="1695.19" as="sourcePoint" />
            <mxPoint x="1164" y="1645.19" as="targetPoint" />
          </mxGeometry>
        </mxCell>
        <mxCell id="Mkv2vfXG0jg6wndlbOip-88" value="&lt;font style=&quot;font-size: 14px;&quot;&gt;MFE&lt;/font&gt;" style="rounded=1;whiteSpace=wrap;html=1;fontSize=19;fillColor=#fff2cc;strokeColor=#d6b656;" vertex="1" parent="1">
          <mxGeometry x="715.37" y="1594.18" width="79.25" height="55.13" as="geometry" />
        </mxCell>
        <mxCell id="Mkv2vfXG0jg6wndlbOip-89" value="18" style="endArrow=classic;html=1;rounded=0;fontSize=19;" edge="1" parent="1" target="Mkv2vfXG0jg6wndlbOip-88">
          <mxGeometry width="50" height="50" relative="1" as="geometry">
            <mxPoint x="819" y="1735" as="sourcePoint" />
            <mxPoint x="1067" y="1977" as="targetPoint" />
          </mxGeometry>
        </mxCell>
        <mxCell id="Mkv2vfXG0jg6wndlbOip-100" value="&lt;font style=&quot;font-size: 19px;&quot;&gt;Teams Client&lt;/font&gt;" style="rounded=0;whiteSpace=wrap;html=1;fontSize=14;fillColor=#dae8fc;strokeColor=#6c8ebf;" vertex="1" parent="1">
          <mxGeometry x="1586" y="1608" width="87" height="228.19" as="geometry" />
        </mxCell>
        <mxCell id="Mkv2vfXG0jg6wndlbOip-116" value="21" style="endArrow=classic;html=1;rounded=0;fontSize=19;exitX=1;exitY=0.5;exitDx=0;exitDy=0;entryX=0;entryY=0.5;entryDx=0;entryDy=0;fillColor=#dae8fc;strokeColor=#6c8ebf;strokeWidth=2;" edge="1" parent="1" source="Mkv2vfXG0jg6wndlbOip-11" target="Mkv2vfXG0jg6wndlbOip-34">
          <mxGeometry width="50" height="50" relative="1" as="geometry">
            <mxPoint x="1526" y="1970.31" as="sourcePoint" />
            <mxPoint x="1576" y="1920.31" as="targetPoint" />
          </mxGeometry>
        </mxCell>
        <mxCell id="Mkv2vfXG0jg6wndlbOip-120" value="13" style="endArrow=classic;html=1;rounded=0;fontSize=19;exitX=0.25;exitY=0;exitDx=0;exitDy=0;entryX=0.583;entryY=1.024;entryDx=0;entryDy=0;entryPerimeter=0;" edge="1" parent="1" source="Mkv2vfXG0jg6wndlbOip-3" target="Mkv2vfXG0jg6wndlbOip-56">
          <mxGeometry width="50" height="50" relative="1" as="geometry">
            <mxPoint x="1001" y="1696.5" as="sourcePoint" />
            <mxPoint x="1110" y="1623.5" as="targetPoint" />
          </mxGeometry>
        </mxCell>
        <mxCell id="Mkv2vfXG0jg6wndlbOip-122" value="22" style="endArrow=classic;html=1;rounded=0;fontSize=19;exitX=1;exitY=0.5;exitDx=0;exitDy=0;entryX=-0.011;entryY=0.09;entryDx=0;entryDy=0;entryPerimeter=0;" edge="1" parent="1" source="Mkv2vfXG0jg6wndlbOip-34" target="Mkv2vfXG0jg6wndlbOip-100">
          <mxGeometry width="50" height="50" relative="1" as="geometry">
            <mxPoint x="1437" y="2187" as="sourcePoint" />
            <mxPoint x="1574" y="1661" as="targetPoint" />
          </mxGeometry>
        </mxCell>
        <mxCell id="Mkv2vfXG0jg6wndlbOip-124" value="11" style="endArrow=classic;html=1;rounded=0;fontSize=19;exitX=0.004;exitY=0.554;exitDx=0;exitDy=0;fillColor=#f8cecc;strokeColor=#b85450;exitPerimeter=0;entryX=1.001;entryY=0.576;entryDx=0;entryDy=0;entryPerimeter=0;" edge="1" parent="1">
          <mxGeometry width="50" height="50" relative="1" as="geometry">
            <mxPoint x="1272.3760000000002" y="1798.63" as="sourcePoint" />
            <mxPoint x="1206.1309999999999" y="1798.9320000000002" as="targetPoint" />
          </mxGeometry>
        </mxCell>
        <mxCell id="Mkv2vfXG0jg6wndlbOip-125" value="16" style="endArrow=classic;html=1;rounded=0;fontSize=19;entryX=1;entryY=0.75;entryDx=0;entryDy=0;" edge="1" parent="1" target="Mkv2vfXG0jg6wndlbOip-1">
          <mxGeometry x="-0.0046" width="50" height="50" relative="1" as="geometry">
            <mxPoint x="1075" y="1807" as="sourcePoint" />
            <mxPoint x="992" y="1793" as="targetPoint" />
            <mxPoint as="offset" />
          </mxGeometry>
        </mxCell>
        <mxCell id="Mkv2vfXG0jg6wndlbOip-131" value="17" style="endArrow=classic;html=1;rounded=0;fontSize=19;" edge="1" parent="1">
          <mxGeometry width="50" height="50" relative="1" as="geometry">
            <mxPoint x="783" y="1809" as="sourcePoint" />
            <mxPoint x="686" y="1809" as="targetPoint" />
          </mxGeometry>
        </mxCell>
        <mxCell id="Mkv2vfXG0jg6wndlbOip-132" value="2" style="endArrow=classic;html=1;rounded=0;fontSize=19;entryX=0.55;entryY=0.983;entryDx=0;entryDy=0;entryPerimeter=0;exitX=0.904;exitY=0.014;exitDx=0;exitDy=0;exitPerimeter=0;strokeWidth=2;fillColor=#dae8fc;strokeColor=#6c8ebf;" edge="1" parent="1" source="Mkv2vfXG0jg6wndlbOip-1" target="Mkv2vfXG0jg6wndlbOip-56">
          <mxGeometry width="50" height="50" relative="1" as="geometry">
            <mxPoint x="939" y="1737" as="sourcePoint" />
            <mxPoint x="914" y="1695" as="targetPoint" />
          </mxGeometry>
        </mxCell>
        <mxCell id="Mkv2vfXG0jg6wndlbOip-144" value="12" style="endArrow=classic;html=1;rounded=0;fontSize=14;exitX=0.5;exitY=1;exitDx=0;exitDy=0;fillColor=#f8cecc;strokeColor=#b85450;" edge="1" parent="1" source="Mkv2vfXG0jg6wndlbOip-3">
          <mxGeometry width="50" height="50" relative="1" as="geometry">
            <mxPoint x="945" y="1959" as="sourcePoint" />
            <mxPoint x="685" y="1849" as="targetPoint" />
            <Array as="points">
              <mxPoint x="1141" y="1849" />
            </Array>
          </mxGeometry>
        </mxCell>
        <mxCell id="Mkv2vfXG0jg6wndlbOip-146" value="19" style="endArrow=classic;html=1;rounded=0;fontSize=14;entryX=0.5;entryY=0;entryDx=0;entryDy=0;fillColor=#dae8fc;strokeColor=#6c8ebf;strokeWidth=2;" edge="1" parent="1" target="Mkv2vfXG0jg6wndlbOip-11">
          <mxGeometry width="50" height="50" relative="1" as="geometry">
            <mxPoint x="938" y="1737" as="sourcePoint" />
            <mxPoint x="1016" y="1508" as="targetPoint" />
            <Array as="points">
              <mxPoint x="938" y="1563" />
              <mxPoint x="1317" y="1563" />
            </Array>
          </mxGeometry>
        </mxCell>
        <mxCell id="Mkv2vfXG0jg6wndlbOip-149" value="3" style="endArrow=classic;html=1;rounded=0;strokeWidth=2;fontSize=20;entryX=0.5;entryY=1;entryDx=0;entryDy=0;exitX=0.5;exitY=0;exitDx=0;exitDy=0;fillColor=#dae8fc;strokeColor=#6c8ebf;" edge="1" parent="1" source="Mkv2vfXG0jg6wndlbOip-1" target="Mkv2vfXG0jg6wndlbOip-52">
          <mxGeometry width="50" height="50" relative="1" as="geometry">
            <mxPoint x="819" y="1572" as="sourcePoint" />
            <mxPoint x="869" y="1522" as="targetPoint" />
          </mxGeometry>
        </mxCell>
        <mxCell id="Mkv2vfXG0jg6wndlbOip-150" value="20" style="endArrow=classic;html=1;rounded=0;strokeWidth=2;fontSize=14;entryX=0.5;entryY=0;entryDx=0;entryDy=0;fillColor=#dae8fc;strokeColor=#6c8ebf;" edge="1" parent="1" target="Mkv2vfXG0jg6wndlbOip-20">
          <mxGeometry width="50" height="50" relative="1" as="geometry">
            <mxPoint x="1316" y="1651" as="sourcePoint" />
            <mxPoint x="1377" y="1456" as="targetPoint" />
          </mxGeometry>
        </mxCell>
        <mxCell id="Mkv2vfXG0jg6wndlbOip-152" value="4" style="endArrow=classic;startArrow=none;html=1;rounded=0;fontSize=19;startFill=0;fillColor=#f8cecc;strokeColor=#b85450;exitX=0.996;exitY=0.299;exitDx=0;exitDy=0;exitPerimeter=0;entryX=0;entryY=0.25;entryDx=0;entryDy=0;" edge="1" parent="1" target="Mkv2vfXG0jg6wndlbOip-3">
          <mxGeometry x="-0.0047" width="50" height="50" relative="1" as="geometry">
            <mxPoint x="977.9960000000001" y="1759.9955000000002" as="sourcePoint" />
            <mxPoint x="1047.52" y="1761.24" as="targetPoint" />
            <mxPoint as="offset" />
          </mxGeometry>
        </mxCell>
        <mxCell id="Mkv2vfXG0jg6wndlbOip-153" value="15" style="endArrow=classic;html=1;rounded=0;fontSize=19;exitX=0.004;exitY=0.822;exitDx=0;exitDy=0;exitPerimeter=0;" edge="1" parent="1">
          <mxGeometry width="50" height="50" relative="1" as="geometry">
            <mxPoint x="1272.3760000000002" y="1821.0900000000001" as="sourcePoint" />
            <mxPoint x="1206" y="1822" as="targetPoint" />
          </mxGeometry>
        </mxCell>
        <mxCell id="Mkv2vfXG0jg6wndlbOip-154" value="8" style="endArrow=classic;html=1;rounded=0;strokeWidth=1;fontSize=20;entryX=1;entryY=0.5;entryDx=0;entryDy=0;" edge="1" parent="1" target="Mkv2vfXG0jg6wndlbOip-1">
          <mxGeometry width="50" height="50" relative="1" as="geometry">
            <mxPoint x="1074" y="1784" as="sourcePoint" />
            <mxPoint x="1016" y="1928" as="targetPoint" />
          </mxGeometry>
        </mxCell>
        <mxCell id="Mkv2vfXG0jg6wndlbOip-155" value="9" style="endArrow=classic;html=1;rounded=0;strokeWidth=1;fontSize=20;exitX=1.001;exitY=0.387;exitDx=0;exitDy=0;exitPerimeter=0;entryX=0.018;entryY=0.369;entryDx=0;entryDy=0;entryPerimeter=0;fillColor=#f8cecc;strokeColor=#b85450;" edge="1" parent="1" source="Mkv2vfXG0jg6wndlbOip-3" target="Mkv2vfXG0jg6wndlbOip-33">
          <mxGeometry width="50" height="50" relative="1" as="geometry">
            <mxPoint x="1185" y="1958" as="sourcePoint" />
            <mxPoint x="1235" y="1908" as="targetPoint" />
          </mxGeometry>
        </mxCell>
        <mxCell id="Mkv2vfXG0jg6wndlbOip-156" value="10" style="endArrow=classic;html=1;rounded=0;strokeWidth=1;fontSize=20;entryX=0;entryY=0.5;entryDx=0;entryDy=0;fillColor=#f8cecc;strokeColor=#b85450;" edge="1" parent="1" target="Mkv2vfXG0jg6wndlbOip-28">
          <mxGeometry width="50" height="50" relative="1" as="geometry">
            <mxPoint x="1367" y="1785" as="sourcePoint" />
            <mxPoint x="1377" y="1922" as="targetPoint" />
          </mxGeometry>
        </mxCell>
        <mxCell id="Mkv2vfXG0jg6wndlbOip-157" value="14" style="endArrow=classic;html=1;rounded=0;strokeWidth=1;fontSize=20;exitX=0;exitY=0.75;exitDx=0;exitDy=0;" edge="1" parent="1" source="Mkv2vfXG0jg6wndlbOip-28">
          <mxGeometry width="50" height="50" relative="1" as="geometry">
            <mxPoint x="1469" y="1931" as="sourcePoint" />
            <mxPoint x="1364" y="1806" as="targetPoint" />
          </mxGeometry>
        </mxCell>
        <mxCell id="Mkv2vfXG0jg6wndlbOip-158" value="&lt;font style=&quot;font-size: 19px;&quot;&gt;Teams Client1&lt;/font&gt;" style="rounded=0;whiteSpace=wrap;html=1;fontSize=14;fillColor=#dae8fc;strokeColor=#6c8ebf;" vertex="1" parent="1">
          <mxGeometry x="673" y="2042" width="87" height="212" as="geometry" />
        </mxCell>
        <mxCell id="Mkv2vfXG0jg6wndlbOip-159" value="&lt;font style=&quot;font-size: 14px;&quot;&gt;Conversation Service&lt;/font&gt;" style="rounded=1;whiteSpace=wrap;html=1;fillColor=#d5e8d4;strokeColor=#82b366;" vertex="1" parent="1">
          <mxGeometry x="813" y="2083" width="194" height="92.5" as="geometry" />
        </mxCell>
        <mxCell id="Mkv2vfXG0jg6wndlbOip-160" value="1" style="endArrow=classic;html=1;rounded=0;strokeWidth=1;fontSize=20;exitX=1;exitY=0.349;exitDx=0;exitDy=0;exitPerimeter=0;fillColor=#f8cecc;strokeColor=#b85450;" edge="1" parent="1" source="Mkv2vfXG0jg6wndlbOip-158">
          <mxGeometry width="50" height="50" relative="1" as="geometry">
            <mxPoint x="728" y="2121" as="sourcePoint" />
            <mxPoint x="812" y="2116" as="targetPoint" />
          </mxGeometry>
        </mxCell>
        <mxCell id="Mkv2vfXG0jg6wndlbOip-161" value="&lt;font style=&quot;font-size: 14px;&quot;&gt;Call Controller&lt;/font&gt;" style="rounded=1;whiteSpace=wrap;html=1;fillColor=#d5e8d4;strokeColor=#82b366;" vertex="1" parent="1">
          <mxGeometry x="1060" y="2082" width="131" height="94.5" as="geometry" />
        </mxCell>
        <mxCell id="Mkv2vfXG0jg6wndlbOip-162" value="2" style="endArrow=classic;html=1;rounded=0;strokeWidth=1;fontSize=20;exitX=1.005;exitY=0.335;exitDx=0;exitDy=0;exitPerimeter=0;entryX=0.01;entryY=0.332;entryDx=0;entryDy=0;entryPerimeter=0;fillColor=#f8cecc;strokeColor=#b85450;" edge="1" parent="1" source="Mkv2vfXG0jg6wndlbOip-159" target="Mkv2vfXG0jg6wndlbOip-161">
          <mxGeometry width="50" height="50" relative="1" as="geometry">
            <mxPoint x="994" y="2097" as="sourcePoint" />
            <mxPoint x="1044" y="2047" as="targetPoint" />
          </mxGeometry>
        </mxCell>
        <mxCell id="Mkv2vfXG0jg6wndlbOip-163" value="&lt;font style=&quot;font-size: 15px;&quot;&gt;Permission&lt;/font&gt;" style="rounded=1;whiteSpace=wrap;html=1;fontSize=19;fillColor=#e1d5e7;strokeColor=#9673a6;" vertex="1" parent="1">
          <mxGeometry x="1185.5" y="1967" width="119.5" height="47.75" as="geometry" />
        </mxCell>
        <mxCell id="Mkv2vfXG0jg6wndlbOip-164" value="PNH" style="rounded=1;whiteSpace=wrap;html=1;fontSize=14;fillColor=#fff2cc;strokeColor=#d6b656;" vertex="1" parent="1">
          <mxGeometry x="1073.5" y="2230" width="105" height="45" as="geometry" />
        </mxCell>
        <mxCell id="Mkv2vfXG0jg6wndlbOip-165" value="Registrar" style="rounded=1;whiteSpace=wrap;html=1;fontSize=14;fillColor=#fff2cc;strokeColor=#d6b656;" vertex="1" parent="1">
          <mxGeometry x="1080.12" y="2309" width="94.75" height="46" as="geometry" />
        </mxCell>
        <mxCell id="Mkv2vfXG0jg6wndlbOip-166" value="Trouter" style="rounded=1;whiteSpace=wrap;html=1;fontSize=14;fillColor=#fff2cc;strokeColor=#d6b656;" vertex="1" parent="1">
          <mxGeometry x="1238" y="2228" width="94" height="47" as="geometry" />
        </mxCell>
        <mxCell id="Mkv2vfXG0jg6wndlbOip-167" value="8" style="endArrow=classic;html=1;rounded=0;fontSize=19;exitX=1;exitY=0.5;exitDx=0;exitDy=0;strokeWidth=1;fillColor=#f8cecc;strokeColor=#b85450;" edge="1" parent="1" source="Mkv2vfXG0jg6wndlbOip-164">
          <mxGeometry width="50" height="50" relative="1" as="geometry">
            <mxPoint x="1337" y="2594.5" as="sourcePoint" />
            <mxPoint x="1236" y="2253" as="targetPoint" />
          </mxGeometry>
        </mxCell>
        <mxCell id="Mkv2vfXG0jg6wndlbOip-168" value="7" style="endArrow=classic;html=1;rounded=0;strokeWidth=1;fontSize=14;entryX=0.5;entryY=0;entryDx=0;entryDy=0;" edge="1" parent="1" target="Mkv2vfXG0jg6wndlbOip-165">
          <mxGeometry x="0.0198" width="50" height="50" relative="1" as="geometry">
            <mxPoint x="1127" y="2275.19" as="sourcePoint" />
            <mxPoint x="1188" y="2080.19" as="targetPoint" />
            <mxPoint as="offset" />
          </mxGeometry>
        </mxCell>
        <mxCell id="Mkv2vfXG0jg6wndlbOip-169" value="&lt;font style=&quot;font-size: 19px;&quot;&gt;Teams Client2&lt;/font&gt;" style="rounded=0;whiteSpace=wrap;html=1;fontSize=14;fillColor=#dae8fc;strokeColor=#6c8ebf;" vertex="1" parent="1">
          <mxGeometry x="1405" y="2052" width="87" height="228.19" as="geometry" />
        </mxCell>
        <mxCell id="Mkv2vfXG0jg6wndlbOip-170" value="5" style="endArrow=classic;html=1;rounded=0;strokeWidth=1;fontSize=20;entryX=0.5;entryY=1;entryDx=0;entryDy=0;exitX=0.75;exitY=0;exitDx=0;exitDy=0;" edge="1" parent="1" source="Mkv2vfXG0jg6wndlbOip-161" target="Mkv2vfXG0jg6wndlbOip-163">
          <mxGeometry width="50" height="50" relative="1" as="geometry">
            <mxPoint x="1223" y="2069" as="sourcePoint" />
            <mxPoint x="1141" y="2026" as="targetPoint" />
          </mxGeometry>
        </mxCell>
        <mxCell id="Mkv2vfXG0jg6wndlbOip-171" value="6" style="endArrow=classic;html=1;rounded=0;strokeWidth=1;fontSize=20;exitX=0.5;exitY=1;exitDx=0;exitDy=0;entryX=0.5;entryY=0;entryDx=0;entryDy=0;fillColor=#f8cecc;strokeColor=#b85450;" edge="1" parent="1" source="Mkv2vfXG0jg6wndlbOip-161" target="Mkv2vfXG0jg6wndlbOip-164">
          <mxGeometry width="50" height="50" relative="1" as="geometry">
            <mxPoint x="983" y="2362" as="sourcePoint" />
            <mxPoint x="1033" y="2312" as="targetPoint" />
          </mxGeometry>
        </mxCell>
        <mxCell id="Mkv2vfXG0jg6wndlbOip-172" value="9" style="endArrow=classic;html=1;rounded=0;strokeWidth=1;fontSize=20;exitX=1;exitY=0.5;exitDx=0;exitDy=0;fillColor=#f8cecc;strokeColor=#b85450;" edge="1" parent="1" source="Mkv2vfXG0jg6wndlbOip-166">
          <mxGeometry width="50" height="50" relative="1" as="geometry">
            <mxPoint x="1368" y="2249" as="sourcePoint" />
            <mxPoint x="1405" y="2252" as="targetPoint" />
          </mxGeometry>
        </mxCell>
        <mxCell id="Mkv2vfXG0jg6wndlbOip-173" value="10" style="endArrow=classic;html=1;rounded=0;strokeWidth=1;fontSize=20;entryX=1;entryY=0.25;entryDx=0;entryDy=0;exitX=-0.011;exitY=0.23;exitDx=0;exitDy=0;exitPerimeter=0;endFill=1;startArrow=none;startFill=0;fillColor=#f8cecc;strokeColor=#b85450;" edge="1" parent="1" source="Mkv2vfXG0jg6wndlbOip-169" target="Mkv2vfXG0jg6wndlbOip-161">
          <mxGeometry width="50" height="50" relative="1" as="geometry">
            <mxPoint x="1265" y="2114" as="sourcePoint" />
            <mxPoint x="1315" y="2064" as="targetPoint" />
          </mxGeometry>
        </mxCell>
        <mxCell id="Mkv2vfXG0jg6wndlbOip-174" value="13" style="endArrow=classic;html=1;rounded=0;strokeWidth=2;fontSize=20;fillColor=#0050ef;strokeColor=#001DBC;" edge="1" parent="1">
          <mxGeometry width="50" height="50" relative="1" as="geometry">
            <mxPoint x="1105" y="2177" as="sourcePoint" />
            <mxPoint x="758" y="2226" as="targetPoint" />
            <Array as="points">
              <mxPoint x="1105" y="2226" />
            </Array>
          </mxGeometry>
        </mxCell>
        <mxCell id="Mkv2vfXG0jg6wndlbOip-178" value="12" style="endArrow=classic;html=1;rounded=0;strokeWidth=2;fontSize=20;entryX=1;entryY=0.75;entryDx=0;entryDy=0;fillColor=#6a00ff;strokeColor=#3700CC;" edge="1" parent="1" target="Mkv2vfXG0jg6wndlbOip-161">
          <mxGeometry width="50" height="50" relative="1" as="geometry">
            <mxPoint x="1405" y="2153" as="sourcePoint" />
            <mxPoint x="1346" y="2159" as="targetPoint" />
          </mxGeometry>
        </mxCell>
        <mxCell id="Mkv2vfXG0jg6wndlbOip-179" value="&lt;font style=&quot;font-size: 15px;&quot;&gt;BVD&lt;/font&gt;" style="rounded=1;whiteSpace=wrap;html=1;fontSize=19;fillColor=#e1d5e7;strokeColor=#9673a6;" vertex="1" parent="1">
          <mxGeometry x="961" y="1968" width="90" height="48.5" as="geometry" />
        </mxCell>
        <mxCell id="Mkv2vfXG0jg6wndlbOip-180" value="3" style="endArrow=classic;html=1;rounded=0;strokeWidth=1;fontSize=20;entryX=0.5;entryY=1;entryDx=0;entryDy=0;exitX=0.25;exitY=0;exitDx=0;exitDy=0;" edge="1" parent="1" source="Mkv2vfXG0jg6wndlbOip-161" target="Mkv2vfXG0jg6wndlbOip-179">
          <mxGeometry width="50" height="50" relative="1" as="geometry">
            <mxPoint x="1041" y="2096" as="sourcePoint" />
            <mxPoint x="1091" y="2046" as="targetPoint" />
          </mxGeometry>
        </mxCell>
        <mxCell id="Mkv2vfXG0jg6wndlbOip-182" value="&lt;font style=&quot;font-size: 15px;&quot;&gt;Call Store&lt;/font&gt;" style="rounded=1;whiteSpace=wrap;html=1;fontSize=14;fillColor=#d5e8d4;strokeColor=#82b366;" vertex="1" parent="1">
          <mxGeometry x="1077.75" y="1966.0000000000002" width="95.5" height="50.5" as="geometry" />
        </mxCell>
        <mxCell id="Mkv2vfXG0jg6wndlbOip-183" value="4" style="endArrow=classic;html=1;rounded=0;strokeWidth=1;fontSize=20;entryX=0.5;entryY=1;entryDx=0;entryDy=0;exitX=0.5;exitY=0;exitDx=0;exitDy=0;" edge="1" parent="1" source="Mkv2vfXG0jg6wndlbOip-161" target="Mkv2vfXG0jg6wndlbOip-182">
          <mxGeometry width="50" height="50" relative="1" as="geometry">
            <mxPoint x="1165" y="2081" as="sourcePoint" />
            <mxPoint x="1283" y="2042" as="targetPoint" />
          </mxGeometry>
        </mxCell>
        <mxCell id="Mkv2vfXG0jg6wndlbOip-184" value="15" style="endArrow=classic;html=1;rounded=0;strokeWidth=2;fontSize=20;exitX=0;exitY=0.75;exitDx=0;exitDy=0;fillColor=#0050ef;strokeColor=#001DBC;" edge="1" parent="1" source="Mkv2vfXG0jg6wndlbOip-159">
          <mxGeometry width="50" height="50" relative="1" as="geometry">
            <mxPoint x="845" y="2022" as="sourcePoint" />
            <mxPoint x="758" y="2152" as="targetPoint" />
          </mxGeometry>
        </mxCell>
        <mxCell id="Mkv2vfXG0jg6wndlbOip-186" value="11" style="endArrow=classic;html=1;rounded=0;strokeWidth=1;fontSize=20;entryX=1;entryY=0.75;entryDx=0;entryDy=0;exitX=0.25;exitY=1;exitDx=0;exitDy=0;fillColor=#f8cecc;strokeColor=#b85450;" edge="1" parent="1" source="Mkv2vfXG0jg6wndlbOip-161" target="Mkv2vfXG0jg6wndlbOip-158">
          <mxGeometry width="50" height="50" relative="1" as="geometry">
            <mxPoint x="963" y="2369" as="sourcePoint" />
            <mxPoint x="1013" y="2319" as="targetPoint" />
            <Array as="points">
              <mxPoint x="1093" y="2201" />
            </Array>
          </mxGeometry>
        </mxCell>
        <mxCell id="Mkv2vfXG0jg6wndlbOip-189" value="&lt;font style=&quot;font-size: 13px;&quot;&gt;Media Relay&lt;/font&gt;" style="rounded=1;whiteSpace=wrap;html=1;fontSize=20;fillColor=#ffe6cc;strokeColor=#d79b00;" vertex="1" parent="1">
          <mxGeometry x="1075" y="2391" width="120" height="60" as="geometry" />
        </mxCell>
        <mxCell id="Mkv2vfXG0jg6wndlbOip-191" value="16" style="endArrow=none;dashed=1;html=1;dashPattern=1 3;strokeWidth=2;rounded=0;fontSize=13;exitX=0.5;exitY=1;exitDx=0;exitDy=0;" edge="1" parent="1" source="Mkv2vfXG0jg6wndlbOip-158">
          <mxGeometry width="50" height="50" relative="1" as="geometry">
            <mxPoint x="833" y="2383" as="sourcePoint" />
            <mxPoint x="1074" y="2424" as="targetPoint" />
          </mxGeometry>
        </mxCell>
        <mxCell id="Mkv2vfXG0jg6wndlbOip-192" value="16" style="endArrow=none;dashed=1;html=1;dashPattern=1 3;strokeWidth=2;rounded=0;fontSize=13;exitX=1.008;exitY=0.583;exitDx=0;exitDy=0;exitPerimeter=0;entryX=0.5;entryY=1;entryDx=0;entryDy=0;" edge="1" parent="1" source="Mkv2vfXG0jg6wndlbOip-189" target="Mkv2vfXG0jg6wndlbOip-169">
          <mxGeometry width="50" height="50" relative="1" as="geometry">
            <mxPoint x="1278" y="2422" as="sourcePoint" />
            <mxPoint x="1328" y="2372" as="targetPoint" />
          </mxGeometry>
        </mxCell>
        <mxCell id="Mkv2vfXG0jg6wndlbOip-193" value="14" style="endArrow=classic;html=1;rounded=0;strokeWidth=2;fontSize=17;entryX=0.999;entryY=0.664;entryDx=0;entryDy=0;entryPerimeter=0;exitX=0.005;exitY=0.667;exitDx=0;exitDy=0;exitPerimeter=0;fillColor=#0050ef;strokeColor=#001DBC;" edge="1" parent="1" source="Mkv2vfXG0jg6wndlbOip-161" target="Mkv2vfXG0jg6wndlbOip-159">
          <mxGeometry width="50" height="50" relative="1" as="geometry">
            <mxPoint x="1059" y="2143" as="sourcePoint" />
            <mxPoint x="1039" y="2261" as="targetPoint" />
          </mxGeometry>
        </mxCell>
        <mxCell id="Mkv2vfXG0jg6wndlbOip-195" value="&lt;font style=&quot;font-size: 14px;&quot;&gt;Conversation Service&lt;/font&gt;" style="rounded=1;whiteSpace=wrap;html=1;fillColor=#d5e8d4;strokeColor=#82b366;" vertex="1" parent="1">
          <mxGeometry x="801" y="2696.88" width="151.5" height="93.5" as="geometry" />
        </mxCell>
        <mxCell id="Mkv2vfXG0jg6wndlbOip-197" value="&lt;font style=&quot;font-size: 19px;&quot;&gt;Teams Client&lt;/font&gt;" style="rounded=0;whiteSpace=wrap;html=1;fontSize=14;fillColor=#dae8fc;strokeColor=#6c8ebf;" vertex="1" parent="1">
          <mxGeometry x="661" y="2644" width="87" height="212" as="geometry" />
        </mxCell>
        <mxCell id="Mkv2vfXG0jg6wndlbOip-200" value="Media Processor" style="rounded=1;whiteSpace=wrap;html=1;fontSize=14;fillColor=#d5e8d4;strokeColor=#82b366;" vertex="1" parent="1">
          <mxGeometry x="1206" y="2697.88" width="83" height="85.75" as="geometry" />
        </mxCell>
        <mxCell id="Mkv2vfXG0jg6wndlbOip-201" value="Media Controller" style="rounded=1;whiteSpace=wrap;html=1;fontSize=14;fillColor=#d5e8d4;strokeColor=#82b366;" vertex="1" parent="1">
          <mxGeometry x="1031" y="2696.13" width="94" height="95" as="geometry" />
        </mxCell>
        <mxCell id="Mkv2vfXG0jg6wndlbOip-212" value="&lt;font style=&quot;font-size: 19px;&quot;&gt;Teams Client&lt;/font&gt;" style="rounded=0;whiteSpace=wrap;html=1;fontSize=14;fillColor=#dae8fc;strokeColor=#6c8ebf;" vertex="1" parent="1">
          <mxGeometry x="1249" y="2812" width="87" height="166.32" as="geometry" />
        </mxCell>
        <mxCell id="Mkv2vfXG0jg6wndlbOip-228" value="3" style="endArrow=classic;html=1;rounded=0;strokeWidth=1;fontSize=20;entryX=0;entryY=0.5;entryDx=0;entryDy=0;" edge="1" parent="1" target="Mkv2vfXG0jg6wndlbOip-200">
          <mxGeometry width="50" height="50" relative="1" as="geometry">
            <mxPoint x="1126" y="2741.38" as="sourcePoint" />
            <mxPoint x="1136" y="2878.38" as="targetPoint" />
          </mxGeometry>
        </mxCell>
        <mxCell id="Mkv2vfXG0jg6wndlbOip-231" value="Teams Client" style="rounded=0;whiteSpace=wrap;html=1;fontSize=15;fillColor=#dae8fc;strokeColor=#6c8ebf;" vertex="1" parent="1">
          <mxGeometry x="984" y="2952" width="201" height="59" as="geometry" />
        </mxCell>
        <mxCell id="Mkv2vfXG0jg6wndlbOip-232" value="Trouter" style="rounded=1;whiteSpace=wrap;html=1;fontSize=14;fillColor=#fff2cc;strokeColor=#d6b656;" vertex="1" parent="1">
          <mxGeometry x="1027" y="2865" width="94" height="47" as="geometry" />
        </mxCell>
        <mxCell id="Mkv2vfXG0jg6wndlbOip-234" value="" style="shape=image;verticalLabelPosition=bottom;labelBackgroundColor=default;verticalAlign=top;aspect=fixed;imageAspect=0;image=data:image/png,iVBORw0KGgoAAAANSUhEUgAAAvgAAAEMCAYAAACxycJxAAAgAElEQVR4nO3deXgT1cIG8HeSdGUHpYWyyFLQqxAQBUW5AoUWUJTtKgpSQXZZpEgFve7KUqQKKIvg0iqKyuIVF6pWFNxatxbxE6gF2aRFsAiULmky3x/hDEmapGmbdjLT9/c8PDSTSXMyPXPyzpkzc6RBsc/KICIiIiIiXTCoXQAiIiIiIvIfBnwiIiIiIh1hwCciIiIi0hEGfCIiIiIiHWHAJyIiIiLSEQZ8IiIiIiIdYcAnIiIiItIRBnwiIiIiIh3xS8AfMPBKvJY6EWPGXl+t5UREREREVD1+CfgDY/+FiIhGGBh7pdPyuQ8MqtRyIiIiIiKqHmPHDrGPV//XSOjQ4VK88fq3OHDgL6dnIiIbVmo5ERERERFVnTQo9llZ7UIQEREREZF/8CJbIiIiIiIdYcAnIiIiItIRBnwiIiIiIh1hwCciIiIi0hEGfCIiIiIiHWHAJyIiIiLSEQZ8IiIiIiIdYcAnIiIiItIRBnwiIiIiIh1hwCciIiIi0hEGfCIiIiIiHWHAJyIiIiLSEQZ8IiIiIiIdYcAnIiIiItIRBnwiIiIiIh1hwCciIiIi0hEGfCIiIiIiHWHAJyIiIiLSEQZ8IiIiIiIdYcAnIiIiItIRBnwiIiIiIh0xybJN7TIQEREREZGfSLIsy2oXgoiIiIiI/MPk64p/t46uyXIQUR3S9EiO2kUgIiLSLY7BJyIiIiLSEZ978AX2vBFRVfFMIBERUc1jDz4RERERkY4w4BMRERER6QgDPhERERGRjjDgExERERHpCAM+EREREZGOMOATEREREekIAz4RERERkY4w4BMRERER6QgDPhERERGRjjDgExERERHpiKk232zs2LHo1asXZs6cWZtvG5DGL/wWV1/RDDOHd/K4ztG/zmPVeznY+dVRNL4kHJc2C8VTk8xodWl4LZY0cGRnZyMlJQX5+fmIi4vDuHHj1C5SrcvLy8Mnn3yCrKws5OfnIy8vD5GRkQCAiIgIxMXFwWw2K8uIqop1zb4NUlNTkZ2djby8PJjN5jrxualiCQkJiIuLQ1xcnLIsKSkJeXl5SE5OVpZlZ2cjKSkJGzZsUKOYVIfVasDv1asXVqxYAQB1PuRffUUzvP1eDgC4DfkZe09h7qLvlMenT57H6ZPnMXVxBsYP64iRfVrXWlnVlpeXh+zsbKSlpSE/Px9msxkpKSkALgYNvRNhS3xuQYSMvLw8ZTtFRkbCbDZj3LhxDCFUae7qWmRkJOLj453qmd7rWnZ2NhISEgBACXJZWVlISkqC2WxGYmKi7j6zO+LvnZ+fX6XXR0RE6OqASOwf2dnZAOC0XcSy1NRUZVlWVpZyoGg2m2E2m2u3wDUkNTUVWVlZVX59ZGQkIiMjddFRF6jbQpJlWfZlxb9bRwMAmh7JqdYbrly5EitWrMCsWbPqfMhfuXU/3n4vB3cMiy4X8m+M/9Dj6xpfEo4PlvWr6eIFhLS0NCQlJSmP4+PjERsbizFjxijLIiMjdd074hg0IiMjlR5Exy8Kxy/htLQ0pbc10M50+KsdoZrhLtS6CyR5eXkAoBwIBGJdq468vDyMGTMGZrPZqTcWsLdJqampuvq8njjWh+oQ4UXrnTGu30dVER8fr/l6k5CQoBzMVJe7fUxLAnlb1GoPPgAMHz4cmzdvdurJ37p1KxITE92uHxUVhSFDhnh8XstEqHftyd+864jX150+eR4Ze0+h1+XNaraAKsvOzlZ6PRITE5VQL3qCHJenpaVp/svDHccvlLi4OI/7gegBAIDY2FgleIleWK1/ofhTamqqchDkDyLcxsbGarqXUtS1yMhIJCYmeu1pFJ9z3LhxMJvNSEpKQlpamrJM6z755BNERka6/bKNi4tDfn4+UlJSnP7m4ixjdnY2IiIi0K1bN83XiYSEhArDuTgAcLetRMdDamqq0pZreXuIz1CVECZ68dPS0jS9j4g6bjabER8fX+UzEnl5eZg7d66y32jx+zvQt0WtBvyMjAyMHTtWeew6XMddeDl27BjWrVuHAwcOYM2aNbVT0FrkKeRXJPM3/QZ8116juLg4t18K3bp1U5ZX9fRxIBNjN30JXI7EF7IIXikpKXVmKFNFUlNTkZKSUm7sbHVkZWVpPtyKulaV8GI2m7Fs2TIlvOihrmVlZXnd38RzYphSXl6e05kPcb0QoN06Iep0ZdoeV6LjITIyEgkJCcjPz9d0wM/Ly6ty3RbbQWxXrRK91dUJtACU77WEhATNBvxA3xa1GvC3bNlSbpkvIR8A0tPT8e233+L66693Wn706FGsXLkSrVq10uyQH08h/7n1u1Urk5pSUlKUi9mqezpUy0RgqOoXrDjDkZCQoIveM38Qw0n8eUZw3LhxSg+2VsOc6Kmt6ulhcVA5d+5cXdS1ioJoRESEsh5wccx1enq6so44mNTquGvx2fxRdrG9RG8naZc48+mPv6PW60Kgb4tavU1mRkaG2+UrVqzAypUrMXz4cK+Bbvdu58CbkZGBfv36YcuWLcqBglbNHN4JdwyLxtvv5WDl1v0Y2ac15kzsqnaxVJGdnY1u3bpp8ojeXxyH5VRnxxcHSuL0MMHnepWQkOB0rYc3ohdXi0Rdq+5Bjzhw0kNdi4iI8Pr3dA2/aWlpiI+Pd1onNjYWADRbL/xJywd7RNWVkJDgl2tZKqtWe/CPHTvm8TlfevJLS0uVn12H++gBe/JJSEtL81tP87hx45S7nrAHzTeOF06NGTNG1xdxi1PC/uqFEkNUtFzXunXrhpSUFI+ny8WZIPH5IiMjkZWV5XQGR4/DBsnZiRMnsH37dq/rDBo0CM2bN6+lElEgUqstqPWLbL3xdbiOuBOPHs0c3gnHTxYx5NdhYoymu2Ah7uDh7qI3Me63W7duTkFDXASakpKi6dBVW0S4F73y4o4qegz5NXHtQFxcnNPFZ1o0btw45aLj/Px85WLZtLQ05bM5DmcS+1dqaipiY2OVi+XEvkf69N1335W7dbGrxo0b49Zbb62lEtUO17NVFJgCKuADvoV8vYZ7ocUlYQDYk19XiZ5jMW7VkRhOIW7T50gE+Pz8/HKBTQQt115GcibCfXJystPFyUlJSboM+aKuuRtCUdEtEj3dXUXUW63XtQ0bNigXqbvOCZCcnOx08DJu3Djk5eWVW1fLt/+jit166626C+8VcZz/QdwlyR3HM1ykjoAL+IDvPfl1AUP+RY4Xm7q78FRMQBIREaHpxkU0mO7KL3pH3QUnMTTC3etcLwqk8hx7Zh23oQiw4kJaPfXIeutlj4iIQGJiotc6425biH1PD3UtMTFR+YxiJltP48nFuuI2mXqqJ0RCZGSkz/MjREZGYtmyZbwGQyUBGfCBuhfyH1qXjYWT3H/RVhTyxy/8Fq8+dH251+mB2WxWwqnjF6a73mvXU6VanVBEXJTnrlFMTEz0uC94u/Wj433yyT2z2YwNGza43U5ijLretqEIre5Up85ERkbqIuADFw+0fekw0Oodc7ypKMiJ4WxqXERItc8x3MfHx7s90wxc7DBJSkqqU2eykpKSyp3VEBNPut60ISIioka3TcAGfKB8yD969KiaxakxR/86j51fHUVGn1bodXkz9LyimRLqBU/3yd+86why9v2No3+dR6tLw2utzLWlMpVfBHrRk6/lW9TVVJDkHT08q2ib6y3cC6xrF1VlEjRxO1rxBe74Wr1MguaNuFbFU9DTs/fffx/Lly/3us7s2bN1NYzHcX4Eb2ep4uLilCGPWr4ex19EyK9NAR3wAeeQ/8knn6hcmpohgrmYvCqqWZjb9dyF/B/3/l3zBQxwYriO2Hkcb1norYcyUDle3OnPBkGNBoYCm9ls9jpW3t3tLn0Jq6JXV0uqOglaWlqacn3GsmXLnL6n9DAJWkWdLAkJCT71RMbExPizWAHhuuuuw+nTpytcR0/Ed6sv+0i3bt2QnZ2tye/hqnJ3hl303Nf2NVwBH/CB8j35UVFRXm+5qUXRnZsi7atjmDm8E1pdGq7cE9+Va8jfvfdvRHduqsvee1+5NjSi10Dcsk9rxD24/TnrowgZdaWRJd9069bN48yaaWlpbu8Q4stQperM+KmWqk6CZjablTYnLi7OKcjrYRI08qx58+b8u3pRF8/qBJJaneiqOsRkWAAwcuRIREVFqVwi/7qlTyucPnkeGXtPAQCG39gKdwyLLrde40vClcmwAGD8sI64pU+rWi1rTatqqBXTxWdnZyM+Pl6z4/5EMHIdxyfu5OJt+IDYBq7jYf05KyXph9ls9ngnjLi4OKSnp5f7V1Ed8naReKCrykGJ+JyerjnQ8iRoRKRdmujBF1x78jdv3qybnvyRfVrjg11H8dS63VgzvxdaXRqOmcM7YfiNrZTQP7JPawDAyq37PY7J14OIiIgq3WJPXNziehcUrXGcHdP1fvZpaWmYO3eux/vgO1785Ig9+OSO6GFLS0vzW90Qvf6saxdpbbgS+cZ1oivXe967DnHLysqqtbIRaSrgR0VFOYX8nj174sEHH9RNyH9qkhlTF2dg6uIMxN0YpQzXcR1+Iy7C1WvI9zZswBPH+5drPViIC/PERDtiyIAI+ykpKUhKSkJqaqoS0Bx7YF0vfkpISFCGTDBo+K4ubCtxS0tP97KuLHFBnRbrWlV72is6oybG9ZP+uE501aRJEyXge7rmQGv7BVWfWpmkVgN+r169kJGRUeXXL1myBJmZmU4h/4033sD8+fMxYsQIfxVTNa0uDcea+b2w6kJ4T/vqGOJujELLS8LQ6tJwZP52CmlfHcPpk+fR+JJwdL28qS5DvtlsrtSsq3oK94KYSVPcd118rnHjxiE2NhapqalOQyvEQYHrXYNE4BKvresqE+IqMxZbyxcw5+fn+22/EROxabGuieFKlf1biotqY2NjnZaLmaUBbW4Pqpinia5EB5W47a6YDbsq13iQ9qn1N6/VgL948WL069evSq/t1auX8g9AuZCvF60uDcf0YdHocXlTfLDraLkLbRtfYr8AVwT6lZeE6S7kO/ZKVxQ8UlNTlTH3egn3AJQvgqSkJCQlJTldvOf4JeEtjDgO2UlOTtZsAPWnuLg4pKSkIC8vD926dfPL78zKylLqoBbl5eVVO4Dm5eUhKSkJeXl5mq1r4kyGOGvmy2cQIV5ceJydna3c/1scSGp5ewC+tcMVEYG3rlx0Ka7HcBfu9fI95Uu98DZTNnCxXmhx/3Dkz33En9uiVgN+q1atsGPHDsyfP9/nnvyoqCiMHDlSGXcPXByD7zomXy/EsJyRfVrj6F/n8ci6bPx1qhgfLCt/cCRCvZ5Cvhg2UNGdJ8Tpb7PZrMsesri4OOTn5ztN4uX6Od01Bo7zAADuZ/2tq8Q8CY69q/6g1UnV/HFthuOBpJbrmtjfxG0vxe0yRSgVYS0/Px95eXlKkDebzUhOTlYucBftl7vrZLREzAielJRUrc8iDnqAql3ErGV6DPditmZxIOzuM4nvIG/ti9iHPD2vBb5sC1/U1LaQZFmWfVnx79b2O7o0PVL+1o1qWblyJVasWIFZs2bpLuQ7Gr/wWwDwOlutuPDWsXdfy0Ro8Bac9Dg0xx3HACXCg/gnAr4IHq7BNdC2TSC2I3WZuIVjenq68qWclZWlDNtxHB7myvVAMtDqWlW564V3R2wfPYdWEV6qexcgvQTcmJgYnw7mxZwKgH4+uyPRbvhCtAuO28SROEDWqspsi4r4e1toOuADdSPk+xLwAf2FfMeJZ1x7qsVsk3oJFRVxDVOCpzHlgdqjHKjtSF0lJmBxnX1VnEFzfCx+FkOShECta/4gPqc4gBa92uL/ukCc8fJ0G9CKRERE6OYgKCEhQTn49fb3F/uIHsO9UNFBcLdu3ZRJ8cQQPnfr6KHt8KVDoCI1sS00H/ABe8jPyMjQ1Vh8Rw+ts3/JLJxUcSOxcut+/PTbqQoPBrTC01F/ZGSk5k+BV4X4sk1LS1OGCogvmoiIiIBvMAO5HamLxK1lxX7kWHcc6xrgPDutFuoakb/l5eUhNTXVpx5bPYd70gZdBHwi0ga2I0RERDVPMzPZEhERERFRxRjwiYiIiIh0hAGfiIiIiEhHGPCJiIiIiHSEAZ+IiIiISEcY8ImIiIiIdIQBn4iIiIhIRxjwiYiIiIh0hAGfiIiIiEhHGPA1pmT/JszpPwm7jtnULopqZOzBk0MG4q3MMrWLQhomYw+eGnJfnd6XvNmxahgWvntE7WJont62445VwzBxWabaxSCiCvg14IvgFRMTg5iYGMT2X4YD/O70SmwzTw1myYmPcW/sALyVWQb57wKcv/kJPJLzBbqOjoXl628BWa7lEvvPmey1Sl0R/3wJ7RKuwqMffYo7e5pqoZS14QRSEoY4bYdR0zahoIb+tHoLHBUR+5DYtgwnF9VEm11y4mNMGpgcgG1/+f2MdcGZp7bhTPZapU3qN/09rJ/bU4XS1Txv38c7Vg3zuVPJcXtpzb5tiU77yID+09kJ4oaoK4H8Xeq3gH8mey0GxMxG9OMfIz09Henp6di28V/YsfWov95CtyR0QtjB193uRN9sWos/rPZWwlZwGnJxMQDA+schnB09Dv8MuhUl724BSktrtcz+0m7IIqW+fPTWA/j84RUBGAxqniR3xOOpnyrb4r4ub2D1psBtOLSi5MTHuG/sB7jn1U+UbXtvx+Oa/OL1t7rYZjvvZ2+hz7HHA/oLurb1uGEwfvo8o9z+8ePXH2Pk+GFoIqlTrtokoRNCDz5ap88Qx0x9TWkTtjxnxvKnt7DNdLF/WyrODxyK/C/K7y+Bwi8BX8YeLF+wG4+nOveqhjQfjHtHtgJQvhdN7Dyit2fre/OcjhbFUaS7o8cdq4Ypv0c0zuJ0+3tbX3Ra7rhuwB5Ryx3Qf0Aodn1zzGlxyYmP8d6vYzFpWH0AgLH9ZeVeav2/vShMeBAHO3XF6u7XYvOnJ2qlyDUhpHkP9LnqDxw7bv97e6ozrkMrHNdz7IH0tFwLetwwGAcOH1ceO/aqOPYuedpGds49ls9sykJKwhA8vfks0tfco7ltUlX1ovvhqpYXm7rrb7vNKaicP/6hsg0d2wjX3m3HILhj1TA8vek9PDlkoPIaLdU3X9psAJClfKUOubbF7trWM9lrMeTOZ3HA9iEmDYwJ8PDcHMPjb1P2M8e/t+tndd3PHD/Xvm2JmLgs02l7eAuHnvblQNDAfAPMh3Zgz5/On/3Nrf9Gr2vs9cS1l9/d9/GZ7LVOn23ftkSnfWvftsTArRtyB0x7eFaFnU2e6sS+bYkYnvAOCvavxqgBzlnHU/vgbhsGigbmG2D+47Dyt/O2LwDO9dtdmyHaTVH/Hfc7xzrjbX9U3wlkfF6MIbf/Bz2CdzrtLyKfpP2wzeP3irfnAT/WB9lHp1p1lE+16uj2uX+y1sgjp74r/23z/Pp9778o7zxqVdYf2O9ZOdcqy8X5H8kTBsbIz7xzWJZlWd77/jy5f//+To8df/fe9+fJ9z6bceG35suvzRksv5lhkW3yL/ITgwc4PCfLNvkXeeVzmU7rit8bKGzyL/KTg5bJv1t3y08OWibnWi8+9/mLt8nPvHNY/vzF2+Q3MyyyLMvyP/eNVf4Whcn/lQ9f1ll5fKpVR/lkuyvlc4kPy2X7c1T6RL77J2uN09/LtR55qjM2+Rf5ycHT5Z1HrU4/O3Jd7ksdVU++nHL/TIfPcLFey3L5sot6Icuet5FrfbfJv8j/23yk3Otrm7d2pGbYt4NjPRNEmyG2rXjsuN3Fz8X5H8n3DrxYnz5/8TaHba21+uZb+T5/8TY5pt80p88stqO3trU4/yN54gDntiwwuO5njm2Q8z7n+Blc64XruuI7y1tdEdvG274cKFzL5Pyd6/y8t+9jx++zHS/OkWfel6y0Ta5/h0DhWG53n1v8jSuqE65/Z2/tg+v7qG3v+/M8/v19+dyO7aJrW+DYborf5frY/rucf2+gKc7/SJ413f3fz/V7RZbLt53envdnffDbEJ3GHdt4PX3Xaeh09Imyv10D8w3oE3JxZYM8BKNHtgYAXNarH9obbnZ63OR3+9GjjD14Z3Uh4kdfc+GVzXFdv6tw8JC9B0ZCJ4fn7GO1Z9x/rdO6gUpCF9w4dCc2br54RuKrbf9WtoNgvP5y5WfLpTKemf4K6q9YBlOXK+2/x1KCkjffxj/9B+Ps2Amw7PwqoMfpH/xogXKkmvBZd2xaPUqpR97qjCChOdpcfhBHXY7u929LxaGYeKfXO/ZCBBpZ+h2PjxO9FY+j/dwPLvSsnsDWlP85nR537N33tI1KTvyIn0omYNooe/2RcBVuHdGq3PvqX3PEJ3+EMWEL3faYSuiE2f8dgSaSfRv1uaWe0p40NE9RerdDmvfAv680Or2277Tb0f5CC6q1+gZU3GYDQP9pC5TP1OOGwTh9oS3WUtvqiYw9eH7BJsT0uRpnsrdiW9EEDLr24t9bnE3cvy0Vh2OecTjTYe/5T9/1k/K72g1Z5FBXBmPMsGPlzshWtC8Hit6jpjgMOziB73bsQUyfq8ut5+37WEJztLniM2T8UAYZe5C59wb07vzFhccnkGe9yemsWiDqPPQB9Dn2uNuzMb7UCdf1PbUPLdp0UParQJG+5h7le3lz8Uzlmgvvn9tev8cvnq20iyHNB+Ou4TuR8cPFbSjaTdHeuj62t7/N0aZjsNIWB5pvNq1FRN9eaCLZM6q0/SunMzKO3yuAfZ9yXMfb8/6sD367StFeoJ4evzDspyXm4MsS+yc0ykMwpgrvI2M/Hh830GlZuyHHAYS7XX/ftkRMf/5H5XHM1Cq8aS3pPWoK3nsiAwWjWuPEB6kwTpiJ9gbgkMM6pms7oxgSJMg4+0UW2sRNQfDw3ggeNhRlmT+geN2rKP3kM0CWYflyFyxf7oKxUzRCJ96D4BG3QQoJUe3zudNuyCKsn9vzwljpFOwafY3SCPpWZ5pjXHISnhoyGDElNkxclKY0Pgc/WoCYjy6uKcmd0fe4De2jAu+LxT42+Hn0iTJgx6phSNn4A/o4XMi2fkEc1jus36RTMxTIPdFYcr+NSo4fRmH77nVizKwv+k1/D/2m2099jpo2FutWjUJjN9umZetOQLF4dAIpCfcgNbsEgL3+POblPbRU34CK22xXIS3aIMpQqDzWUtsqiANpQbQXZ7JxYUjFaqf1Jx6zoTmA9m1aOC0PadEG9Q7Yt587zvXImad9OVD21ZDmPXB1yD3Y/v0wjLjM3lHw+LXuo4Ln7+OeuK7fVdh86DjOhnyNsj5DMKTTSbyw3/54f1sttE3NMXr+TMwYswK90hLKPeutThjLre2lfTBPwTNDEjFqwGo06TQN61aNUn3bxEx9DQ/9p7X9YuE572D0yLlKaPf0uf+WL4Mkd0Qrl/auZetO+PbQcaCnc2dlRfpNfwmHE+5BzJoSpTyBQMYefPVBFPquiwIgDmLWIuOHWWjv4cYfwc1bo43pN4+/0/H5hn6sD34J+PZxe6ux588RSjhzJGMPnh6yGv3WpeHRKIP98eBPqvRekjwY6z5NUCqb43u42rctEUv3j0J6epLyeLOHRjcQhDQfjGFXDsNH37fHgVWRGPOhmwrduB6OhV6KVsUnEPxbPg5ccRxAa0CSYOp1Ler3uhbWPw6h5JVUlLz9LuTzRbDuz0Fh4sM4v2QZQu++CyHxY2C45JJa/3zehDQfjHkzd2DphWBbmToj7qpjf81s7Fq3Es2BgGoUKqPv9Kfx1ZDVFw52nMO/o4q2UWUDXF3Qb/pLODLnaez5cwRujPK2pj3cB49+H+nJ9jMpqXOe9vq7tVTfKmqzK6K1tlXwtC8BFzsbXO3bhgu97Bf/to4H0O6uevrzyH60u6ZFueXe3j9w2Hvil+76CVfn70BE35ke2xBP38eAvWcz/4kM7AkuQ5/eUQgJaoP8lzKwJ/h3xPS5t2Y/gp+ENB+MB2btwMLnMjEmzPk5b3XijJvf5a196Dw0CelD7fvRvOQ2AXOXoobmKVgwahg2br5dKbunz91Ush9AHz1mAxzqt6d9oWL2s6/xF9rit9q+HxB3zjub/TW+KNmLL1wObJv88h4GXeu+46j0xBGcbO/5jKnr8/6qD35pZSRchdun1cMTd88od2HSy5uPovTEERy2dEBUC/vbnc3+GrtKKn/+QcJVuHHoTix8zrcLk/48st/haNN+qjHQ9bhhMF5ZMA+HBtzottEEgJz69qEWpiP/oN6HDzpdxPPp92UwXtYW4U8+gsbff4Xwhx+EoaV9G8in/kbR8y/gdM9/o3DufFj37quVz+Qrx1OiVakzjsN1LuvVDwfWLQ6wC3N8I+EqzF7U9cKdC5qjV/9Qt3cx8LaNGphvQNdDa5U78cjYg/e36PfuKJ6cyV7rdIq95MSP2PmrtcLXyTiBw3vbKb1RFb1Oa/Wtoja7IlpsW71pYL4BbdIfdjsc47Je/SCnPeTwnH0oguOwlT8+fE3Zjmey12LRpj7KRakXed6XA81lvfoBaSl4Ia0IfXq7PxKu6Ps4uHlrXHJwBzZ+WoqoFgaENO+BHsE7sfHTlm62TeAS30tPbz6rLPOlTjjytX0IxOE6fac/Deur9rJ7/9z2A8NX5y93utGF4wXaVRNIw3Xsn3fiojTlLkPp6en4LH2508XpMvYjZeMPyms2Ll6pDOnx5XmhuvXBb3tZ56FJ2NJmLYY7HNXYTy+0QojUCg/M2oFJA2MAAG1uvtXteGpfKKdtYhxOm7/+gtveuL7Tn8auIRMQs8YGSe6Mobd1rtJ71qaG5uGI7/or2jlcS+Bqf3hr9MNPgCxj4YQYzPrvIKy3yhe2RZyyntSwIUKnTkToxHtQ+tF2FK97FWVZuwGLBSXvbEbJO5sRdGNvhE4aj6C+/wYMavcq2cfzjZgzC61ef8GnOuM6jCdm6mt4qKcJwGAkLz3sVB899dAFoobm4Rgads+Fo8KLOUQAACAASURBVPck3HdkmNPwAfvQgsEet5GEq/DIR8/hqQv1X7wGsA8Fe2PseMSuHow1n831eCCpBw3Nw1GacCtiFji3F32iDPDWZoqDLFF/Gne+BT2vcHfi3S6kufbqm7c2uyLe2lZxynrSwA81c1ZDwlV48LUETB9rb0sBXDw93nwwVr0Bp+cchwICQJtbBuDAslvweHaJUsfc7Vedh3ralwMr8NqvQViJbUUTvI6V9/R93CfKYD8AuOUYNhTFX9gW9gOc9z9qrbGzivahOjvHLlOWhFRQJ0T7PWrAaqWt9tQ+OA51M8pDsOazKQG1fURnwMy7n8Oaz+Z6/dydhyZhJRKV7yT756nKd4zz8Mh2QxZhfQC0IyUnfsRXvwzAgmed91dR11M2/oAb54ZDQifc0v57xMQsAFC+/N6e92d9kGTZtysw/24dDQBoeiSnau9E/mOxoOCqHpDPFyHk9pGot2yxb6+TZZT9+DOK172C0u2fAjbn3oQGr61DUEzfGigwkR3bEdIbMVwpkA/miKh2iKGzfdet9Dpk3dPz/qTjvjsdCwqCqfd1AFC5u+RIEkzXXI36q1eg3rOLyj19/oln/FlKIiIiIlJBYJ0XJJ8F/ftGWD7bAVtePqy/58IY3bHC19iOHEXJW++iZOv/YDvqegs3IHTapJooKhERERHVIg7R0Shr7kH80zcWABD+6EMInTTe6/ryqb9x+oZ+kAvPX1xoMiE4ph+CRw1DcP++QHBwTRaZiO0IERFRLeAQHY0ytr9MuTuOZedXFb8gPAwwXLxIMGTsaDT56VvUX78KwYNiGe6JiIiIdIIBX6skCUH/vhEAUPZdJuSSEu+rh4Wh/vJnlceWHTshWyu+XSARERERaQsDvoaJgC8XF6Ps+x8rWBsIGtgf4fMfAADYjv2Jc5NnABZLjZaRiIiIiGoXA76GBd3YG5DsN0h1HKZj+/M4ipJXwPr7gXKvCZ0+GcHDhgIAyr7/AYUPP+77XXiIiIiIKOAx4GuY1KQxTF27AHAI+LKMwjmJKHpuJf7pF1c+5EsS6i1dCJO5KwCg5K13UPza67VZbCIiIiKqQQz4GieG6Vh//Q22kydh+WInLN98pzx/9u4JsOWfcHqNFBqK+utXwdD8UgDA+ScWwrLrm9orNBERERHVGAZ8jQu66UblZ8sXu3B+4VKn521Hj+Hs2AmQz5xxWm6IjED9l9fY755jteLctFmwHvyjVspMRERERDWHAV/jTFd3g1QvHABQOCcR1r37AABhiQkIveduAIB17z6cvXdauTvtmLp1Rf2lCwEA8j//4NyEKZDPnq3F0hMRERGRvzHg1zBZlqv8z6ffZzLB1Ps6p3UMkREIuTceYY89hOCbBwGw30qzcPYDkMvKnF4fNPxWZQZb6+8HcG5GQrl1+E8f/4iIiKhuYMD3M3+FKunC3XF8WW7qc4PT49CEWZDCwgCjEeHPL4Xpup4AgNIPt6Po8WfK3TUnLDEBQTF9AQCWz79A0ZJlVS43BS6GfiIiorrBdOBA+VsputP4wv++rl/X+DMsNWnSBE2bNvX4vNVqxaFDh5THhnZt0cjh+T97dIfs8HeSHnkQDWbNgzH3AIpT3kBBcBCKx9zh9DulubPQICcXxsNHULxmPU41bYLS2Bi/fSYKfJ4OKv2J7QgREVHNk/766y+fkqmh+/U1XRYiqiNsP3+rdhGIiIh0yxQaGurTiqU1XBAiqjt8bXeIiIio8qTCwkIOxK0k1+E4YjyzzWaD1WqF1WotN8bZ0xAeo9GI4OBgBAUFITw8vNJlsVqtOHfuHKxWK0pLKz4Mk375FUHTZgMlJUBICCxrVkC+6l9O6xje2QzT0uft5b7icljWvQCEhFS6bBQ4HIffSJIESZJgNBphNBphMBiUZZ5eQ0RERNrBgF9JnsK91WqFxWJBcHAwwsLCEBwcrFIJK2b5bAfOTpwGWK2QmjRGw63vwNih3cUVZBmFCx5FyYaNAIDg225B/ZXJAAOfbpSWlqKoqAilpaUICgqC0WhkyCciItIJ3kWnEtyFe9FrX1painr16qFRo0YBHe4BIGhAP9RLegYAIBecxtmx451nu5Uk1HvqUZh6XQsAKP3fByh6ca0aRaUaEhwcjEaNGqFevXooLS2F1WqFzWbjnXWIiIh0gAHfR5567gH7MJmQkJAqDbFRS8jtIxGWmADgwmy3d9/rPMlVUBAarH0BhlZRAICipGSUfpquRlGpBoWHhyMkJARWqxUAfB5aRkRERIGLAb8KHEOQ6MHX4kWDYTOmIjR+LADA+ttenJ0w1Wm2W6lZUzR4ZQ2k8DD7sJ2ZCbDu269WcamGhIaGKj34AEM+ERGR1jHg+8BT2HEcohOixYtQJQnhT/y33Gy3uNCbCwDGKy5HveXPAgDkwvM4O34K5ILTqhSXaobowXcdosOQT0REpE0M+FXgOBOozWZTej41yWhEveXPOs12e95lttvgQbEIe+B+AIDtyFGcmzoTKCtTpbhUM0Q95iy3RERE2seAXwmuPZp6CUNSSAgavLwaxss7AwCKX3u93EW1YbOmI/iWwQAAyzffofCxp2u9nFRzPNVnrddtIiKiuogBv5IcA5BjL77WSQ0bosEbr8AQ1RIAULRkGUre3eKwgoR6yUtgvHDP/JLUDSh5/S01iko1wLH3Hig/Dp+IiIi0gwG/Ap5CjmsY0gNDRHM0eONVSI0bAQAK5z0ES/oXyvNSWBgavLwGhkua2Z9/9AlYvs1QpazkX74Ee73UcyIiIr1jwK8CPQcdY8f2aPDaOkihoYDVinNTZ6Ls52zleUPLFqi/bhUQFASUWXFuygzYjhxVscTkL55Cvp7rOxERkR4x4PvItbdeT2PwXZl6dEf91SsAoxFycTHOxk+ENffgxeevuRr1Fj8F4MJEWeOnQD5XqFZxyQ/cnY3SW70mIiKqKxjwK8Fd4PFHCMrMzERCQgKKioqclufm5mLSpEkoKCio9ntUVtCAfqi3xH4hrbvZbkNuH4nQSeMBANZ9++231/RwLUJBQQFGjRqFzMxMZVlRURESEhIQHR2t/Nu0aVOlyuhpu1VElEe876hRo5RtXNHv3LRpU7nnly5diujoaCxdurRS5XCVmZmJ6Ohop+3krtzifTIzM53KXh2uB6t6G35GRERUlzDgV4GnMKQ3IXeMwoGbYwG4n+02/KEHEXRTHwBA6SefoejZ5W5/z/r16zF69Gj07Gm/FWdubi4GDx6M3r17IycnBzk5Odi9ezfOnz+PoqIiFBQUYNKkScjNzfX7Z8rNzcXEiROxZMkS5b0fe+wx/P333z69ftSoUUhOTkZYWBgAe8g+fvw4du/ejXnz5lW77F27dsWHH37o9gAjPT0d2dkXh0v17NkTo0ePxvr166v0Xq70Xp+JiIjqCgZ8L3wJOnocouPoj5i++K3rlQDss92eu3faxdluTUbUX/U8jO3bAQCKVq5C6bYPnV6fm5uL/fv3IyYmBoC9F/rBBx9EUlISRo0apawXFhaGcePGKcG5upYuXeq2J/zUqVNo27YtWrZsqSzr0qULOnToUKX3OXz4MFq0aOFzuXNzc/HYY495PeuwZ88e/Pnnn07LCgoKkJaWhrvuustpeffu3bF///5q9+L7Wof1XNeJiIj0ggFfQzZt2oSlS5cqQ0Jch7WI4SWpqamIjo5G3759kZubqwz9cB1G4m4IkHgPwB6SFzz0EO7d/yt2GO3PW77NQMG0Wbh95EhER0ejU48e+PqOEZAaNAAAFM55EGW/7FF+388//4xOnTqhSZMmAICcnBy0adMGXbp0cfsZc3NzMXz4cHzxxRcYNGiQMhxGfLbHHnvM6zCWijRr1gyHDh0qF6Bdvfvuu263meMQnqVLl2LBggV46aWXEB0djffee89t2Sujbdu2uO2227Blyxan5Tk5OejUqVO57dayZUs0aNAAOTk5lXofTxjgiYiItI8BX2Neeukl3HTTTcjJycGGDRvwwgsvOA0H2bZtG8LDw5GTk4MZM2Zg0KBB+PLLL5GTk4Pt27fju+++83n4yLx587Bo0SLcO3kyRuzbA1Ova+1PfPo5ljSLRM7+/cjMzMTWn3/E2UfnAwYD5JISnJswFba//gIAHDx4EO3atVN+Z0U93h06dMDWrVvRt29fbN++3Wk4zLZt23DzzTcjJydHGe5TWR06dMCDDz7oNYA7bsPt27fjww8/dHtAIbbP5MmTkZOTg2HDhnkse2UMGDAA+/fvV/5ORUVF2LhxI2666aZy64aFhaFFixY4fPhwpd/HFcM9ERGRPjDgV4MagWjy5MlKuO3SpQuuvvpqnDp1Snl+6NChuPnmmwHYh2907doVI0aMAGDv7W3btq3T+r6SQkLQ4JU1KGnTGgDQ6ONPUPTiWjRp0gRxcXHINBkQ/t/5AABbXj7OTZyuDOVp06ZN1T+wg6FDh3rs+QfgdKbipZdewpgxY8pdRAvYx67n5OSgd+/e6Nq1a7mLex23YYcOHXDzzTdXK0A7XlA8aNAgvPnmm+jatavHC4ubNGmCTp064eeffwYA/PLLLwDg8bO3a9cOBw8edPscERER1T0M+AGuZcuWCA0NrdJrmzZtirZt26Jp06Z+KYvUsCF+mDAWeZL9cdGSZbi/fTQWLFiAgwcPInTiPQj5j/1gouynLJxf8CjgchDUpk0bHD9+vNJDV3whgntOTg4mT56MDRs2ICcnB5s2bVKGCDkSd/bZuHFjlYf8+CIsLAzJycnKGYG77roLu3fvRk5OjtN1CI5GjBiBtLQ0FBQU4Msvv0Tv3r39dn2CO+y9JyIi0g8G/ADQrFkznD17FsXFxU7LT506hbMOd60JBBFdrsLXY29XZrt91GbE/61dh3nz5gGShHqLn4KpR3cAQMm7W9Al6xen3u/o6GicPXu2wjHwtaVJkybo1auXX4a4+FOHDh3QqVMnbNu2zekiZU8ch0FVF8M+ERGRtjHgBwBxoaTj7Q4LCgqQlJSE0aNH11jPbdOmTVFQUKBcoJmbm4sXXnjB62uio6ORtn8fjiTOcZjtdtbF2W6Dg1F/3YswtIgEAFz7VQYsO75UXi+G9AwaNKjcffFTU1NrpGffUWZmptP7FhQUICMjw2/DiPzppptuwlNPPYW4uDi3ZyAA+3b75ptvArL8REREpA4G/AAQFhaGZ555BsePH1fGkPfs2ROJiYlVvpjUF02aNEFiYqIyVv3FF1/EhAkTnNaJiYlBRkaGcueaJk2aYMmSJZj18jokWIthBSAXFeH02PHKbLeGSy9F/ZfXQAoNhSTLuOnDT1HwU5byO0eNGoXt27cjMTFR+bxdu3bF5ZdfjrCwMKeDgKrciQawXwDrbts1a9bM6X39vZ0rKnuHDh3wxBNP+HTQ1qVLF9x1113o3r27x3XEWZ/o6OjqFZyIiIh0QyosLOT5eA8chyo4Tm5ls9lgs9lgtVpRVlaGoqIitG/fXsWSqqdk47sonPcQAMDQKgoN33sHhojmAIDSbR/h3PTZAICiSy9Byx3bITVqpFpZ9WjTpk04ePCgfYhUNeTm5iIsLAxBQUEwGAwwGo0wGAyQJEn5Jzj+TERERIGHPfhULSGj/4OweXMAXJjtdtzF2W6Dhw5B2Oz7AABhf53EsbvuAcqsqpVVb8QFwhMnTlS7KERERBRAGPCp2sJmTkPIuDEAAOv/2We7RWmp/bmEWQgeFAsACN+9B+efWaxaOfWmZ8+eHu8QRERERHUXAz5VnySh3pOPIHiwPchbvs3AudkPADYbYDCg3vNLYby8MwCgeP1rKHm7/L3fiYiIiMg/GPDJP4xG1FuZrMx2W/rBxzj/+DOALEOqF44Gr66F1NTe01w4/xGUff+jmqUlIiIi0i0GfPIbMdutsXMnAEDxq6koXvUSAPsFuA1eehEwGYGyMpybfB9sxwLjXvjkjBfREhERaRsDPvmV1LAhGrzxCgwtWwAAzi9+FiXvbgEAmHpdi3pPPw4AsJ08hbP3ToV8vmbve0++YagnIiLSDwb8amAocs8QGYEGG15VZrstnPcQLJ9/AQAIGTMaoffcDQCw/vobChMS7WP1iYiIiMgvGPD9gEG/PGPHDmjw2jq3s92GP/Ywgm7sDQAo/XA7ilasUrOoBJS71z0RERFpFwN+NYlgVJXZVvXO1KM76q9aDhgMkIuKcDZ+on22W5MR9VevgKFtGwBA0bLlKP0oTeXS1l1FRUVuJ7QiIiIibWLA98Jb2BHPiVk/z16Y3ImcBQ3sj3qLnwIAyAWncXbseNjyT0Bq3Mh+Z5369QAAhffPg/X/9qpZ1Drr7Nmzysy1FeEBABERUeBjwK8CEXLE/0ajEYWFhfjnn3/ULFbACrnzdrez3RqjO6L+C88DkmTv4Z8wBbaTp1Qubd1y+vRpFBYWKuGePflERETax4BfCe5CjyRJMBqNCAoKwqlTp5CXl8fhOm6EzZyGkLvvAuA8221QTF+EL5gHALAd+xPnJs8ALBY1i1onFBUVIS8vD6dOnUJQUBCMRmO5+s2gT0REpE1SYWGhrHYhApksy04/y7IMm82m/C/+Wa1WlJWVoaysDBaLRVkmXiN+j+Pvq2skmw3NFi9D2DcZAIDzN16PU4lzAElC0+SVqLdjJwCgMG4A/p4xBWC4rDbHs03inxiOYzKZEBQUBJPJpCwT/yRJUv53DPkM/ERERIGPAb8C7gK+t5Av/ncN9wz4F5SWovGDjyDol18BAEXDhuLcfZMBiwVNEubDtHc/AODcjCkoGjZUzZLqgruAL0K+CPWi9148dg33DPhERETawoDvA8dw7i3ku/vZW7ivq2FfOncO9WfMhfHgHwCA4skTUDzmDkgnT6HhlJmQTp4CjEacS3oGZdd0V7m02uQulIuw7hjiPf3sekDg+juJiIgocDHg+8DXXnzX5e568F1/X10lnfgL4VNnwXDiLwBA8cOJsAyOheG3vQifPgeSxQK5QQMUvrQScutWKpdWm1xDvus/xyDvbWgOAz4REZG2MOD7wFPAdxf0PQV7BvzypD8OIXTyTEhnzwJGI0qSnoa193UwfZKO4MeeBgDY2rZBycurINerp3JptcdbL767oO+u557Dc4iIiLSHAd9HrkHdU8h3F+wZ7j0z7N6DoOn3A6WlQGgoSlc9D/mqf8H44lqYUjYAAGw3XA/LswsBo1Hl0mqPu158x5/d9eZ7GpbDgE9ERKQNDPg+chfS3fXW88LaypN2fgXj3AWAzQa5UUNYX10LtIqCYe58GHZ9AwCwxY+BbdZ0lUuqbd568RnuiYiI9IMBvxJ8Cfmuy9y9lsqTtr4P6clFAAC5RSTk1PVAWCgM4yYBBw4CAGxPPQrcMljNYmqWp/H4ro8Z7omIiLSPAb+SvIV812We1icPXnoFeHGt/efO0cAra4CC08CY8cA/Z4DgYPuyLleqW06N8TQWX/zv7WJahnsiIiLtYcCvJE+3uvQl0DPgV0CWYXt6MfDOFgCA1PMaSKuXQ/45G/KUmYDVClzSDIa3XweaX6pyYbXFU2hnuCciItIfBvwqcBfUPQV7hvpKslphS5gP22efAwCkQQNhXLoQtrc3wfb0EvuyK/8FQ+o6SKGhapZUkyoK+p4eExERkXYw4FdDRUHf2zLyTC4pgXXidMg//gwAMIwZDeND82B9ciFsb28GAEhD4mBauhBgEPWZu9DuKcgz4BMREWkXA341VRTeGe6r6MwZWMZMgPx7LgDANHc2DPFjYJkwFfIPP9mXJcyCYdJ4NUupSd7CO4M9ERGR9jHg+wmDvP/Jefmw3BkP+XgeAMC06EkYb+qD0v+MgXzsT0CSEPTi8zD0v0nlkmofgz0REZF+MODXEAZ+/5BzD6D0znuAM2cAoxFBq5dDimhuD/7ni4DwMAS/8wakjh3ULqrmMNQTERHpEwM+BTzbjz/DMn4K5JISSGFhCEpdD/nECVjumwMAkFq3QsimN4HGjVQuKREREZH6DGoXgKgihh7dYXo+CTAYIBcVoXTyfZA6tIfp/hkAAPnIUZTOmguUlalcUiIiIiL1MeCTJhj790XQE/+1Pyg4Dcu902AcOQzGIYMAALaM72F5JknFEhIREREFBgZ80gzj7SNhmjUdACAf+xOlk6bD9PA8GK68AgBgffNtWN96V80iEhEREamOAZ80xTR9MoyjRwEA5L37YUmYj6Dnl0Jq1gwAYHl6EWyZP6hZRCIiIiJV8SJb0h6rFZZZD8B6YbZb45A4GMfeidL4SYDFAjRuhJDNb0FqFaVyQYmIiIhqHwM+aZJcXAzLhGmw/Xhh0qtxd0H61xWwzH8EACBFd0TI268D9cLVLCYRERFRreMQHdIkKTQUwWuWK/e/L0t9Ezh5Cqbx4wAAcs7vsMx7CLDZ1CwmERERUa1jwCftatgQwS+vhhQZAQCwPPs8pOgOMPS5AQBgTd+BsuWr1CwhERERUa1jwCdNkyIjEPzKGqBhQwCA5ZEnYRw2FFK7tgCAsjXrYP1ou5pFJCIiIqpVDPikeVKH9gheswJSSAhgtaLsv08gaPoUoEEDAEDZ/Edh+/X/VC4lERERUe1gwCddMPToDtNzSy7OdrswCaY5M+yPS0pgmTYb8smTaheTiIiIqMYx4JNuGGP6Iejxh+0PCk7D+nIKjPfGAwDk/BOw3DcHckmJiiUkIiIiqnkM+KQrxjtGwTRzGgD7bLe2XV/DOGggAMCWtRtljz0NyLwzLBEREekXAz7pjum+KU6z3cp/nYThqisBANat78P62utqFo+IiIioRjHgk/5IEoIefQjGAf0BALYffwbCwyBFNAcAWJKeg23nV2qWkIiIiKjGMOCTPhmNMC1bBEOPqwEAtswfILVpDSksDLDZUHp/IuQDf6hcSCIiIiL/Y8An3XKd7db2/Y+QOrS3P1lYCMu0WcCZMyqWkIiIiMj/GPBJ3xo2RPD6Vcpst7Y9v0KKamn/+Y9DKJ09DyizqllCIiIiIr9iwCfdk1pEIvjl1crEV/LxPPtQHQC2b75D2dJkNYtHRERE5FcM+FQnSB07IHjtSvtstzYb5KIi5bmy196AdfN7KpaOiIiIyH8Y8KnOMPToDlPyYsBQvtpbHn3KfrcdIiIiIo1jwKc6xTig/8XZbh2VlcEyMwHyn8drv1BEREREfsSAT3WO42y3juRTf6N0+mzI54vcvIqIiIhIGxjwqU4y3TcFxjtGlVsu/7YPZQseAWRZhVIRERERVR8DPtVNYrbbmH7lnrJu/xRlq15SoVBERERE1ceAT3WXyQhT8mIYenQv91TZilWwfpKuQqGIiIiIqkcqLCzkWASq2/45g5I74yHnHnBaLIWFIXhjKqTLO6lUMCIiIqLKYw8+UaOGCH55tTLbrSAXFaF02izIp/5WqWBERERElceAT4Tys90K8p/HYZk1F7BYVCoZERERUeUw4BNdYJ/tdoV9tlsHth9+guWJhbyzDhEREWkCAz6RA0OPq93Odmt9dwvK3nhLpVIRERER+Y4Bn8iFcUB/BD1WfrbbskXPwvZNhgolIiIiIvIdAz6RG8bRo2CaMdV5odWK0tkPwPbHIXUKRUREROQDBnwiD0wzpsJ4+0jnhWfOwDJtNnDunDqFIiIiIqoAAz6RJ5KEoMcehrF/X6fF8oGDKE2YD1itKhWMiIiIyDMGfCJvTEaYnlsCw9XdnBbbvtwFS/IKlQpFRERE5BkDPlEFpNBQBK9ZCal9O6fl1vWvwfq/D1QqFREREZF7UmFhIW/uTeQD+XgeSu+4G3L+iYsLg4MR/MYrMJi7qFcwIiIiIgfswSfykdQiEsGvrHGe7ba0FJb77ncO/UREREQqYsAnqgSpYwcEr1kBBAcry+S/TsIy/X7IxcUqloyIiIjIjgGfqJIM11yNIJfZbm17fkXZw48DMke8ERERkboY8ImqwDgwBkGPPuS0zPrBx7Cue1WlEhERERHZMeATVZHxzv/AdN8Up2WWZcth+/xLlUpERERExIBPVC2mmdPKzXZbOmsu5N9zVSoRERER1XUM+ETV4W62W4sFpZNnAKf/Ua9cREREVGcx4BNVl8kIU/Jip9lu5WN/onTWXKCsTMWCERERUV3EgE/kB1JY2IXZbi9TltkyvoflmSQVS0VERER1EQM+kb80aojgl9cAjRoqi6xvvg3rW++qWCgiIiKqa6TCwkLeuJvIj+Sc31Fyi/OFt8GvvwxDz2tUKhERERHVJezBJ/IzKbojgt94xWlZ6d33Qj56TKUSERERUV3CgE9UAwzX9kDQC8lOy0qHDAcKz6tUIiIiIqorGPCJaohxYAyCHv+v8lguKUHphCmAzaZiqYiIiEjvGPCJapDxzv/ANHWi8tiWtRtli5aqWCIiIiLSOwZ8ohpmun8GjINjlcdlqW/C+r8PVCwRERER6RnvokNUG8qsKBk6AvKBP5RFwZvfhOGqK1UsFBEREekRAz5RLZGLilDS7TqnZSFfp0O65BKVSkRERER6xCE6RLVECgtDaOYup2UlN8QApaUqlYiIiIj0iAGfqDY1aoiQHdudFhV3uw6QeSKNiIiI/IMBn6iWSS1bIHjLWxcXWK0oGTFavQIRERGRrjDgE6nAcOW/ELRimfJY/r+9sGX+oGKJiIiISC8Y8IlUYowbANP4u9UuBhEREekM76JDpDLbrq8BowmG3r3ULgoRERHpAAM+EREREZGOcIgOEREREZGOMOATEREREekIAz4RERERkY4w4BMRERER6QgDPhERERGRjjDgExERERHpCAM+EREREZGOMOATEREREekIAz4RERERkY4w4BMRERER6QgDPhERERGRjjDgExERERHpCAM+EREREZGOMOATEREREekIAz4RERERkY4w4BMRERER6QgDPhERERGRjjDgExERERHpCAM+EREREZGOMOATEREREekIAz4RERERkY4w4BMRERER0hPWwgAAAMNJREFU6QgDPhERERGRjjDgExERERHpCAM+EREREZGOMOATEREREekIAz4RERERkY4w4BMRERER6QgDPhERERGRjjDgExERERHpCAM+EREREZGOMOATEREREekIAz4RERERkY4w4BMRERER6QgDPhERERGRjjDgExERERHpCAM+EREREZGOMOATEREREekIAz4RERERkY4w4BMRERER6QgDPhERERGRjjDgExERERHpCAM+EREREZGOMOATEREREenI/wM8QED8C9lXzwAAAABJRU5ErkJggg==;" vertex="1" parent="1">
          <mxGeometry x="1332" y="2411" width="444.5" height="156.75" as="geometry" />
        </mxCell>
        <mxCell id="Mkv2vfXG0jg6wndlbOip-235" value="1" style="endArrow=classic;html=1;rounded=0;strokeWidth=1;fontSize=15;entryX=0;entryY=0.5;entryDx=0;entryDy=0;" edge="1" parent="1" target="Mkv2vfXG0jg6wndlbOip-195">
          <mxGeometry width="50" height="50" relative="1" as="geometry">
            <mxPoint x="748" y="2744" as="sourcePoint" />
            <mxPoint x="786" y="2636" as="targetPoint" />
          </mxGeometry>
        </mxCell>
        <mxCell id="Mkv2vfXG0jg6wndlbOip-236" value="2" style="endArrow=classic;html=1;rounded=0;strokeWidth=1;fontSize=15;exitX=1;exitY=0.5;exitDx=0;exitDy=0;entryX=0;entryY=0.5;entryDx=0;entryDy=0;" edge="1" parent="1" source="Mkv2vfXG0jg6wndlbOip-195" target="Mkv2vfXG0jg6wndlbOip-201">
          <mxGeometry width="50" height="50" relative="1" as="geometry">
            <mxPoint x="875" y="2923" as="sourcePoint" />
            <mxPoint x="925" y="2873" as="targetPoint" />
          </mxGeometry>
        </mxCell>
        <mxCell id="Mkv2vfXG0jg6wndlbOip-237" value="4" style="endArrow=classic;html=1;rounded=0;strokeWidth=1;fontSize=15;exitX=0.5;exitY=1;exitDx=0;exitDy=0;entryX=0.438;entryY=0.016;entryDx=0;entryDy=0;entryPerimeter=0;" edge="1" parent="1" source="Mkv2vfXG0jg6wndlbOip-195" target="Mkv2vfXG0jg6wndlbOip-232">
          <mxGeometry width="50" height="50" relative="1" as="geometry">
            <mxPoint x="948" y="2902" as="sourcePoint" />
            <mxPoint x="998" y="2852" as="targetPoint" />
          </mxGeometry>
        </mxCell>
        <mxCell id="Mkv2vfXG0jg6wndlbOip-238" value="5" style="endArrow=classic;html=1;rounded=0;strokeWidth=1;fontSize=15;exitX=0.5;exitY=1;exitDx=0;exitDy=0;entryX=0.45;entryY=0.022;entryDx=0;entryDy=0;entryPerimeter=0;" edge="1" parent="1" source="Mkv2vfXG0jg6wndlbOip-232" target="Mkv2vfXG0jg6wndlbOip-231">
          <mxGeometry width="50" height="50" relative="1" as="geometry">
            <mxPoint x="1134" y="2928" as="sourcePoint" />
            <mxPoint x="1184" y="2878" as="targetPoint" />
          </mxGeometry>
        </mxCell>
        <mxCell id="Mkv2vfXG0jg6wndlbOip-239" value="5" style="endArrow=classic;html=1;rounded=0;strokeWidth=1;fontSize=15;exitX=1;exitY=0.5;exitDx=0;exitDy=0;" edge="1" parent="1" source="Mkv2vfXG0jg6wndlbOip-232">
          <mxGeometry width="50" height="50" relative="1" as="geometry">
            <mxPoint x="1200" y="2938" as="sourcePoint" />
            <mxPoint x="1250" y="2888" as="targetPoint" />
          </mxGeometry>
        </mxCell>
        <mxCell id="Mkv2vfXG0jg6wndlbOip-241" value="&lt;font style=&quot;font-size: 19px;&quot;&gt;Teams Client&lt;/font&gt;" style="rounded=0;whiteSpace=wrap;html=1;fontSize=14;fillColor=#dae8fc;strokeColor=#6c8ebf;" vertex="1" parent="1">
          <mxGeometry x="801" y="2809" width="87" height="166.32" as="geometry" />
        </mxCell>
        <mxCell id="Mkv2vfXG0jg6wndlbOip-242" value="5" style="endArrow=classic;html=1;rounded=0;strokeWidth=1;fontSize=15;entryX=1;entryY=0.468;entryDx=0;entryDy=0;entryPerimeter=0;exitX=0;exitY=0.5;exitDx=0;exitDy=0;" edge="1" parent="1" source="Mkv2vfXG0jg6wndlbOip-232" target="Mkv2vfXG0jg6wndlbOip-241">
          <mxGeometry width="50" height="50" relative="1" as="geometry">
            <mxPoint x="954" y="2935" as="sourcePoint" />
            <mxPoint x="1004" y="2885" as="targetPoint" />
          </mxGeometry>
        </mxCell>
        <mxCell id="Mkv2vfXG0jg6wndlbOip-244" value="&lt;font style=&quot;font-size: 14px;&quot;&gt;Conversation Service&lt;/font&gt;" style="rounded=1;whiteSpace=wrap;html=1;fillColor=#d5e8d4;strokeColor=#82b366;" vertex="1" parent="1">
          <mxGeometry x="1003" y="3070" width="151.5" height="93.5" as="geometry" />
        </mxCell>
        <mxCell id="Mkv2vfXG0jg6wndlbOip-245" value="2" style="endArrow=classic;html=1;rounded=0;strokeWidth=1;fontSize=15;exitX=1.017;exitY=0.114;exitDx=0;exitDy=0;exitPerimeter=0;" edge="1" parent="1" source="Mkv2vfXG0jg6wndlbOip-261">
          <mxGeometry width="50" height="50" relative="1" as="geometry">
            <mxPoint x="870" y="3098" as="sourcePoint" />
            <mxPoint x="1004" y="3091" as="targetPoint" />
          </mxGeometry>
        </mxCell>
        <mxCell id="Mkv2vfXG0jg6wndlbOip-259" value="4" style="endArrow=classic;html=1;rounded=0;strokeWidth=1;fontSize=14;entryX=1.001;entryY=0.191;entryDx=0;entryDy=0;entryPerimeter=0;" edge="1" parent="1" target="Mkv2vfXG0jg6wndlbOip-261">
          <mxGeometry width="50" height="50" relative="1" as="geometry">
            <mxPoint x="1003" y="3118" as="sourcePoint" />
            <mxPoint x="867.174" y="3194.964" as="targetPoint" />
          </mxGeometry>
        </mxCell>
        <mxCell id="Mkv2vfXG0jg6wndlbOip-261" value="&lt;font style=&quot;font-size: 19px;&quot;&gt;Teams Client&lt;/font&gt;" style="rounded=0;whiteSpace=wrap;html=1;fontSize=14;fillColor=#dae8fc;strokeColor=#6c8ebf;" vertex="1" parent="1">
          <mxGeometry x="785" y="3051" width="87" height="352" as="geometry" />
        </mxCell>
        <mxCell id="Mkv2vfXG0jg6wndlbOip-263" value="&lt;font style=&quot;font-size: 15px;&quot;&gt;WAC Server&lt;/font&gt;" style="rounded=1;whiteSpace=wrap;html=1;fontSize=19;fillColor=#e1d5e7;strokeColor=#9673a6;" vertex="1" parent="1">
          <mxGeometry x="1011.89" y="3351" width="145" height="57.5" as="geometry" />
        </mxCell>
        <mxCell id="Mkv2vfXG0jg6wndlbOip-264" value="1" style="endArrow=classic;html=1;rounded=0;strokeWidth=1;fontSize=14;" edge="1" parent="1">
          <mxGeometry width="50" height="50" relative="1" as="geometry">
            <mxPoint x="871" y="3377" as="sourcePoint" />
            <mxPoint x="1011" y="3377" as="targetPoint" />
          </mxGeometry>
        </mxCell>
        <mxCell id="Mkv2vfXG0jg6wndlbOip-268" value="&lt;font style=&quot;font-size: 19px;&quot;&gt;Teams Client&lt;/font&gt;" style="rounded=0;whiteSpace=wrap;html=1;fontSize=14;fillColor=#dae8fc;strokeColor=#6c8ebf;" vertex="1" parent="1">
          <mxGeometry x="1260" y="3051" width="87" height="355" as="geometry" />
        </mxCell>
        <mxCell id="Mkv2vfXG0jg6wndlbOip-270" value="&lt;font style=&quot;font-size: 14px;&quot;&gt;Content Sharing&lt;/font&gt;" style="rounded=1;whiteSpace=wrap;html=1;fillColor=#d5e8d4;strokeColor=#82b366;" vertex="1" parent="1">
          <mxGeometry x="1003" y="3222" width="151.5" height="81" as="geometry" />
        </mxCell>
        <mxCell id="Mkv2vfXG0jg6wndlbOip-271" value="3" style="endArrow=classic;html=1;rounded=0;strokeWidth=1;fontSize=14;exitX=0.5;exitY=1;exitDx=0;exitDy=0;" edge="1" parent="1" source="Mkv2vfXG0jg6wndlbOip-244" target="Mkv2vfXG0jg6wndlbOip-270">
          <mxGeometry width="50" height="50" relative="1" as="geometry">
            <mxPoint x="1086" y="3238" as="sourcePoint" />
            <mxPoint x="1136" y="3188" as="targetPoint" />
          </mxGeometry>
        </mxCell>
        <mxCell id="Mkv2vfXG0jg6wndlbOip-272" value="4" style="endArrow=classic;html=1;rounded=0;strokeWidth=1;fontSize=14;entryX=0.004;entryY=0.185;entryDx=0;entryDy=0;entryPerimeter=0;" edge="1" parent="1" target="Mkv2vfXG0jg6wndlbOip-268">
          <mxGeometry width="50" height="50" relative="1" as="geometry">
            <mxPoint x="1156" y="3117" as="sourcePoint" />
            <mxPoint x="1262" y="3134" as="targetPoint" />
          </mxGeometry>
        </mxCell>
        <mxCell id="Mkv2vfXG0jg6wndlbOip-277" value="5" style="endArrow=classic;html=1;rounded=0;strokeWidth=1;fontSize=14;entryX=1;entryY=0.5;entryDx=0;entryDy=0;" edge="1" parent="1" target="Mkv2vfXG0jg6wndlbOip-270">
          <mxGeometry width="50" height="50" relative="1" as="geometry">
            <mxPoint x="1258" y="3263" as="sourcePoint" />
            <mxPoint x="1241" y="3493" as="targetPoint" />
          </mxGeometry>
        </mxCell>
        <mxCell id="Mkv2vfXG0jg6wndlbOip-278" value="6" style="endArrow=classic;html=1;rounded=0;strokeWidth=1;fontSize=14;entryX=1;entryY=0.5;entryDx=0;entryDy=0;" edge="1" parent="1" target="Mkv2vfXG0jg6wndlbOip-263">
          <mxGeometry width="50" height="50" relative="1" as="geometry">
            <mxPoint x="1258" y="3380" as="sourcePoint" />
            <mxPoint x="1276" y="3452" as="targetPoint" />
          </mxGeometry>
        </mxCell>
        <mxCell id="Mkv2vfXG0jg6wndlbOip-280" value="6" style="endArrow=classic;html=1;rounded=0;strokeWidth=1;fontSize=14;exitX=1;exitY=0.601;exitDx=0;exitDy=0;exitPerimeter=0;entryX=0;entryY=0.5;entryDx=0;entryDy=0;fillColor=#0050ef;strokeColor=#001DBC;" edge="1" parent="1" source="Mkv2vfXG0jg6wndlbOip-261" target="Mkv2vfXG0jg6wndlbOip-270">
          <mxGeometry width="50" height="50" relative="1" as="geometry">
            <mxPoint x="897" y="3271" as="sourcePoint" />
            <mxPoint x="947" y="3221" as="targetPoint" />
          </mxGeometry>
        </mxCell>
        <mxCell id="Mkv2vfXG0jg6wndlbOip-281" value="7" style="endArrow=classic;html=1;rounded=0;strokeWidth=1;fontSize=14;exitX=0.993;exitY=0.812;exitDx=0;exitDy=0;exitPerimeter=0;entryX=0.004;entryY=0.669;entryDx=0;entryDy=0;entryPerimeter=0;fillColor=#0050ef;strokeColor=#001DBC;" edge="1" parent="1" source="Mkv2vfXG0jg6wndlbOip-270" target="Mkv2vfXG0jg6wndlbOip-268">
          <mxGeometry width="50" height="50" relative="1" as="geometry">
            <mxPoint x="1185" y="3344" as="sourcePoint" />
            <mxPoint x="1235" y="3294" as="targetPoint" />
          </mxGeometry>
        </mxCell>
        <mxCell id="Mkv2vfXG0jg6wndlbOip-282" value="8" style="endArrow=classic;html=1;rounded=0;strokeWidth=1;fontSize=14;entryX=0.005;entryY=0.863;entryDx=0;entryDy=0;entryPerimeter=0;fillColor=#a20025;strokeColor=#6F0000;" edge="1" parent="1" target="Mkv2vfXG0jg6wndlbOip-270">
          <mxGeometry width="50" height="50" relative="1" as="geometry">
            <mxPoint x="874" y="3293" as="sourcePoint" />
            <mxPoint x="994" y="3293" as="targetPoint" />
          </mxGeometry>
        </mxCell>
        <mxCell id="Mkv2vfXG0jg6wndlbOip-283" value="9" style="endArrow=classic;html=1;rounded=0;strokeWidth=1;fontSize=14;entryX=0.75;entryY=1;entryDx=0;entryDy=0;exitX=0.75;exitY=0;exitDx=0;exitDy=0;fillColor=#a20025;strokeColor=#6F0000;" edge="1" parent="1" source="Mkv2vfXG0jg6wndlbOip-270" target="Mkv2vfXG0jg6wndlbOip-244">
          <mxGeometry width="50" height="50" relative="1" as="geometry">
            <mxPoint x="1113" y="3239" as="sourcePoint" />
            <mxPoint x="1163" y="3189" as="targetPoint" />
          </mxGeometry>
        </mxCell>
        <mxCell id="Mkv2vfXG0jg6wndlbOip-284" value="10" style="endArrow=classic;html=1;rounded=0;strokeWidth=1;fontSize=14;exitX=0.01;exitY=0.876;exitDx=0;exitDy=0;exitPerimeter=0;entryX=0.989;entryY=0.29;entryDx=0;entryDy=0;entryPerimeter=0;fillColor=#a20025;strokeColor=#6F0000;" edge="1" parent="1" source="Mkv2vfXG0jg6wndlbOip-244" target="Mkv2vfXG0jg6wndlbOip-261">
          <mxGeometry width="50" height="50" relative="1" as="geometry">
            <mxPoint x="964" y="3033" as="sourcePoint" />
            <mxPoint x="876" y="3153" as="targetPoint" />
          </mxGeometry>
        </mxCell>
        <mxCell id="Mkv2vfXG0jg6wndlbOip-285" value="10" style="endArrow=classic;html=1;rounded=0;strokeWidth=1;fontSize=14;exitX=0.998;exitY=0.825;exitDx=0;exitDy=0;exitPerimeter=0;entryX=0;entryY=0.271;entryDx=0;entryDy=0;entryPerimeter=0;fillColor=#d80073;strokeColor=#A50040;" edge="1" parent="1" source="Mkv2vfXG0jg6wndlbOip-244" target="Mkv2vfXG0jg6wndlbOip-268">
          <mxGeometry width="50" height="50" relative="1" as="geometry">
            <mxPoint x="1170" y="3191" as="sourcePoint" />
            <mxPoint x="1220" y="3141" as="targetPoint" />
          </mxGeometry>
        </mxCell>
        <mxCell id="Mkv2vfXG0jg6wndlbOip-288" value="" style="fontColor=#0066CC;verticalAlign=top;verticalLabelPosition=bottom;labelPosition=center;align=center;html=1;outlineConnect=0;fillColor=#CCCCCC;strokeColor=#6881B3;gradientColor=none;gradientDirection=north;strokeWidth=2;shape=mxgraph.networks.phone_1;fontSize=14;" vertex="1" parent="1">
          <mxGeometry x="631" y="1105" width="102" height="67" as="geometry" />
        </mxCell>
        <mxCell id="Mkv2vfXG0jg6wndlbOip-289" value="Conference Auto Attendant" style="rounded=1;whiteSpace=wrap;html=1;fontSize=14;fillColor=#d5e8d4;strokeColor=#82b366;" vertex="1" parent="1">
          <mxGeometry x="830" y="1124" width="159" height="60" as="geometry" />
        </mxCell>
        <mxCell id="Mkv2vfXG0jg6wndlbOip-292" value="" style="endArrow=classic;html=1;rounded=0;strokeWidth=1;fontSize=14;exitX=0.9;exitY=0.68;exitDx=0;exitDy=0;exitPerimeter=0;entryX=0;entryY=0.5;entryDx=0;entryDy=0;" edge="1" parent="1" source="Mkv2vfXG0jg6wndlbOip-288">
          <mxGeometry width="50" height="50" relative="1" as="geometry">
            <mxPoint x="759" y="1095" as="sourcePoint" />
            <mxPoint x="829.5" y="1152" as="targetPoint" />
          </mxGeometry>
        </mxCell>
        <mxCell id="Mkv2vfXG0jg6wndlbOip-296" value="Platform Media Agent" style="rounded=1;whiteSpace=wrap;html=1;fontSize=14;fillColor=#d5e8d4;strokeColor=#82b366;" vertex="1" parent="1">
          <mxGeometry x="822.5" y="1235" width="174" height="60" as="geometry" />
        </mxCell>
        <mxCell id="Mkv2vfXG0jg6wndlbOip-297" value="" style="endArrow=classic;html=1;rounded=0;strokeWidth=1;fontSize=14;exitX=0.5;exitY=1;exitDx=0;exitDy=0;entryX=0.5;entryY=0;entryDx=0;entryDy=0;" edge="1" parent="1" source="Mkv2vfXG0jg6wndlbOip-289" target="Mkv2vfXG0jg6wndlbOip-296">
          <mxGeometry width="50" height="50" relative="1" as="geometry">
            <mxPoint x="787" y="1323" as="sourcePoint" />
            <mxPoint x="837" y="1273" as="targetPoint" />
          </mxGeometry>
        </mxCell>
        <mxCell id="Mkv2vfXG0jg6wndlbOip-298" value="MediaPaas" style="rounded=1;whiteSpace=wrap;html=1;fontSize=14;fillColor=#d5e8d4;strokeColor=#82b366;" vertex="1" parent="1">
          <mxGeometry x="1091.25" y="1235" width="120" height="60" as="geometry" />
        </mxCell>
        <mxCell id="Mkv2vfXG0jg6wndlbOip-299" value="" style="endArrow=classic;html=1;rounded=0;strokeWidth=1;fontSize=14;exitX=1;exitY=0.5;exitDx=0;exitDy=0;entryX=0;entryY=0.5;entryDx=0;entryDy=0;" edge="1" parent="1" source="Mkv2vfXG0jg6wndlbOip-296" target="Mkv2vfXG0jg6wndlbOip-298">
          <mxGeometry width="50" height="50" relative="1" as="geometry">
            <mxPoint x="1023.3800000000001" y="1362" as="sourcePoint" />
            <mxPoint x="1073.38" y="1312" as="targetPoint" />
          </mxGeometry>
        </mxCell>
        <mxCell id="Mkv2vfXG0jg6wndlbOip-300" value="Conference Virtual Assistant Bot" style="rounded=1;whiteSpace=wrap;html=1;fontSize=14;fillColor=#d5e8d4;strokeColor=#82b366;" vertex="1" parent="1">
          <mxGeometry x="1346.38" y="1357" width="232" height="60" as="geometry" />
        </mxCell>
        <mxCell id="Mkv2vfXG0jg6wndlbOip-301" value="Conversation Service" style="rounded=1;whiteSpace=wrap;html=1;fontSize=14;fillColor=#d5e8d4;strokeColor=#82b366;" vertex="1" parent="1">
          <mxGeometry x="1101" y="1100" width="152" height="60" as="geometry" />
        </mxCell>
        <mxCell id="Mkv2vfXG0jg6wndlbOip-302" value="" style="endArrow=classic;html=1;rounded=0;strokeWidth=1;fontSize=14;exitX=1;exitY=0;exitDx=0;exitDy=0;entryX=0.5;entryY=1;entryDx=0;entryDy=0;" edge="1" parent="1" source="Mkv2vfXG0jg6wndlbOip-296" target="Mkv2vfXG0jg6wndlbOip-301">
          <mxGeometry width="50" height="50" relative="1" as="geometry">
            <mxPoint x="683.3800000000001" y="1381" as="sourcePoint" />
            <mxPoint x="733.3800000000001" y="1331" as="targetPoint" />
          </mxGeometry>
        </mxCell>
        <mxCell id="Mkv2vfXG0jg6wndlbOip-303" value="Team Scheduler" style="rounded=1;whiteSpace=wrap;html=1;fontSize=14;fillColor=#d5e8d4;strokeColor=#82b366;" vertex="1" parent="1">
          <mxGeometry x="1164" y="969" width="100" height="52.13" as="geometry" />
        </mxCell>
        <mxCell id="Mkv2vfXG0jg6wndlbOip-304" value="" style="endArrow=classic;html=1;rounded=0;strokeWidth=1;fontSize=14;entryX=0.5;entryY=1;entryDx=0;entryDy=0;" edge="1" parent="1" source="Mkv2vfXG0jg6wndlbOip-289" target="Mkv2vfXG0jg6wndlbOip-303">
          <mxGeometry width="50" height="50" relative="1" as="geometry">
            <mxPoint x="1049" y="1039" as="sourcePoint" />
            <mxPoint x="1099" y="989" as="targetPoint" />
          </mxGeometry>
        </mxCell>
        <mxCell id="Mkv2vfXG0jg6wndlbOip-305" value="Call Controller" style="rounded=1;whiteSpace=wrap;html=1;fontSize=14;fillColor=#d5e8d4;strokeColor=#82b366;" vertex="1" parent="1">
          <mxGeometry x="1336" y="1100" width="120" height="60" as="geometry" />
        </mxCell>
        <mxCell id="Mkv2vfXG0jg6wndlbOip-306" value="" style="endArrow=classic;html=1;rounded=0;strokeWidth=1;fontSize=14;exitX=1;exitY=0.5;exitDx=0;exitDy=0;entryX=0;entryY=0.5;entryDx=0;entryDy=0;" edge="1" parent="1" source="Mkv2vfXG0jg6wndlbOip-301" target="Mkv2vfXG0jg6wndlbOip-305">
          <mxGeometry width="50" height="50" relative="1" as="geometry">
            <mxPoint x="1334" y="1221" as="sourcePoint" />
            <mxPoint x="1384" y="1171" as="targetPoint" />
          </mxGeometry>
        </mxCell>
        <mxCell id="Mkv2vfXG0jg6wndlbOip-307" value="MC" style="rounded=1;whiteSpace=wrap;html=1;fontSize=14;fillColor=#d5e8d4;strokeColor=#82b366;" vertex="1" parent="1">
          <mxGeometry x="1550" y="1100" width="120" height="61" as="geometry" />
        </mxCell>
        <mxCell id="Mkv2vfXG0jg6wndlbOip-308" value="" style="endArrow=classic;html=1;rounded=0;strokeWidth=1;fontSize=14;exitX=1;exitY=0.25;exitDx=0;exitDy=0;entryX=0;entryY=0.25;entryDx=0;entryDy=0;" edge="1" parent="1" source="Mkv2vfXG0jg6wndlbOip-305" target="Mkv2vfXG0jg6wndlbOip-307">
          <mxGeometry width="50" height="50" relative="1" as="geometry">
            <mxPoint x="1468" y="1110" as="sourcePoint" />
            <mxPoint x="1518" y="1060" as="targetPoint" />
          </mxGeometry>
        </mxCell>
        <mxCell id="Mkv2vfXG0jg6wndlbOip-309" value="" style="rhombus;whiteSpace=wrap;html=1;fontSize=14;fillColor=#fff2cc;strokeColor=#d6b656;" vertex="1" parent="1">
          <mxGeometry x="871" y="1378" width="80" height="80" as="geometry" />
        </mxCell>
        <mxCell id="Mkv2vfXG0jg6wndlbOip-310" value="" style="endArrow=classic;html=1;rounded=0;strokeWidth=1;fontSize=14;entryX=0.5;entryY=1;entryDx=0;entryDy=0;exitX=0.5;exitY=0;exitDx=0;exitDy=0;fillColor=#f8cecc;strokeColor=#b85450;" edge="1" parent="1" source="Mkv2vfXG0jg6wndlbOip-309" target="Mkv2vfXG0jg6wndlbOip-296">
          <mxGeometry width="50" height="50" relative="1" as="geometry">
            <mxPoint x="857" y="1384" as="sourcePoint" />
            <mxPoint x="907" y="1334" as="targetPoint" />
          </mxGeometry>
        </mxCell>
        <mxCell id="Mkv2vfXG0jg6wndlbOip-311" value="" style="endArrow=classic;html=1;rounded=0;strokeWidth=1;fontSize=14;exitX=0.75;exitY=0;exitDx=0;exitDy=0;entryX=0;entryY=0.5;entryDx=0;entryDy=0;fillColor=#f8cecc;strokeColor=#b85450;" edge="1" parent="1" source="Mkv2vfXG0jg6wndlbOip-296" target="Mkv2vfXG0jg6wndlbOip-301">
          <mxGeometry width="50" height="50" relative="1" as="geometry">
            <mxPoint x="1067" y="1373" as="sourcePoint" />
            <mxPoint x="1117" y="1323" as="targetPoint" />
          </mxGeometry>
        </mxCell>
        <mxCell id="Mkv2vfXG0jg6wndlbOip-312" value="" style="endArrow=classic;html=1;rounded=0;strokeWidth=1;fontSize=14;exitX=1;exitY=0.75;exitDx=0;exitDy=0;entryX=0;entryY=0.75;entryDx=0;entryDy=0;fillColor=#f8cecc;strokeColor=#b85450;" edge="1" parent="1" source="Mkv2vfXG0jg6wndlbOip-301" target="Mkv2vfXG0jg6wndlbOip-305">
          <mxGeometry width="50" height="50" relative="1" as="geometry">
            <mxPoint x="1258" y="1229" as="sourcePoint" />
            <mxPoint x="1308" y="1179" as="targetPoint" />
          </mxGeometry>
        </mxCell>
        <mxCell id="Mkv2vfXG0jg6wndlbOip-313" value="" style="endArrow=classic;html=1;rounded=0;strokeWidth=1;fontSize=14;exitX=1;exitY=0.75;exitDx=0;exitDy=0;entryX=0;entryY=0.75;entryDx=0;entryDy=0;fillColor=#f8cecc;strokeColor=#b85450;" edge="1" parent="1" source="Mkv2vfXG0jg6wndlbOip-305" target="Mkv2vfXG0jg6wndlbOip-307">
          <mxGeometry width="50" height="50" relative="1" as="geometry">
            <mxPoint x="1459" y="1236" as="sourcePoint" />
            <mxPoint x="1509" y="1186" as="targetPoint" />
          </mxGeometry>
        </mxCell>
        <mxCell id="Mkv2vfXG0jg6wndlbOip-314" value="" style="endArrow=classic;html=1;rounded=0;strokeWidth=1;fontSize=14;entryX=1;entryY=1;entryDx=0;entryDy=0;exitX=0;exitY=1;exitDx=0;exitDy=0;fillColor=#f8cecc;strokeColor=#b85450;" edge="1" parent="1" source="Mkv2vfXG0jg6wndlbOip-307" target="Mkv2vfXG0jg6wndlbOip-305">
          <mxGeometry width="50" height="50" relative="1" as="geometry">
            <mxPoint x="1505" y="1248" as="sourcePoint" />
            <mxPoint x="1555" y="1198" as="targetPoint" />
          </mxGeometry>
        </mxCell>
        <mxCell id="Mkv2vfXG0jg6wndlbOip-315" value="Receive" style="rounded=1;whiteSpace=wrap;html=1;fontSize=14;fillColor=#d5e8d4;strokeColor=#82b366;flipV=1;flipH=0;" vertex="1" parent="1">
          <mxGeometry x="1741" y="1617" width="120" height="60" as="geometry" />
        </mxCell>
        <mxCell id="Mkv2vfXG0jg6wndlbOip-317" value="Decode" style="rounded=1;whiteSpace=wrap;html=1;fontSize=14;fillColor=#ffe6cc;strokeColor=#d79b00;" vertex="1" parent="1">
          <mxGeometry x="1919" y="1617" width="120" height="60" as="geometry" />
        </mxCell>
        <mxCell id="Mkv2vfXG0jg6wndlbOip-318" value="Rescale" style="rounded=1;whiteSpace=wrap;html=1;fontSize=14;fillColor=#dae8fc;strokeColor=#6c8ebf;" vertex="1" parent="1">
          <mxGeometry x="2097" y="1617" width="120" height="60" as="geometry" />
        </mxCell>
        <mxCell id="Mkv2vfXG0jg6wndlbOip-319" value="&lt;font style=&quot;font-size: 18px;&quot;&gt;Mixing&lt;/font&gt;" style="rounded=1;whiteSpace=wrap;html=1;fontSize=14;fillColor=#008a00;fontColor=#ffffff;strokeColor=#005700;" vertex="1" parent="1">
          <mxGeometry x="2270" y="1614" width="120" height="310" as="geometry" />
        </mxCell>
        <mxCell id="Mkv2vfXG0jg6wndlbOip-320" value="&lt;font style=&quot;font-size: 18px;&quot;&gt;Encode&lt;/font&gt;" style="rounded=1;whiteSpace=wrap;html=1;fontSize=14;fillColor=#d80073;fontColor=#ffffff;strokeColor=#A50040;" vertex="1" parent="1">
          <mxGeometry x="2443" y="1618" width="120" height="306" as="geometry" />
        </mxCell>
        <mxCell id="Mkv2vfXG0jg6wndlbOip-321" value="Send" style="rounded=1;whiteSpace=wrap;html=1;fontSize=14;fillColor=#60a917;strokeColor=#2D7600;fontColor=#ffffff;" vertex="1" parent="1">
          <mxGeometry x="2610" y="1617" width="120" height="60" as="geometry" />
        </mxCell>
        <mxCell id="Mkv2vfXG0jg6wndlbOip-322" value="Send" style="rounded=1;whiteSpace=wrap;html=1;fontSize=14;fillColor=#60a917;strokeColor=#2D7600;fontColor=#ffffff;" vertex="1" parent="1">
          <mxGeometry x="2610" y="1742" width="120" height="60" as="geometry" />
        </mxCell>
        <mxCell id="Mkv2vfXG0jg6wndlbOip-323" value="Send" style="rounded=1;whiteSpace=wrap;html=1;fontSize=14;fillColor=#60a917;strokeColor=#2D7600;fontColor=#ffffff;" vertex="1" parent="1">
          <mxGeometry x="2610" y="1867" width="120" height="60" as="geometry" />
        </mxCell>
        <mxCell id="Mkv2vfXG0jg6wndlbOip-332" value="" style="endArrow=classic;html=1;rounded=0;strokeWidth=1;fontSize=18;exitX=1;exitY=0.5;exitDx=0;exitDy=0;entryX=0;entryY=0.5;entryDx=0;entryDy=0;" edge="1" parent="1" source="Mkv2vfXG0jg6wndlbOip-315" target="Mkv2vfXG0jg6wndlbOip-317">
          <mxGeometry width="50" height="50" relative="1" as="geometry">
            <mxPoint x="1869" y="1613" as="sourcePoint" />
            <mxPoint x="1919" y="1563" as="targetPoint" />
          </mxGeometry>
        </mxCell>
        <mxCell id="Mkv2vfXG0jg6wndlbOip-333" value="" style="endArrow=classic;html=1;rounded=0;strokeWidth=1;fontSize=18;exitX=1;exitY=0.5;exitDx=0;exitDy=0;entryX=0;entryY=0.5;entryDx=0;entryDy=0;" edge="1" parent="1" source="Mkv2vfXG0jg6wndlbOip-317" target="Mkv2vfXG0jg6wndlbOip-318">
          <mxGeometry width="50" height="50" relative="1" as="geometry">
            <mxPoint x="2086" y="1612" as="sourcePoint" />
            <mxPoint x="2136" y="1562" as="targetPoint" />
          </mxGeometry>
        </mxCell>
        <mxCell id="Mkv2vfXG0jg6wndlbOip-334" value="" style="endArrow=classic;html=1;rounded=0;strokeWidth=1;fontSize=18;exitX=1;exitY=0.5;exitDx=0;exitDy=0;" edge="1" parent="1" source="Mkv2vfXG0jg6wndlbOip-318">
          <mxGeometry width="50" height="50" relative="1" as="geometry">
            <mxPoint x="2267" y="1616" as="sourcePoint" />
            <mxPoint x="2269" y="1647" as="targetPoint" />
          </mxGeometry>
        </mxCell>
        <mxCell id="Mkv2vfXG0jg6wndlbOip-335" value="Receive" style="rounded=1;whiteSpace=wrap;html=1;fontSize=14;fillColor=#d5e8d4;strokeColor=#82b366;flipV=1;flipH=0;" vertex="1" parent="1">
          <mxGeometry x="1741" y="1730.81" width="120" height="60" as="geometry" />
        </mxCell>
        <mxCell id="Mkv2vfXG0jg6wndlbOip-336" value="Decode" style="rounded=1;whiteSpace=wrap;html=1;fontSize=14;fillColor=#ffe6cc;strokeColor=#d79b00;" vertex="1" parent="1">
          <mxGeometry x="1919" y="1730.81" width="120" height="60" as="geometry" />
        </mxCell>
        <mxCell id="Mkv2vfXG0jg6wndlbOip-337" value="Rescale" style="rounded=1;whiteSpace=wrap;html=1;fontSize=14;fillColor=#dae8fc;strokeColor=#6c8ebf;" vertex="1" parent="1">
          <mxGeometry x="2097" y="1730.81" width="120" height="60" as="geometry" />
        </mxCell>
        <mxCell id="Mkv2vfXG0jg6wndlbOip-338" value="" style="endArrow=classic;html=1;rounded=0;strokeWidth=1;fontSize=18;exitX=1;exitY=0.5;exitDx=0;exitDy=0;entryX=0;entryY=0.5;entryDx=0;entryDy=0;" edge="1" parent="1" source="Mkv2vfXG0jg6wndlbOip-335" target="Mkv2vfXG0jg6wndlbOip-336">
          <mxGeometry width="50" height="50" relative="1" as="geometry">
            <mxPoint x="1870" y="1726.81" as="sourcePoint" />
            <mxPoint x="1920" y="1676.81" as="targetPoint" />
          </mxGeometry>
        </mxCell>
        <mxCell id="Mkv2vfXG0jg6wndlbOip-339" value="" style="endArrow=classic;html=1;rounded=0;strokeWidth=1;fontSize=18;exitX=1;exitY=0.5;exitDx=0;exitDy=0;entryX=0;entryY=0.5;entryDx=0;entryDy=0;" edge="1" parent="1" source="Mkv2vfXG0jg6wndlbOip-336" target="Mkv2vfXG0jg6wndlbOip-337">
          <mxGeometry width="50" height="50" relative="1" as="geometry">
            <mxPoint x="2087" y="1725.81" as="sourcePoint" />
            <mxPoint x="2137" y="1675.81" as="targetPoint" />
          </mxGeometry>
        </mxCell>
        <mxCell id="Mkv2vfXG0jg6wndlbOip-340" value="" style="endArrow=classic;html=1;rounded=0;strokeWidth=1;fontSize=18;exitX=1;exitY=0.5;exitDx=0;exitDy=0;" edge="1" parent="1" source="Mkv2vfXG0jg6wndlbOip-337">
          <mxGeometry width="50" height="50" relative="1" as="geometry">
            <mxPoint x="2268" y="1729.81" as="sourcePoint" />
            <mxPoint x="2270" y="1760.81" as="targetPoint" />
          </mxGeometry>
        </mxCell>
        <mxCell id="Mkv2vfXG0jg6wndlbOip-341" value="Receive" style="rounded=1;whiteSpace=wrap;html=1;fontSize=14;fillColor=#d5e8d4;strokeColor=#82b366;flipV=1;flipH=0;" vertex="1" parent="1">
          <mxGeometry x="1741" y="1862" width="120" height="60" as="geometry" />
        </mxCell>
        <mxCell id="Mkv2vfXG0jg6wndlbOip-342" value="Decode" style="rounded=1;whiteSpace=wrap;html=1;fontSize=14;fillColor=#ffe6cc;strokeColor=#d79b00;" vertex="1" parent="1">
          <mxGeometry x="1919" y="1862" width="120" height="60" as="geometry" />
        </mxCell>
        <mxCell id="Mkv2vfXG0jg6wndlbOip-343" value="Rescale" style="rounded=1;whiteSpace=wrap;html=1;fontSize=14;fillColor=#dae8fc;strokeColor=#6c8ebf;" vertex="1" parent="1">
          <mxGeometry x="2097" y="1862" width="120" height="60" as="geometry" />
        </mxCell>
        <mxCell id="Mkv2vfXG0jg6wndlbOip-344" value="" style="endArrow=classic;html=1;rounded=0;strokeWidth=1;fontSize=18;exitX=1;exitY=0.5;exitDx=0;exitDy=0;entryX=0;entryY=0.5;entryDx=0;entryDy=0;" edge="1" parent="1" source="Mkv2vfXG0jg6wndlbOip-341" target="Mkv2vfXG0jg6wndlbOip-342">
          <mxGeometry width="50" height="50" relative="1" as="geometry">
            <mxPoint x="1870" y="1858" as="sourcePoint" />
            <mxPoint x="1920" y="1808" as="targetPoint" />
          </mxGeometry>
        </mxCell>
        <mxCell id="Mkv2vfXG0jg6wndlbOip-345" value="" style="endArrow=classic;html=1;rounded=0;strokeWidth=1;fontSize=18;exitX=1;exitY=0.5;exitDx=0;exitDy=0;entryX=0;entryY=0.5;entryDx=0;entryDy=0;" edge="1" parent="1" source="Mkv2vfXG0jg6wndlbOip-342" target="Mkv2vfXG0jg6wndlbOip-343">
          <mxGeometry width="50" height="50" relative="1" as="geometry">
            <mxPoint x="2087" y="1857" as="sourcePoint" />
            <mxPoint x="2137" y="1807" as="targetPoint" />
          </mxGeometry>
        </mxCell>
        <mxCell id="Mkv2vfXG0jg6wndlbOip-346" value="" style="endArrow=classic;html=1;rounded=0;strokeWidth=1;fontSize=18;exitX=1;exitY=0.5;exitDx=0;exitDy=0;" edge="1" parent="1" source="Mkv2vfXG0jg6wndlbOip-343">
          <mxGeometry width="50" height="50" relative="1" as="geometry">
            <mxPoint x="2268" y="1861" as="sourcePoint" />
            <mxPoint x="2270" y="1892" as="targetPoint" />
          </mxGeometry>
        </mxCell>
        <mxCell id="Mkv2vfXG0jg6wndlbOip-347" value="" style="endArrow=classic;html=1;rounded=0;strokeWidth=1;fontSize=18;exitX=1;exitY=0.5;exitDx=0;exitDy=0;" edge="1" parent="1" source="Mkv2vfXG0jg6wndlbOip-319">
          <mxGeometry width="50" height="50" relative="1" as="geometry">
            <mxPoint x="2330" y="2034" as="sourcePoint" />
            <mxPoint x="2442" y="1769" as="targetPoint" />
          </mxGeometry>
        </mxCell>
        <mxCell id="Mkv2vfXG0jg6wndlbOip-348" value="" style="endArrow=classic;html=1;rounded=0;strokeWidth=1;fontSize=18;exitX=0.995;exitY=0.094;exitDx=0;exitDy=0;exitPerimeter=0;entryX=0;entryY=0.5;entryDx=0;entryDy=0;" edge="1" parent="1" source="Mkv2vfXG0jg6wndlbOip-320" target="Mkv2vfXG0jg6wndlbOip-321">
          <mxGeometry width="50" height="50" relative="1" as="geometry">
            <mxPoint x="2807" y="1676" as="sourcePoint" />
            <mxPoint x="2857" y="1626" as="targetPoint" />
          </mxGeometry>
        </mxCell>
        <mxCell id="Mkv2vfXG0jg6wndlbOip-349" value="" style="endArrow=classic;html=1;rounded=0;strokeWidth=1;fontSize=18;exitX=1;exitY=0.5;exitDx=0;exitDy=0;" edge="1" parent="1" source="Mkv2vfXG0jg6wndlbOip-320">
          <mxGeometry width="50" height="50" relative="1" as="geometry">
            <mxPoint x="2824" y="1815" as="sourcePoint" />
            <mxPoint x="2610" y="1771" as="targetPoint" />
          </mxGeometry>
        </mxCell>
        <mxCell id="Mkv2vfXG0jg6wndlbOip-350" value="" style="endArrow=classic;html=1;rounded=0;strokeWidth=1;fontSize=18;entryX=0.016;entryY=0.613;entryDx=0;entryDy=0;entryPerimeter=0;" edge="1" parent="1">
          <mxGeometry width="50" height="50" relative="1" as="geometry">
            <mxPoint x="2564" y="1900" as="sourcePoint" />
            <mxPoint x="2610.919999999999" y="1899.7800000000002" as="targetPoint" />
          </mxGeometry>
        </mxCell>
      </root>
    </mxGraphModel>
  </diagram>
</mxfile>
